<svg width="24" height="24" viewBox="0 0 24 24" fill="none" xmlns="http://www.w3.org/2000/svg">
<path d="M0.9375 14.7812C0.419719 14.7812 0 14.3615 0 13.8437V8.31248C0 3.72895 3.72895 0 8.31248 0H15.6875C17.6535 0 19.59 0.691547 21.1383 2.03803V0.9375C21.1383 0.419719 21.558 0 22.0758 0C22.5936 0 23.0133 0.419719 23.0133 0.9375V4.62502C23.0133 5.13469 22.6006 5.55652 22.0867 5.56195C22.0088 5.56294 19.7348 5.56233 18.3883 5.56252C17.8705 5.56252 17.4508 5.1428 17.4508 4.62502C17.4508 4.10723 17.8705 3.68752 18.3883 3.68752H20.1617C18.9751 2.54353 17.3733 1.875 15.6875 1.875H8.31248C4.76283 1.875 1.875 4.76283 1.875 8.31248V13.8437C1.875 14.3615 1.45528 14.7812 0.9375 14.7812ZM23.0625 9.21877C22.5447 9.21877 22.125 9.63848 22.125 10.1563V15.6875C22.125 19.2372 19.2372 22.125 15.6875 22.125H8.31248C6.62662 22.125 5.02486 21.4565 3.83822 20.3125H5.61159C6.12937 20.3125 6.54909 19.8928 6.54909 19.375C6.54909 18.8572 6.12937 18.4375 5.61159 18.4375C1.77394 18.438 1.9012 18.4345 1.8187 18.4438C1.34227 18.4973 0.986578 18.9037 0.986578 19.375V23.0625C0.986578 23.5803 1.4063 24 1.92408 24C2.44186 24 2.86158 23.5803 2.86158 23.0625V21.962C4.40991 23.3084 6.34659 24 8.31248 24H15.6875C20.271 24 24 20.271 24 15.6875V10.1563C24 9.63848 23.5803 9.21877 23.0625 9.21877ZM15.594 15.4392C15.5961 15.081 15.5981 14.6878 15.6 14.2771H12.9628C12.2497 14.2771 11.7979 13.5105 12.1419 12.8868C12.7078 11.8611 14.5861 8.47523 14.9987 7.96898C15.907 6.85439 17.3568 7.4212 17.4657 8.72906C17.4868 8.98195 17.4874 10.7101 17.4825 12.403C17.9812 12.4245 18.379 12.8356 18.379 13.3396C18.379 13.8462 17.9773 14.2589 17.4751 14.2765C17.4728 14.756 17.4705 15.1659 17.469 15.45C17.466 15.9659 17.0468 16.3821 16.5315 16.3821C16.0101 16.3821 15.591 15.9575 15.594 15.4392ZM15.6071 12.4021C15.609 11.7388 15.61 11.0973 15.6098 10.5466C15.2997 11.0842 14.9337 11.7295 14.5568 12.4021H15.6071ZM8.75517 11.5275C7.14642 13.8261 6.49917 14.5912 6.2557 14.9458C5.7622 15.6644 6.10833 16.356 6.68817 16.5493C7.04433 16.668 9.35527 16.6245 10.6309 16.6085C11.1486 16.602 11.563 16.177 11.5565 15.6593C11.55 15.1416 11.1243 14.7283 10.6073 14.7337C9.9833 14.7415 9.32498 14.747 8.74861 14.7491C9.13064 14.2344 9.63605 13.539 10.2914 12.6026C10.7427 11.9578 11.2543 11.0276 11.2543 10.2408C11.2543 8.71758 10.015 7.47834 8.49183 7.47834C7.17473 7.47834 6.03478 8.41538 5.78119 9.70641C5.68139 10.2145 6.01238 10.7072 6.52041 10.807C7.02881 10.9069 7.52123 10.5758 7.62103 10.0678C7.70236 9.65381 8.06855 9.35334 8.49183 9.35334C8.9647 9.35334 9.35236 9.72511 9.37795 10.1917C9.37477 10.2007 9.39375 10.615 8.75517 11.5275Z" fill="white"/>
</svg>
