<svg width="36" height="36" viewBox="0 0 36 36" fill="none" xmlns="http://www.w3.org/2000/svg">
<path d="M7.875 16.875C6.08539 16.877 4.36964 17.5888 3.1042 18.8542C1.83876 20.1196 1.12697 21.8354 1.125 23.625C1.16636 25.8376 1.75077 28.0061 2.82684 29.9398C3.9029 31.8735 5.43764 33.5132 7.29608 34.7146C7.47094 34.8195 7.67105 34.875 7.875 34.875C8.07895 34.875 8.27906 34.8195 8.45392 34.7146C10.3124 33.5132 11.8471 31.8735 12.9232 29.9398C13.9992 28.0061 14.5836 25.8376 14.625 23.625C14.623 21.8354 13.9112 20.1196 12.6458 18.8542C11.3804 17.5888 9.66461 16.877 7.875 16.875ZM7.875 25.875C7.42999 25.875 6.99498 25.743 6.62497 25.4958C6.25496 25.2486 5.96657 24.8972 5.79627 24.486C5.62597 24.0749 5.58142 23.6225 5.66823 23.186C5.75505 22.7496 5.96934 22.3487 6.28401 22.034C6.59868 21.7193 6.99959 21.505 7.43605 21.4182C7.8725 21.3314 8.3249 21.376 8.73604 21.5463C9.14717 21.7166 9.49857 22.005 9.74581 22.375C9.99304 22.745 10.125 23.18 10.125 23.625C10.1244 24.2216 9.88716 24.7935 9.46533 25.2153C9.0435 25.6372 8.47155 25.8744 7.875 25.875Z" fill="#0A3264"/>
<path d="M28.125 1.125C26.3354 1.12697 24.6196 1.83876 23.3542 3.1042C22.0888 4.36964 21.377 6.08539 21.375 7.875C21.4164 10.0876 22.0008 12.2561 23.0768 14.1898C24.1529 16.1235 25.6876 17.7632 27.5461 18.9646C27.7209 19.0695 27.9211 19.125 28.125 19.125C28.3289 19.125 28.5291 19.0695 28.7039 18.9646C30.5624 17.7632 32.0971 16.1235 33.1732 14.1898C34.2492 12.2561 34.8336 10.0876 34.875 7.875C34.873 6.08539 34.1612 4.36964 32.8958 3.1042C31.6304 1.83876 29.9146 1.12697 28.125 1.125ZM28.125 10.125C27.68 10.125 27.245 9.99304 26.875 9.74581C26.505 9.49857 26.2166 9.14717 26.0463 8.73604C25.876 8.3249 25.8314 7.8725 25.9182 7.43605C26.005 6.99959 26.2193 6.59868 26.534 6.28401C26.8487 5.96934 27.2496 5.75505 27.686 5.66823C28.1225 5.58142 28.5749 5.62597 28.986 5.79627C29.3972 5.96657 29.7486 6.25496 29.9958 6.62497C30.243 6.99498 30.375 7.42999 30.375 7.875C30.3744 8.47155 30.1372 9.0435 29.7153 9.46533C29.2935 9.88716 28.7216 10.1244 28.125 10.125Z" fill="#0A3264"/>
<path d="M32.625 29.25C32.6245 30.7417 32.0317 32.1721 30.9769 33.2269C29.9221 34.2817 28.4917 34.8745 27 34.875H11.8575C12.5908 34.1829 13.2645 33.4303 13.8713 32.625H27C27.8951 32.625 28.7536 32.2694 29.3865 31.6365C30.0195 31.0036 30.375 30.1451 30.375 29.25C30.375 28.3549 30.0195 27.4964 29.3865 26.8635C28.7536 26.2306 27.8951 25.875 27 25.875H21.375C20.1816 25.875 19.037 25.4009 18.1931 24.557C17.3492 23.7131 16.875 22.5685 16.875 21.375C16.875 20.1815 17.3492 19.0369 18.1931 18.193C19.037 17.3491 20.1816 16.875 21.375 16.875H22.1288C22.7356 17.6803 23.4093 18.4329 24.1425 19.125H21.375C20.7783 19.125 20.206 19.3621 19.7841 19.784C19.3621 20.206 19.125 20.7783 19.125 21.375C19.125 21.9717 19.3621 22.544 19.7841 22.966C20.206 23.3879 20.7783 23.625 21.375 23.625H27C28.4917 23.6255 29.9221 24.2183 30.9769 25.2731C32.0317 26.3279 32.6245 27.7583 32.625 29.25Z" fill="#0A3264"/>
</svg>
