<svg width="36" height="36" viewBox="0 0 36 36" fill="none" xmlns="http://www.w3.org/2000/svg">
<path d="M4.89598 35.28H22.752C19.584 33.552 17.424 30.24 17.424 26.352C17.424 20.736 22.032 16.128 27.648 16.128H27.792V4.464C27.792 2.448 26.064 0.720001 24.048 0.720001H4.89598C2.87998 0.720001 1.15198 2.448 1.15198 4.464V31.536C1.15198 33.552 2.73598 35.28 4.89598 35.28ZM8.20798 6.48H20.592C21.456 6.48 22.032 7.2 22.032 7.92C22.032 8.784 21.456 9.36 20.592 9.36H8.20798C7.34398 9.36 6.76798 8.784 6.76798 7.92C6.76798 7.2 7.48798 6.48 8.20798 6.48ZM8.20798 13.248H16.272C17.136 13.248 17.712 13.968 17.712 14.688C17.712 15.552 17.136 16.128 16.272 16.128H8.20798C7.34398 16.128 6.76798 15.552 6.76798 14.688C6.76798 13.824 7.48798 13.248 8.20798 13.248Z" fill="#0A3264"/>
<path d="M27.648 19.152C23.616 19.152 20.304 22.464 20.304 26.496C20.304 30.528 23.616 33.84 27.648 33.84C31.68 33.84 34.992 30.528 34.992 26.496C34.992 22.464 31.68 19.152 27.648 19.152ZM31.248 25.776L27.648 29.232C27.36 29.52 27.072 29.664 26.64 29.664C26.208 29.664 25.92 29.52 25.632 29.232L23.904 27.36C23.328 26.784 23.328 25.92 24.048 25.344C24.624 24.768 25.488 24.768 26.064 25.344L26.784 26.208L29.376 23.76C29.952 23.184 30.816 23.184 31.392 23.76C31.824 24.192 31.824 25.2 31.248 25.776Z" fill="#0A3264"/>
</svg>
