<svg width="16" height="14" viewBox="0 0 16 14" fill="none" xmlns="http://www.w3.org/2000/svg">
<g clip-path="url(#clip0_250_98)">
<path d="M14.8375 0.155891L0.626521 5.80105C0.626521 5.80105 -0.0476661 6.03224 0.00541955 6.46234C0.0585051 6.89245 0.605287 7.09137 0.605287 7.09137L4.17795 8.31181L4.18326 8.31718V8.31181L12.7619 2.7903C12.7619 2.7903 13.2556 2.48385 13.2397 2.7903C13.2397 2.7903 13.3299 2.84406 13.0645 3.09675C12.799 3.34944 6.32261 9.24191 6.32261 9.24191L6.31199 9.35482L12.1408 13.8817C13.1123 14.3118 13.4679 13.414 13.4679 13.414L16.0001 0.4946C16.0001 -0.365615 14.8322 0.155891 14.8375 0.155891Z" fill="white"/>
<path d="M8.54136 11.086L6.23213 13.2204C6.23213 13.2204 6.05164 13.3602 5.85522 13.2741L6.29583 9.31177" fill="white"/>
</g>
<defs>
<clipPath id="clip0_250_98">
<rect width="16" height="14" fill="white"/>
</clipPath>
</defs>
</svg>
