<svg width="1099" height="217" viewBox="0 0 1099 217" fill="none" xmlns="http://www.w3.org/2000/svg">
<path d="M0 105.064H592.093L541.857 34.3626C580.844 34.3626 619.744 34.3626 658.73 34.3626C669.894 51.5439 679.34 57.6433 688.356 61.8527C688.356 54.7225 688.356 47.5922 688.356 40.462C699.52 40.462 710.683 40.462 721.847 40.462C721.847 26.9747 721.847 13.4873 721.847 0C744.259 0 766.758 0 789.171 0C789.171 13.4873 789.171 26.9747 789.171 40.462C804.714 40.462 820.343 40.462 835.886 40.462C835.886 52.403 835.886 64.344 835.886 76.285C884.49 78.6904 927.598 72.2474 951.385 34.3626H1068.26L1016.3 105.15H1099V217H0V105.064Z" fill="#0A3264"/>
</svg>
