<svg width="145" height="54" viewBox="0 0 145 54" fill="none" xmlns="http://www.w3.org/2000/svg">
<path d="M55.814 41V11.264H77.318V18.32H63.416V41H55.814ZM75.6065 48.056V33.986C76.8665 33.986 77.7905 33.622 78.3785 32.894C78.9665 32.166 79.3725 31.298 79.5965 30.29C79.8765 29.17 80.0725 28.05 80.1845 26.93C80.3245 25.81 80.4225 24.732 80.4785 23.696C80.5345 22.632 80.5765 21.624 80.6045 20.672C80.6605 18.936 80.7025 17.312 80.7305 15.8C80.7585 14.26 80.7725 12.748 80.7725 11.264H103.117V33.986H106.687V48.056H99.0845V41H83.2085V48.056H75.6065ZM86.2745 33.986H95.5145V18.32H87.6605L87.5345 26.216C87.5345 26.72 87.5065 27.308 87.4505 27.98C87.4225 28.652 87.3525 29.352 87.2405 30.08C87.1565 30.78 87.0305 31.48 86.8625 32.18C86.7225 32.852 86.5265 33.454 86.2745 33.986ZM121.887 41.756V37.22H121.509C118.905 37.22 116.595 36.814 114.579 36.002C112.563 35.19 110.981 33.944 109.833 32.264C108.713 30.556 108.153 28.386 108.153 25.754C108.153 23.066 108.713 20.854 109.833 19.118C110.953 17.382 112.507 16.108 114.495 15.296C116.483 14.456 118.765 14.036 121.341 14.036H121.887V10.13H129.489V14.036H129.741C132.289 14.036 134.585 14.456 136.629 15.296C138.673 16.136 140.283 17.41 141.459 19.118C142.663 20.798 143.265 22.954 143.265 25.586C143.265 28.302 142.719 30.514 141.627 32.222C140.535 33.93 138.981 35.19 136.965 36.002C134.949 36.814 132.569 37.22 129.825 37.22H129.489V41.756H121.887ZM121.635 30.71H121.887V20.588H121.551C120.207 20.588 119.087 20.812 118.191 21.26C117.295 21.708 116.623 22.31 116.175 23.066C115.727 23.822 115.503 24.676 115.503 25.628C115.503 26.636 115.727 27.532 116.175 28.316C116.651 29.072 117.351 29.66 118.275 30.08C119.199 30.5 120.319 30.71 121.635 30.71ZM129.489 30.71H129.741C131.085 30.71 132.205 30.5 133.101 30.08C134.025 29.66 134.711 29.072 135.159 28.316C135.635 27.532 135.873 26.636 135.873 25.628C135.873 24.648 135.649 23.78 135.201 23.024C134.753 22.268 134.081 21.68 133.185 21.26C132.289 20.812 131.155 20.588 129.783 20.588H129.489V30.71Z" fill="white"/>
<path d="M27.1123 17.1565C27.1113 16.2099 26.3439 15.4424 25.3972 15.4414H11.5897C10.643 15.4424 9.87591 16.2099 9.87457 17.1565V19.0002H27.1123V17.1565Z" fill="white"/>
<path d="M16.879 9H20.5199V13.7262H16.879V9Z" fill="white"/>
<path d="M19.3512 45.9999H27.5361L32.5963 33.5929L19.3512 24.5203V45.9999Z" fill="white"/>
<path d="M27.1123 20.7153H9.87457V27.773L18.02 22.1936C18.3121 21.9936 18.6969 21.9936 18.989 22.1936L27.1123 27.7576V20.7153Z" fill="white"/>
<path d="M9.4733 45.9998H17.6361V24.5356L4.41309 33.5928L9.4733 45.9998Z" fill="white"/>
</svg>
