<svg width="30" height="30" viewBox="0 0 30 30" fill="none" xmlns="http://www.w3.org/2000/svg">
<path d="M9.375 7.5C9.375 4.3934 11.8934 1.875 15 1.875C18.1066 1.875 20.625 4.3934 20.625 7.5C20.625 8.29826 20.4581 9.06003 20.1565 9.75038C20.0074 10.0918 19.6701 10.3125 19.2975 10.3125H10.7025C10.3299 10.3125 9.99262 10.0918 9.84347 9.75038C9.54187 9.06003 9.375 8.29826 9.375 7.5Z" fill="#0A3264"/>
<path d="M22.5 20.625C23.0178 20.625 23.4375 20.2053 23.4375 19.6875C23.4375 19.1697 23.0178 18.75 22.5 18.75C21.9822 18.75 21.5625 19.1697 21.5625 19.6875C21.5625 20.2053 21.9822 20.625 22.5 20.625Z" fill="#0A3264"/>
<path fill-rule="evenodd" clip-rule="evenodd" d="M5.625 5.625H8.70926C8.53245 6.2191 8.4375 6.84847 8.4375 7.5H5.625C4.58947 7.5 3.75 8.33947 3.75 9.375C3.75 10.4106 4.58947 11.25 5.625 11.25H23.4375C24.4928 11.25 25.4665 11.5987 26.25 12.1871V10.3125C26.25 8.7592 24.9908 7.5 23.4375 7.5H21.5625C21.5625 6.84847 21.4675 6.2191 21.2907 5.625H23.4375C26.0263 5.625 28.125 7.72367 28.125 10.3125V25.3125C28.125 26.8658 26.8658 28.125 25.3125 28.125H4.6875C3.1342 28.125 1.875 26.8658 1.875 25.3125V9.375C1.875 7.30393 3.55393 5.625 5.625 5.625ZM26.25 23.4375H21.5625C20.0092 23.4375 18.75 22.1783 18.75 20.625V18.75C18.75 17.1967 20.0092 15.9375 21.5625 15.9375H26.25V23.4375Z" fill="#0A3264"/>
</svg>
