<svg width="483" height="139" viewBox="0 0 483 139" fill="none" xmlns="http://www.w3.org/2000/svg">
<path d="M0.666667 82C0.666667 84.9455 3.05448 87.3333 6 87.3333C8.94552 87.3333 11.3333 84.9455 11.3333 82C11.3333 79.0545 8.94552 76.6667 6 76.6667C3.05448 76.6667 0.666667 79.0545 0.666667 82ZM480.981 0.805271C480.873 0.263559 480.347 -0.088403 479.805 0.0191429L470.978 1.7717C470.436 1.87925 470.084 2.40558 470.191 2.94729C470.299 3.489 470.825 3.84096 471.367 3.73342L479.214 2.17559L480.772 10.0224C480.879 10.5642 481.406 10.9161 481.947 10.8086C482.489 10.701 482.841 10.1747 482.733 9.63299L480.981 0.805271ZM7.93457 84.4902C8.39598 84.7938 9.01607 84.6658 9.31959 84.2044C9.6231 83.743 9.4951 83.1229 9.03369 82.8193L7.93457 84.4902ZM14.0679 86.0485C13.5996 85.7556 12.9827 85.8978 12.6898 86.366C12.3969 86.8342 12.5391 87.4512 13.0073 87.7441L14.0679 86.0485ZM18.1807 90.8997C18.6554 91.182 19.2691 91.0261 19.5514 90.5514C19.8337 90.0768 19.6778 89.4631 19.2032 89.1808L18.1807 90.8997ZM24.3623 92.1743C23.8816 91.9022 23.2715 92.0713 22.9994 92.552C22.7274 93.0326 22.8965 93.6428 23.3772 93.9148L24.3623 92.1743ZM28.6742 96.8391C29.1605 97.1009 29.767 96.9189 30.0288 96.4327C30.2906 95.9464 30.1086 95.3399 29.6224 95.0781L28.6742 96.8391ZM34.9185 97.8597C34.4269 97.6079 33.8243 97.8023 33.5725 98.2938C33.3207 98.7854 33.5151 99.388 34.0066 99.6398L34.9185 97.8597ZM39.4008 102.335C39.8972 102.577 40.4958 102.371 40.7378 101.874C40.9797 101.378 40.7733 100.779 40.2768 100.537L39.4008 102.335ZM45.7065 103.117C45.2053 102.885 44.6109 103.103 44.3787 103.604C44.1466 104.105 44.3646 104.7 44.8658 104.932L45.7065 103.117ZM50.3433 107.406C50.8488 107.629 51.4389 107.399 51.6615 106.894C51.8841 106.389 51.6548 105.798 51.1493 105.576L50.3433 107.406ZM56.6725 107.946C56.1629 107.733 55.5771 107.974 55.3641 108.483C55.151 108.993 55.3913 109.578 55.9008 109.791L56.6725 107.946ZM61.4774 112.064C61.9907 112.267 62.572 112.017 62.7757 111.503C62.9795 110.99 62.7285 110.409 62.2152 110.205L61.4774 112.064ZM67.8036 112.365C67.2867 112.17 66.71 112.432 66.5155 112.949C66.321 113.466 66.5823 114.042 67.0992 114.237L67.8036 112.365ZM72.7806 116.318C73.3008 116.503 73.8728 116.231 74.0582 115.711C74.2436 115.191 73.9721 114.619 73.4518 114.434L72.7806 116.318ZM79.0966 116.39C78.5733 116.214 78.006 116.495 77.8297 117.018C77.6533 117.542 77.9346 118.109 78.4579 118.285L79.0966 116.39ZM84.1978 120.165C84.7241 120.333 85.2865 120.042 85.4539 119.516C85.6213 118.989 85.3304 118.427 84.8041 118.259L84.1978 120.165ZM90.5322 120.029C90.0032 119.871 89.4458 120.171 89.2872 120.7C89.1286 121.229 89.4288 121.786 89.9578 121.945L90.5322 120.029ZM95.7395 123.627C96.271 123.776 96.8235 123.467 96.9733 122.935C97.1232 122.404 96.8138 121.851 96.2822 121.702L95.7395 123.627ZM102.086 123.287C101.552 123.146 101.005 123.464 100.863 123.998C100.722 124.532 101.041 125.079 101.575 125.22L102.086 123.287ZM107.399 126.711C107.935 126.843 108.477 126.516 108.61 125.98C108.742 125.444 108.415 124.902 107.879 124.769L107.399 126.711ZM113.713 126.163C113.175 126.039 112.638 126.375 112.514 126.913C112.39 127.451 112.726 127.988 113.264 128.112L113.713 126.163ZM119.159 129.422C119.699 129.538 120.231 129.194 120.346 128.654C120.462 128.114 120.118 127.582 119.578 127.467L119.159 129.422ZM125.439 128.673C124.897 128.566 124.371 128.918 124.264 129.46C124.157 130.002 124.509 130.528 125.051 130.635L125.439 128.673ZM130.982 131.761C131.525 131.86 132.046 131.5 132.145 130.956C132.243 130.413 131.883 129.892 131.34 129.793L130.982 131.761ZM137.247 130.821C136.702 130.73 136.187 131.099 136.096 131.643C136.006 132.188 136.374 132.703 136.919 132.794L137.247 130.821ZM142.867 133.735C143.414 133.817 143.923 133.441 144.005 132.895C144.087 132.349 143.711 131.839 143.165 131.757L142.867 133.735ZM149.116 132.606C148.568 132.533 148.065 132.916 147.991 133.464C147.917 134.011 148.301 134.515 148.848 134.588L149.116 132.606ZM154.817 135.349C155.366 135.414 155.863 135.023 155.929 134.475C155.995 133.926 155.603 133.428 155.055 133.363L154.817 135.349ZM161.015 134.031C160.466 133.974 159.974 134.372 159.917 134.922C159.859 135.471 160.258 135.963 160.807 136.02L161.015 134.031ZM166.817 136.603C167.367 136.652 167.853 136.246 167.902 135.696C167.951 135.146 167.545 134.66 166.995 134.611L166.817 136.603ZM172.963 135.1C172.412 135.059 171.932 135.472 171.891 136.023C171.85 136.574 172.263 137.053 172.814 137.094L172.963 135.1ZM178.832 137.497C179.383 137.53 179.856 137.11 179.889 136.559C179.922 136.007 179.502 135.534 178.95 135.501L178.832 137.497ZM184.943 135.813C184.392 135.788 183.924 136.215 183.9 136.767C183.875 137.319 184.302 137.786 184.854 137.811L184.943 135.813ZM190.872 138.034C191.424 138.051 191.885 137.616 191.901 137.064C191.917 136.512 191.483 136.052 190.931 136.035L190.872 138.034ZM196.933 136.169C196.381 136.16 195.926 136.602 195.918 137.154C195.91 137.706 196.351 138.16 196.903 138.168L196.933 136.169ZM202.929 138.213C203.481 138.213 203.929 137.765 203.929 137.213C203.929 136.66 203.481 136.213 202.929 136.213L202.929 138.213ZM208.924 136.167C208.372 136.176 207.931 136.63 207.939 137.182C207.947 137.735 208.402 138.176 208.954 138.167L208.924 136.167ZM214.986 138.031C215.539 138.015 215.973 137.554 215.956 137.002C215.939 136.45 215.479 136.016 214.926 136.032L214.986 138.031ZM220.916 135.807C220.364 135.832 219.937 136.3 219.962 136.851C219.986 137.403 220.454 137.83 221.006 137.805L220.916 135.807ZM227.025 137.489C227.576 137.456 227.996 136.982 227.963 136.43C227.93 135.879 227.456 135.459 226.904 135.492L227.025 137.489ZM232.893 135.086C232.343 135.128 231.93 135.608 231.972 136.159C232.013 136.709 232.493 137.122 233.044 137.081L232.893 135.086ZM239.046 136.582C239.596 136.532 240.002 136.046 239.952 135.496C239.902 134.946 239.416 134.54 238.866 134.59L239.046 136.582ZM244.835 134.002C244.286 134.061 243.888 134.553 243.946 135.102C244.004 135.652 244.497 136.049 245.046 135.991L244.835 134.002ZM251.038 135.308C251.586 135.241 251.976 134.743 251.909 134.194C251.843 133.646 251.344 133.256 250.796 133.323L251.038 135.308ZM256.74 132.551C256.193 132.627 255.811 133.131 255.886 133.678C255.961 134.226 256.466 134.608 257.013 134.533L256.74 132.551ZM262.98 133.664C263.526 133.58 263.9 133.069 263.816 132.524C263.732 131.978 263.222 131.603 262.676 131.687L262.98 133.664ZM268.597 130.73C268.052 130.822 267.686 131.339 267.778 131.883C267.871 132.428 268.387 132.794 268.931 132.702L268.597 130.73ZM274.865 131.645C275.408 131.544 275.766 131.022 275.665 130.479C275.564 129.936 275.042 129.578 274.499 129.679L274.865 131.645ZM280.387 128.534C279.846 128.644 279.496 129.172 279.606 129.713C279.715 130.254 280.243 130.604 280.784 130.494L280.387 128.534ZM286.683 129.248C287.222 129.13 287.563 128.596 287.445 128.057C287.326 127.517 286.793 127.176 286.253 127.295L286.683 129.248ZM292.099 125.96C291.561 126.088 291.229 126.626 291.356 127.164C291.483 127.701 292.022 128.034 292.56 127.906L292.099 125.96ZM298.416 126.468C298.951 126.332 299.275 125.787 299.139 125.252C299.002 124.717 298.458 124.393 297.923 124.53L298.416 126.468ZM303.72 123.003C303.187 123.148 302.873 123.698 303.018 124.231C303.163 124.764 303.713 125.078 304.246 124.933L303.72 123.003ZM310.05 123.301C310.58 123.147 310.885 122.592 310.731 122.062C310.577 121.531 310.022 121.226 309.492 121.38L310.05 123.301ZM315.236 119.659C314.709 119.822 314.413 120.382 314.576 120.91C314.739 121.437 315.299 121.733 315.827 121.57L315.236 119.659ZM321.571 119.742C322.096 119.57 322.382 119.005 322.21 118.48C322.038 117.955 321.473 117.669 320.948 117.841L321.571 119.742ZM326.629 115.924C326.107 116.105 325.831 116.675 326.012 117.197C326.193 117.719 326.763 117.995 327.285 117.814L326.629 115.924ZM332.964 115.786C333.483 115.596 333.749 115.021 333.559 114.503C333.368 113.984 332.794 113.718 332.275 113.909L332.964 115.786ZM337.883 111.794C337.368 111.994 337.113 112.573 337.312 113.088C337.511 113.603 338.091 113.859 338.606 113.66L337.883 111.794ZM344.21 111.432C344.721 111.223 344.967 110.639 344.758 110.128C344.55 109.617 343.966 109.371 343.455 109.58L344.21 111.432ZM348.984 107.266C348.477 107.483 348.242 108.071 348.46 108.579C348.678 109.086 349.266 109.321 349.773 109.103L348.984 107.266ZM355.292 106.675C355.795 106.448 356.019 105.855 355.792 105.352C355.565 104.849 354.973 104.625 354.469 104.852L355.292 106.675ZM359.911 102.336C359.412 102.572 359.199 103.169 359.436 103.668C359.672 104.167 360.268 104.38 360.767 104.143L359.911 102.336ZM366.193 101.512C366.688 101.266 366.889 100.666 366.644 100.171C366.398 99.6767 365.798 99.4749 365.303 99.7206L366.193 101.512ZM370.644 97.0046C370.154 97.2596 369.964 97.8634 370.219 98.3533C370.474 98.8432 371.078 99.0337 371.568 98.7787L370.644 97.0046ZM376.894 95.9415C377.379 95.6772 377.558 95.0699 377.294 94.5849C377.029 94.1 376.422 93.9211 375.937 94.1854L376.894 95.9415ZM381.168 91.2686C380.689 91.5422 380.521 92.1529 380.795 92.6327C381.069 93.1124 381.679 93.2795 382.159 93.0059L381.168 91.2686ZM387.369 89.9676C387.843 89.6847 387.998 89.0709 387.715 88.5965C387.432 88.1222 386.819 87.967 386.344 88.2499L387.369 89.9676ZM391.466 85.1268C390.997 85.4189 390.854 86.0357 391.146 86.5044C391.439 86.9731 392.055 87.1162 392.524 86.824L391.466 85.1268ZM397.605 83.5866C398.068 83.2852 398.199 82.6657 397.897 82.2029C397.596 81.7401 396.977 81.6092 396.514 81.9106L397.605 83.5866ZM401.502 78.5906C401.046 78.9012 400.927 79.5232 401.238 79.9799C401.548 80.4366 402.17 80.555 402.627 80.2444L401.502 78.5906ZM407.587 76.7978C408.038 76.4781 408.143 75.8539 407.824 75.4035C407.504 74.9532 406.88 74.8473 406.429 75.167L407.587 76.7978ZM411.272 71.6552C410.828 71.9839 410.735 72.6102 411.063 73.054C411.392 73.4977 412.018 73.591 412.462 73.2622L411.272 71.6552ZM417.274 69.6204C417.711 69.2826 417.792 68.6546 417.454 68.2176C417.116 67.7807 416.488 67.7003 416.051 68.038L417.274 69.6204ZM420.759 64.3213C420.329 64.6679 420.261 65.2975 420.608 65.7274C420.955 66.1573 421.584 66.2248 422.014 65.8781L420.759 64.3213ZM426.662 62.0503C427.085 61.6948 427.139 61.064 426.784 60.6413C426.428 60.2186 425.798 60.1642 425.375 60.5196L426.662 62.0503ZM429.924 56.6126C429.509 56.9767 429.467 57.6085 429.831 58.0237C430.196 58.4389 430.827 58.4803 431.243 58.1161L429.924 56.6126ZM435.739 54.0882C436.147 53.7155 436.175 53.0829 435.802 52.6754C435.43 52.2679 434.797 52.2397 434.389 52.6125L435.739 54.0882ZM438.759 48.5312C438.359 48.9124 438.344 49.5454 438.725 49.945C439.107 50.3447 439.74 50.3596 440.139 49.9784L438.759 48.5312ZM444.467 45.7626C444.859 45.3731 444.86 44.74 444.471 44.3484C444.081 43.9569 443.448 43.9552 443.057 44.3447L444.467 45.7626ZM447.26 40.0746C446.877 40.4722 446.889 41.1053 447.286 41.4886C447.684 41.8718 448.317 41.8602 448.7 41.4626L447.26 40.0746ZM452.832 37.0847C453.207 36.6791 453.182 36.0465 452.777 35.6716C452.371 35.2968 451.738 35.3217 451.363 35.7273L452.832 37.0847ZM455.392 31.2755C455.026 31.6889 455.064 32.3209 455.477 32.6871C455.891 33.0534 456.523 33.0151 456.889 32.6017L455.392 31.2755ZM460.84 28.0458C461.198 27.6248 461.146 26.9937 460.725 26.6362C460.304 26.2788 459.673 26.3303 459.316 26.7513L460.84 28.0458ZM463.136 22.1551C462.788 22.5835 462.852 23.2133 463.281 23.5619C463.709 23.9105 464.339 23.8458 464.688 23.4174L463.136 22.1551ZM468.456 18.6853C468.796 18.2497 468.718 17.6213 468.282 17.2818C467.847 16.9423 467.218 17.0202 466.879 17.4558L468.456 18.6853ZM470.51 12.6952C470.18 13.1378 470.271 13.7644 470.713 14.0948C471.156 14.4251 471.782 14.3341 472.113 13.8916L470.51 12.6952ZM475.661 9.0336C475.982 8.58427 475.878 7.9597 475.429 7.63857C474.98 7.31745 474.355 7.42138 474.034 7.87071L475.661 9.0336ZM477.478 2.94504C477.166 3.40093 477.283 4.02322 477.739 4.33496C478.194 4.64671 478.817 4.52986 479.128 4.07397L477.478 2.94504ZM5.44075 82.829C6.26723 83.3865 7.09853 83.9403 7.93457 84.4902L9.03369 82.8193C8.20409 82.2736 7.37925 81.7242 6.55925 81.171L5.44075 82.829ZM13.0073 87.7441C14.7136 88.8113 16.4382 89.8633 18.1807 90.8997L19.2032 89.1808C17.4733 88.1519 15.7614 87.1077 14.0679 86.0485L13.0073 87.7441ZM23.3772 93.9148C25.1262 94.9048 26.8921 95.8796 28.6742 96.8391L29.6224 95.0781C27.8525 94.1252 26.099 93.1572 24.3623 92.1743L23.3772 93.9148ZM34.0066 99.6398C35.7896 100.553 37.5878 101.452 39.4008 102.335L40.2768 100.537C38.4758 99.6595 36.6895 98.767 34.9185 97.8597L34.0066 99.6398ZM44.8658 104.932C46.678 105.771 48.504 106.596 50.3433 107.406L51.1493 105.576C49.3215 104.771 47.5071 103.951 45.7065 103.117L44.8658 104.932ZM55.9008 109.791C57.7472 110.564 59.6062 111.321 61.4774 112.064L62.2152 110.205C60.3553 109.467 58.5075 108.714 56.6725 107.946L55.9008 109.791ZM67.0992 114.237C68.9816 114.945 70.8755 115.639 72.7806 116.318L73.4518 114.434C71.5578 113.759 69.6749 113.069 67.8036 112.365L67.0992 114.237ZM78.4579 118.285C80.3609 118.927 82.2744 119.553 84.1978 120.165L84.8041 118.259C82.8915 117.651 80.9888 117.028 79.0966 116.39L78.4579 118.285ZM89.9578 121.945C91.8759 122.52 93.8032 123.081 95.7395 123.627L96.2822 121.702C94.3565 121.159 92.4397 120.601 90.5322 120.029L89.9578 121.945ZM101.575 125.22C103.508 125.732 105.449 126.228 107.399 126.711L107.879 124.769C105.94 124.289 104.009 123.795 102.086 123.287L101.575 125.22ZM113.264 128.112C115.222 128.563 117.187 129 119.159 129.422L119.578 127.467C117.616 127.047 115.661 126.612 113.713 126.163L113.264 128.112ZM125.051 130.635C127.021 131.025 128.998 131.4 130.982 131.761L131.34 129.793C129.366 129.435 127.399 129.061 125.439 128.673L125.051 130.635ZM136.919 132.794C138.896 133.122 140.879 133.436 142.867 133.735L143.165 131.757C141.187 131.46 139.214 131.147 137.247 130.821L136.919 132.794ZM148.848 134.588C150.833 134.856 152.823 135.11 154.817 135.349L155.055 133.363C153.071 133.125 151.091 132.873 149.116 132.606L148.848 134.588ZM160.807 136.02C162.806 136.229 164.81 136.424 166.817 136.603L166.995 134.611C164.998 134.432 163.005 134.239 161.015 134.031L160.807 136.02ZM172.814 137.094C174.817 137.244 176.823 137.378 178.832 137.497L178.95 135.501C176.951 135.382 174.955 135.248 172.963 135.1L172.814 137.094ZM184.854 137.811C186.857 137.9 188.863 137.975 190.872 138.034L190.931 136.035C188.933 135.976 186.937 135.902 184.943 135.813L184.854 137.811ZM196.903 138.168C198.91 138.198 200.919 138.213 202.929 138.213L202.929 136.213C200.929 136.213 198.93 136.198 196.933 136.169L196.903 138.168ZM208.954 138.167C210.964 138.137 212.975 138.092 214.986 138.031L214.926 136.032C212.925 136.092 210.924 136.137 208.924 136.167L208.954 138.167ZM221.006 137.805C223.011 137.715 225.018 137.61 227.025 137.489L226.904 135.492C224.908 135.613 222.911 135.718 220.916 135.807L221.006 137.805ZM233.044 137.081C235.045 136.93 237.046 136.764 239.046 136.582L238.866 134.59C236.875 134.771 234.884 134.936 232.893 135.086L233.044 137.081ZM245.046 135.991C247.044 135.779 249.041 135.551 251.038 135.308L250.796 133.323C248.81 133.565 246.823 133.791 244.835 134.002L245.046 135.991ZM257.013 134.533C259.004 134.259 260.993 133.969 262.98 133.664L262.676 131.687C260.699 131.991 258.721 132.279 256.74 132.551L257.013 134.533ZM268.931 132.702C270.912 132.365 272.89 132.013 274.865 131.645L274.499 129.679C272.534 130.045 270.566 130.395 268.597 130.73L268.931 132.702ZM280.784 130.494C282.753 130.095 284.72 129.679 286.683 129.248L286.253 127.295C284.301 127.724 282.345 128.137 280.387 128.534L280.784 130.494ZM292.56 127.906C294.515 127.443 296.468 126.964 298.416 126.468L297.923 124.53C295.985 125.023 294.044 125.499 292.099 125.96L292.56 127.906ZM304.246 124.933C306.184 124.405 308.119 123.861 310.05 123.301L309.492 121.38C307.572 121.937 305.648 122.478 303.72 123.003L304.246 124.933ZM315.827 121.57C317.746 120.977 319.661 120.368 321.571 119.742L320.948 117.841C319.049 118.464 317.145 119.069 315.236 119.659L315.827 121.57ZM327.285 117.814C329.183 117.155 331.077 116.479 332.964 115.786L332.275 113.909C330.399 114.597 328.517 115.269 326.629 115.924L327.285 117.814ZM338.606 113.66C340.48 112.934 342.348 112.191 344.21 111.432L343.455 109.58C341.604 110.335 339.747 111.073 337.883 111.794L338.606 113.66ZM349.773 109.103C351.62 108.311 353.459 107.501 355.292 106.675L354.469 104.852C352.648 105.673 350.82 106.478 348.984 107.266L349.773 109.103ZM360.767 104.143C362.583 103.283 364.392 102.406 366.193 101.512L365.303 99.7206C363.514 100.609 361.716 101.481 359.911 102.336L360.767 104.143ZM371.568 98.7787C373.351 97.8503 375.127 96.9047 376.894 95.9415L375.937 94.1854C374.181 95.1424 372.417 96.0821 370.644 97.0046L371.568 98.7787ZM382.159 93.0059C383.904 92.0106 385.641 90.9979 387.369 89.9676L386.344 88.2499C384.628 89.2735 382.902 90.2797 381.168 91.2686L382.159 93.0059ZM392.524 86.824C394.227 85.7624 395.921 84.6833 397.605 83.5866L396.514 81.9106C394.841 83.0001 393.158 84.0721 391.466 85.1268L392.524 86.824ZM402.627 80.2444C404.29 79.1133 405.944 77.9644 407.587 76.7978L406.429 75.167C404.797 76.3258 403.155 77.467 401.502 78.5906L402.627 80.2444ZM412.462 73.2622C414.077 72.066 415.681 70.8521 417.274 69.6204L416.051 68.038C414.469 69.2614 412.875 70.467 411.272 71.6552L412.462 73.2622ZM422.014 65.8781C423.575 64.6198 425.124 63.3439 426.662 62.0503L425.375 60.5196C423.847 61.8044 422.308 63.0716 420.759 64.3213L422.014 65.8781ZM431.243 58.1161C432.753 56.7912 434.252 55.4486 435.739 54.0882L434.389 52.6125C432.913 53.9635 431.424 55.2968 429.924 56.6126L431.243 58.1161ZM440.139 49.9784C441.594 48.5909 443.037 47.1856 444.467 45.7626L443.057 44.3447C441.636 45.7578 440.203 47.1533 438.759 48.5312L440.139 49.9784ZM448.7 41.4626C450.09 40.0208 451.467 38.5615 452.832 37.0847L451.363 35.7273C450.008 37.1937 448.64 38.6428 447.26 40.0746L448.7 41.4626ZM456.889 32.6017C458.219 31.1005 459.536 29.5818 460.84 28.0458L459.316 26.7513C458.021 28.2766 456.712 29.7847 455.392 31.2755L456.889 32.6017ZM464.688 23.4174C465.957 21.8573 467.213 20.28 468.456 18.6853L466.879 17.4558C465.644 19.0395 464.397 20.6059 463.136 22.1551L464.688 23.4174ZM472.113 13.8916C473.309 12.2891 474.492 10.6698 475.661 9.0336L474.034 7.87071C472.873 9.49572 471.698 11.1039 470.51 12.6952L472.113 13.8916ZM479.128 4.07397C479.699 3.23886 480.267 2.3995 480.831 1.55588L479.169 0.444124C478.608 1.28201 478.045 2.11564 477.478 2.94504L479.128 4.07397Z" fill="#0A3264"/>
</svg>
