<svg width="30" height="30" viewBox="0 0 30 30" fill="none" xmlns="http://www.w3.org/2000/svg">
<path fill-rule="evenodd" clip-rule="evenodd" d="M14.0625 4.0625V1.5625H10C9.4825 1.5625 9.0625 1.9825 9.0625 2.5V4.0625H14.0625ZM15.9375 4.0625H20.9375V2.5C20.9375 1.9825 20.5175 1.5625 20 1.5625H15.9375V4.0625Z" fill="#0A3264"/>
<path fill-rule="evenodd" clip-rule="evenodd" d="M25.2576 19.065C25.4276 18.59 25.1913 18.0663 24.7238 17.88L15.3488 14.13C15.1251 14.04 14.8751 14.04 14.6513 14.13L5.27633 17.88C4.80883 18.0663 4.57258 18.59 4.74258 19.065C4.74258 19.065 6.79133 24.8025 7.57133 26.9863C7.88133 27.8563 8.70633 28.4375 9.63133 28.4375H20.3688C21.2938 28.4375 22.1188 27.8563 22.4288 26.9863C23.2088 24.8025 25.2576 19.065 25.2576 19.065ZM14.0626 26.5625H15.9376V21.25C15.9376 20.7325 15.5176 20.3125 15.0001 20.3125C14.4826 20.3125 14.0626 20.7325 14.0626 21.25V26.5625Z" fill="#0A3264"/>
<path fill-rule="evenodd" clip-rule="evenodd" d="M14.0625 13.0188V10.9375H6.5625V16.0188L14.0625 13.0188ZM23.4375 16.0188V10.9375H15.9375V13.0188L23.4375 16.0188ZM14.0625 5.3125H7.5C6.9825 5.3125 6.5625 5.7325 6.5625 6.25V9.0625H14.0625V5.3125ZM15.9375 5.3125V9.0625H23.4375V6.25C23.4375 5.7325 23.0175 5.3125 22.5 5.3125H15.9375Z" fill="#0A3264"/>
</svg>
