<svg width="473" height="88" viewBox="0 0 473 88" fill="none" xmlns="http://www.w3.org/2000/svg">
<path d="M472.964 83.7324C473.111 84.2645 472.8 84.8157 472.268 84.9635L463.596 87.3723C463.064 87.5201 462.513 87.2086 462.365 86.6764C462.217 86.1443 462.529 85.5931 463.061 85.4453L470.769 83.3041L468.628 75.596C468.48 75.0638 468.791 74.5126 469.324 74.3648C469.856 74.217 470.407 74.5286 470.555 75.0607L472.964 83.7324ZM2.21715 70.2748C2.58208 69.8602 3.21397 69.82 3.62851 70.185C4.04305 70.5499 4.08327 71.1818 3.71833 71.5963L2.21715 70.2748ZM7.75056 67.1815C7.37072 67.5825 6.73779 67.5996 6.33686 67.2197C5.93593 66.8399 5.91882 66.207 6.29866 65.806L7.75056 67.1815ZM10.5375 61.4909C10.9316 61.104 11.5647 61.1098 11.9516 61.5038C12.3386 61.8979 12.3328 62.531 11.9387 62.918L10.5375 61.4909ZM16.2792 58.8057C15.8716 59.1784 15.2391 59.15 14.8665 58.7424C14.4938 58.3348 14.5221 57.7023 14.9298 57.3296L16.2792 58.8057ZM19.4657 53.3269C19.8861 52.9688 20.5173 53.0193 20.8754 53.4398C21.2335 53.8602 21.183 54.4914 20.7626 54.8495L19.4657 53.3269ZM25.3801 51.0519C24.9476 51.3954 24.3186 51.3232 23.9751 50.8906C23.6317 50.4581 23.7039 49.8291 24.1364 49.4857L25.3801 51.0519ZM28.9385 45.8036C29.3823 45.4749 30.0086 45.5683 30.3372 46.0122C30.6658 46.456 30.5724 47.0823 30.1286 47.4109L28.9385 45.8036ZM34.9902 43.9343C34.5358 44.2481 33.913 44.1341 33.5991 43.6797C33.2853 43.2252 33.3993 42.6024 33.8537 42.2886L34.9902 43.9343ZM38.8907 38.9291C39.3551 38.6301 39.9739 38.764 40.2729 39.2284C40.5719 39.6927 40.438 40.3115 39.9736 40.6106L38.8907 38.9291ZM45.0461 37.4555C44.5727 37.7398 43.9583 37.5865 43.674 37.1131C43.3896 36.6396 43.5429 36.0253 44.0164 35.7409L45.0461 37.4555ZM49.2587 32.7009C49.7407 32.4312 50.35 32.6032 50.6198 33.0851C50.8895 33.567 50.7175 34.1764 50.2356 34.4461L49.2587 32.7009ZM55.4866 31.6086C54.9969 31.864 54.3929 31.674 54.1375 31.1843C53.8821 30.6946 54.072 30.0906 54.5617 29.8353L55.4866 31.6086ZM59.9824 27.1076C60.4793 26.8665 61.0775 27.0738 61.3187 27.5706C61.5598 28.0675 61.3525 28.6658 60.8556 28.9069L59.9824 27.1076ZM66.2548 26.3792C65.7514 26.6064 65.1591 26.3826 64.9319 25.8792C64.7047 25.3758 64.9285 24.7836 65.4319 24.5563L66.2548 26.3792ZM70.9928 22.1369C71.5021 21.9235 72.0881 22.1633 72.3016 22.6727C72.515 23.1821 72.2752 23.768 71.7658 23.9815L70.9928 22.1369ZM77.2992 21.7475C76.7844 21.9476 76.2049 21.6925 76.0048 21.1777C75.8047 20.663 76.0599 20.0835 76.5746 19.8834L77.2992 21.7475ZM82.2451 17.7625C82.7648 17.5755 83.3377 17.8453 83.5246 18.365C83.7115 18.8847 83.4417 19.4575 82.922 19.6444L82.2451 17.7625ZM88.5744 17.6901C88.0503 17.8642 87.4843 17.5804 87.3102 17.0562C87.1361 16.5321 87.4199 15.9661 87.944 15.792L88.5744 17.6901ZM93.6993 13.9568C94.2275 13.7953 94.7865 14.0925 94.9481 14.6206C95.1096 15.1488 94.8124 15.7078 94.2843 15.8694L93.6993 13.9568ZM100.041 14.1816C99.5091 14.3309 98.9571 14.0209 98.8078 13.4892C98.6585 12.9574 98.9685 12.4054 99.5003 12.2561L100.041 14.1816ZM105.319 10.6929C105.854 10.5555 106.399 10.8778 106.536 11.4128C106.673 11.9477 106.351 12.4927 105.816 12.6301L105.319 10.6929ZM111.664 11.1963C111.127 11.322 110.589 10.9879 110.463 10.4501C110.337 9.91234 110.672 9.37449 111.209 9.24881L111.664 11.1963ZM117.072 7.94353C117.613 7.82913 118.143 8.1744 118.258 8.71471C118.372 9.25501 118.027 9.78576 117.487 9.90016L117.072 7.94353ZM123.387 8.71416C122.844 8.81748 122.32 8.46143 122.217 7.9189C122.114 7.37637 122.47 6.85279 123.012 6.74947L123.387 8.71416ZM128.934 5.68243C129.478 5.58981 129.995 5.95612 130.087 6.50058C130.18 7.04504 129.814 7.5615 129.269 7.65411L128.934 5.68243ZM135.193 6.70517C134.647 6.78732 134.138 6.41116 134.056 5.86502C133.973 5.31888 134.35 4.80956 134.896 4.72742L135.193 6.70517ZM140.881 3.88454C141.429 3.81261 141.931 4.1982 142.003 4.74578C142.075 5.29337 141.689 5.79558 141.142 5.86751L140.881 3.88454ZM147.077 5.14253C146.528 5.20457 146.033 4.80997 145.971 4.26118C145.909 3.71239 146.303 3.21722 146.852 3.15519L147.077 5.14253ZM152.886 2.52741C153.436 2.47509 153.924 2.87838 153.976 3.42818C154.028 3.97799 153.625 4.4661 153.075 4.51842L152.886 2.52741ZM159.021 4.00393C158.47 4.04688 157.989 3.63534 157.946 3.08472C157.903 2.53411 158.315 2.05293 158.865 2.00999L159.021 4.00393ZM164.892 1.59071C165.443 1.55696 165.917 1.97647 165.951 2.52773C165.985 3.07898 165.565 3.55322 165.014 3.58698L164.892 1.59071ZM171.011 3.26881C170.459 3.29362 169.992 2.86646 169.967 2.31473C169.942 1.763 170.369 1.29563 170.921 1.27084L171.011 3.26881ZM176.932 1.0483C177.484 1.0322 177.944 1.46667 177.96 2.01872C177.976 2.57078 177.542 3.03135 176.99 3.04745L176.932 1.0483ZM183.02 2.91853C182.467 2.92607 182.014 2.48452 182.006 1.93228C181.998 1.38005 182.44 0.926262 182.992 0.918709L183.02 2.91853ZM188.995 0.881783C189.548 0.8825 189.995 1.3308 189.994 1.88308C189.993 2.43536 189.545 2.8825 188.993 2.88178L188.995 0.881783ZM194.997 2.93388C194.445 2.92504 194.004 2.47022 194.013 1.91801C194.022 1.3658 194.477 0.925301 195.029 0.934128L194.997 2.93388ZM201.074 1.07444C201.626 1.09121 202.06 1.55231 202.043 2.10434C202.026 2.65637 201.565 3.09029 201.013 3.07352L201.074 1.07444ZM206.987 3.29691C206.435 3.27243 206.008 2.80531 206.032 2.25357C206.057 1.70183 206.524 1.27439 207.076 1.29887L206.987 3.29691ZM213.117 1.60866C213.668 1.64072 214.089 2.11367 214.057 2.66502C214.025 3.21638 213.552 3.63734 213.001 3.60528L213.117 1.60866ZM218.982 3.99344C218.431 3.95399 218.016 3.47544 218.056 2.92457C218.095 2.3737 218.574 1.9591 219.124 1.99855L218.982 3.99344ZM225.126 2.46803C225.676 2.51469 226.085 2.99864 226.038 3.54895C225.991 4.09926 225.507 4.50754 224.957 4.46087L225.126 2.46803ZM230.967 5.00988C230.417 4.95609 230.015 4.4669 230.069 3.91724C230.123 3.36758 230.612 2.9656 231.162 3.01939L230.967 5.00988ZM237.128 3.64124C237.677 3.70193 238.073 4.19614 238.012 4.74507C237.951 5.29401 237.457 5.68982 236.908 5.62913L237.128 3.64124ZM242.873 6.32616C242.325 6.25868 241.935 5.75961 242.003 5.21146C242.07 4.66331 242.569 4.27367 243.117 4.34116L242.873 6.32616ZM249.117 5.11713C249.664 5.1913 250.048 5.69508 249.974 6.24236C249.9 6.78965 249.396 7.17318 248.848 7.09901L249.117 5.11713ZM254.767 7.93705C254.22 7.85638 253.843 7.34807 253.924 6.8017C254.004 6.25535 254.513 5.87783 255.059 5.9585L254.767 7.93705ZM261.027 6.87568C261.572 6.96277 261.944 7.47548 261.857 8.02086C261.77 8.56623 261.257 8.93774 260.711 8.85065L261.027 6.87568ZM266.643 9.83307C266.098 9.73969 265.733 9.22271 265.826 8.67838C265.919 8.13405 266.436 7.76848 266.981 7.86187L266.643 9.83307ZM272.897 8.91141C273.44 9.01095 273.8 9.53203 273.7 10.0753C273.6 10.6185 273.079 10.9782 272.536 10.8787L272.897 8.91141ZM278.452 11.9971C277.91 11.8914 277.556 11.3664 277.662 10.8243C277.767 10.2822 278.292 9.92834 278.835 10.034L278.452 11.9971ZM284.741 11.2187C285.282 11.3303 285.63 11.8593 285.519 12.4001C285.407 12.941 284.878 13.2891 284.337 13.1775L284.741 11.2187ZM290.199 14.4198C289.659 14.3024 289.317 13.7697 289.434 13.2301C289.552 12.6904 290.084 12.3481 290.624 12.4656L290.199 14.4198ZM296.525 13.7829C297.063 13.9061 297.4 14.4424 297.276 14.9807C297.153 15.5191 296.617 15.8557 296.078 15.7324L296.525 13.7829ZM301.916 17.101C301.379 16.9722 301.049 16.4323 301.177 15.8953C301.306 15.3583 301.846 15.0274 302.383 15.1562L301.916 17.101ZM308.226 16.5906C308.762 16.7251 309.087 17.2683 308.952 17.804C308.818 18.3396 308.275 18.6649 307.739 18.5304L308.226 16.5906ZM313.577 20.0278C313.042 19.8878 312.723 19.3412 312.863 18.807C313.003 18.2727 313.549 17.9531 314.083 18.0931L313.577 20.0278ZM319.893 19.6466C320.426 19.792 320.74 20.3418 320.594 20.8746C320.449 21.4074 319.899 21.7215 319.366 21.5761L319.893 19.6466ZM325.144 23.1839C324.613 23.0332 324.305 22.4803 324.455 21.9489C324.606 21.4176 325.159 21.1091 325.69 21.2598L325.144 23.1839ZM331.499 22.9388C332.029 23.0948 332.332 23.6507 332.176 24.1805C332.02 24.7103 331.464 25.0134 330.934 24.8574L331.499 22.9388ZM336.675 26.5782C336.147 26.417 335.849 25.8582 336.01 25.3299C336.171 24.8017 336.73 24.5041 337.258 24.6653L336.675 26.5782ZM343.006 26.4494C343.532 26.6156 343.824 27.1774 343.658 27.704C343.492 28.2307 342.93 28.5228 342.404 28.3565L343.006 26.4494ZM348.141 30.1986C347.616 30.0272 347.329 29.4627 347.501 28.9377C347.672 28.4126 348.236 28.1259 348.761 28.2973L348.141 30.1986ZM354.47 30.1904C354.993 30.3667 355.274 30.9339 355.098 31.4573C354.922 31.9807 354.354 32.262 353.831 32.0857L354.47 30.1904ZM359.506 34.0276C358.984 33.8463 358.708 33.2765 358.89 32.7548C359.071 32.2331 359.641 31.9571 360.162 32.1384L359.506 34.0276ZM365.861 34.1483C366.381 34.3345 366.651 34.9069 366.465 35.4269C366.279 35.9468 365.707 36.2175 365.187 36.0313L365.861 34.1483ZM370.825 38.0793C370.307 37.8884 370.042 37.3135 370.233 36.7953C370.424 36.277 370.998 36.0117 371.517 36.2027L370.825 38.0793ZM377.151 38.3083C377.668 38.504 377.928 39.0813 377.732 39.5978C377.536 40.1142 376.959 40.3742 376.443 40.1785L377.151 38.3083ZM382.063 42.3378C381.549 42.1374 381.294 41.5577 381.494 41.0431C381.695 40.5284 382.274 40.2737 382.789 40.4741L382.063 42.3378ZM388.391 42.685C388.904 42.89 389.153 43.472 388.948 43.9848C388.743 44.4976 388.161 44.7471 387.648 44.542L388.391 42.685ZM393.205 46.7928C392.694 46.5832 392.449 45.999 392.659 45.4881C392.869 44.9771 393.453 44.7329 393.964 44.9425L393.205 46.7928ZM399.537 47.2587C400.046 47.4729 400.285 48.0592 400.071 48.5683C399.857 49.0773 399.271 49.3163 398.761 49.1021L399.537 47.2587ZM404.292 51.4584C403.785 51.2396 403.551 50.6512 403.77 50.1441C403.988 49.637 404.577 49.4032 405.084 49.6219L404.292 51.4584ZM410.592 52.0263C411.097 52.2495 411.326 52.84 411.102 53.3451C410.879 53.8503 410.289 54.0789 409.784 53.8558L410.592 52.0263ZM415.274 56.3101C414.771 56.0825 414.547 55.49 414.775 54.9868C415.002 54.4836 415.595 54.2602 416.098 54.4878L415.274 56.3101ZM421.587 56.9997C422.089 57.2317 422.307 57.8261 422.075 58.3273C421.843 58.8285 421.248 59.0467 420.747 58.8147L421.587 56.9997ZM426.172 61.3541C425.672 61.1178 425.459 60.5216 425.696 60.0224C425.932 59.5232 426.528 59.3101 427.027 59.5465L426.172 61.3541ZM432.463 62.1488C432.96 62.3895 433.168 62.9875 432.928 63.4846C432.687 63.9817 432.089 64.1897 431.592 63.949L432.463 62.1488ZM437.006 66.5987C436.511 66.3538 436.309 65.754 436.554 65.259C436.798 64.764 437.398 64.5612 437.893 64.8061L437.006 66.5987ZM443.263 67.491C443.755 67.7401 443.953 68.3417 443.704 68.8346C443.455 69.3275 442.853 69.5251 442.36 69.276L443.263 67.491ZM447.708 72.0075C447.218 71.7542 447.025 71.151 447.279 70.6602C447.532 70.1695 448.135 69.977 448.626 70.2303L447.708 72.0075ZM453.982 73.0237C454.471 73.2812 454.658 73.886 454.401 74.3746C454.143 74.8632 453.538 75.0506 453.05 74.7931L453.982 73.0237ZM458.342 77.6107C457.856 77.3491 457.674 76.7427 457.935 76.2563C458.197 75.7699 458.803 75.5877 459.29 75.8492L458.342 77.6107ZM464.578 78.7216C465.062 78.9873 465.239 79.5952 464.973 80.0794C464.708 80.5636 464.1 80.7407 463.615 80.475L464.578 78.7216ZM468.88 83.3923C468.398 83.1226 468.226 82.5132 468.495 82.0313C468.765 81.5494 469.375 81.3773 469.856 81.6471L468.88 83.3923ZM0.237382 72.5658C0.890468 71.7958 1.55041 71.0322 2.21715 70.2748L3.71833 71.5963C3.05968 72.3445 2.40775 73.0989 1.76262 73.8595L0.237382 72.5658ZM6.29866 65.806C7.68511 64.3426 9.09822 62.9042 10.5375 61.4909L11.9387 62.918C10.5166 64.3145 9.12035 65.7356 7.75056 67.1815L6.29866 65.806ZM14.9298 57.3296C16.4164 55.9705 17.9285 54.6363 19.4657 53.3269L20.7626 54.8495C19.2431 56.1437 17.7485 57.4625 16.2792 58.8057L14.9298 57.3296ZM24.1364 49.4857C25.7131 48.2338 27.3139 47.0064 28.9385 45.8036L30.1286 47.4109C28.5219 48.6005 26.939 49.8142 25.3801 51.0519L24.1364 49.4857ZM33.8537 42.2886C35.51 41.1447 37.1892 40.0249 38.8907 38.9291L39.9736 40.6106C38.29 41.6949 36.6287 42.8028 34.9902 43.9343L33.8537 42.2886ZM44.0164 35.7409C45.7425 34.7042 47.4901 33.6909 49.2587 32.7009L50.2356 34.4461C48.4846 35.4262 46.7546 36.4293 45.0461 37.4555L44.0164 35.7409ZM54.5617 29.8353C56.3487 28.9033 58.1558 27.9941 59.9824 27.1076L60.8556 28.9069C59.0461 29.7851 57.2563 30.6856 55.4866 31.6086L54.5617 29.8353ZM65.4319 24.5563C67.2671 23.7279 69.1208 22.9215 70.9928 22.1369L71.7658 23.9815C69.9104 24.7591 68.0732 25.5583 66.2548 26.3792L65.4319 24.5563ZM76.5746 19.8834C78.4478 19.1553 80.3381 18.4483 82.2451 17.7625L82.922 19.6444C81.0308 20.3246 79.1564 21.0256 77.2992 21.7475L76.5746 19.8834ZM87.944 15.792C89.8468 15.16 91.7654 14.5483 93.6993 13.9568L94.2843 15.8694C92.3654 16.4563 90.462 17.0632 88.5744 17.6901L87.944 15.792ZM99.5003 12.2561C101.425 11.7156 103.365 11.1946 105.319 10.6929L105.816 12.6301C103.877 13.1281 101.952 13.6453 100.041 14.1816L99.5003 12.2561ZM111.209 9.24881C113.151 8.79517 115.105 8.36008 117.072 7.94353L117.487 9.90016C115.533 10.3139 113.592 10.7459 111.664 11.1963L111.209 9.24881ZM123.012 6.74947C124.974 6.37586 126.948 6.0202 128.934 5.68243L129.269 7.65411C127.296 7.98969 125.335 8.34303 123.387 8.71416L123.012 6.74947ZM134.896 4.72742C136.88 4.42903 138.875 4.14808 140.881 3.88454L141.142 5.86751C139.148 6.12944 137.165 6.40866 135.193 6.70517L134.896 4.72742ZM146.852 3.15519C148.853 2.92901 150.864 2.71976 152.886 2.52741L153.075 4.51842C151.065 4.70966 149.066 4.91769 147.077 5.14253L146.852 3.15519ZM158.865 2.00999C160.865 1.85404 162.873 1.71429 164.892 1.59071L165.014 3.58698C163.007 3.70988 161.009 3.84885 159.021 4.00393L158.865 2.00999ZM170.921 1.27084C172.916 1.18115 174.92 1.10698 176.932 1.0483L176.99 3.04745C174.988 3.10583 172.995 3.17961 171.011 3.26881L170.921 1.27084ZM182.992 0.918709C184.986 0.891472 186.987 0.879166 188.995 0.881783L188.993 2.88178C186.994 2.87917 185.003 2.89142 183.02 2.91853L182.992 0.918709ZM195.029 0.934128C197.037 0.96624 199.052 1.01302 201.074 1.07444L201.013 3.07352C199.001 3.01238 196.995 2.96583 194.997 2.93388L195.029 0.934128ZM207.076 1.29887C209.083 1.38791 211.097 1.49118 213.117 1.60866L213.001 3.60528C210.99 3.48833 208.985 3.38554 206.987 3.29691L207.076 1.29887ZM219.124 1.99855C221.119 2.14138 223.12 2.29787 225.126 2.46803L224.957 4.46087C222.959 4.29146 220.967 4.13564 218.982 3.99344L219.124 1.99855ZM231.162 3.01939C233.145 3.2135 235.134 3.42079 237.128 3.64124L236.908 5.62913C234.922 5.40959 232.942 5.20317 230.967 5.00988L231.162 3.01939ZM243.117 4.34116C245.113 4.58678 247.112 4.84545 249.117 5.11713L248.848 7.09901C246.852 6.82841 244.86 6.5708 242.873 6.32616L243.117 4.34116ZM255.059 5.9585C257.044 6.2516 259.033 6.55733 261.027 6.87568L260.711 8.85065C258.726 8.53354 256.744 8.229 254.767 7.93705L255.059 5.9585ZM266.981 7.86187C268.949 8.19953 270.921 8.54939 272.897 8.91141L272.536 10.8787C270.568 10.518 268.603 10.1694 266.643 9.83307L266.981 7.86187ZM278.835 10.034C280.8 10.4169 282.769 10.8119 284.741 11.2187L284.337 13.1775C282.372 12.7721 280.41 12.3786 278.452 11.9971L278.835 10.034ZM290.624 12.4656C292.588 12.8929 294.555 13.332 296.525 13.7829L296.078 15.7324C294.116 15.2832 292.156 14.8457 290.199 14.4198L290.624 12.4656ZM302.383 15.1562C304.328 15.623 306.276 16.1011 308.226 16.5906L307.739 18.5304C305.796 18.0426 303.855 17.5662 301.916 17.101L302.383 15.1562ZM314.083 18.0931C316.018 18.5998 317.954 19.1177 319.893 19.6466L319.366 21.5761C317.434 21.0489 315.504 20.5328 313.577 20.0278L314.083 18.0931ZM325.69 21.2598C327.625 21.8085 329.561 22.3681 331.499 22.9388L330.934 24.8574C329.003 24.2886 327.073 23.7307 325.144 23.1839L325.69 21.2598ZM337.258 24.6653C339.173 25.2493 341.088 25.844 343.006 26.4494L342.404 28.3565C340.492 27.7531 338.583 27.1604 336.675 26.5782L337.258 24.6653ZM348.761 28.2973C350.663 28.9179 352.566 29.5489 354.47 30.1904L353.831 32.0857C351.933 31.4463 350.036 30.8172 348.141 30.1986L348.761 28.2973ZM360.162 32.1384C362.061 32.798 363.961 33.468 365.861 34.1483L365.187 36.0313C363.292 35.3531 361.399 34.6852 359.506 34.0276L360.162 32.1384ZM371.517 36.2027C373.394 36.8945 375.273 37.5964 377.151 38.3083L376.443 40.1785C374.57 39.4688 372.697 38.769 370.825 38.0793L371.517 36.2027ZM382.789 40.4741C384.656 41.2012 386.523 41.9381 388.391 42.685L387.648 44.542C385.786 43.7974 383.925 43.0627 382.063 42.3378L382.789 40.4741ZM393.964 44.9425C395.822 45.7048 397.679 46.4769 399.537 47.2587L398.761 49.1021C396.909 48.3226 395.057 47.5528 393.205 46.7928L393.964 44.9425ZM405.084 49.6219C406.92 50.4139 408.756 51.2153 410.592 52.0263L409.784 53.8558C407.953 53.0471 406.123 52.248 404.292 51.4584L405.084 49.6219ZM416.098 54.4878C417.928 55.3157 419.758 56.153 421.587 56.9997L420.747 58.8147C418.923 57.9704 417.099 57.1355 415.274 56.3101L416.098 54.4878ZM427.027 59.5465C428.84 60.4047 430.652 61.2721 432.463 62.1488L431.592 63.949C429.786 63.0748 427.979 62.2098 426.172 61.3541L427.027 59.5465ZM437.893 64.8061C439.684 65.692 441.474 66.587 443.263 67.491L442.36 69.276C440.577 68.3746 438.792 67.4821 437.006 66.5987L437.893 64.8061ZM448.626 70.2303C450.412 71.1524 452.198 72.0835 453.982 73.0237L453.05 74.7931C451.271 73.8555 449.49 72.927 447.708 72.0075L448.626 70.2303ZM459.29 75.8492C461.054 76.7979 462.816 77.7553 464.578 78.7216L463.615 80.475C461.859 79.5114 460.102 78.5567 458.342 77.6107L459.29 75.8492ZM469.856 81.6471C470.735 82.139 471.614 82.6331 472.492 83.1294L471.508 84.8706C470.632 84.3756 469.756 83.8829 468.88 83.3923L469.856 81.6471Z" fill="#0A3264"/>
</svg>
