<svg width="30" height="30" viewBox="0 0 30 30" fill="none" xmlns="http://www.w3.org/2000/svg">
<g clip-path="url(#clip0_174_991)">
<path d="M23.7891 15.8789C21.7191 15.8789 19.9669 16.4144 18.8641 17.258L10.4192 15.161C10.1573 14.341 9.47326 13.6276 8.51695 13.126L7.43895 14.7443C6.88875 15.4841 6.09996 15.8789 5.27344 15.8789C4.44691 15.8789 3.65812 15.4841 3.16283 14.8224L2.03051 13.1257C0.803027 13.7694 0 14.7569 0 15.8789C0 17.8206 2.36098 19.3946 5.27344 19.3946C7.62926 19.3946 9.60059 18.3577 10.2772 16.9366L17.7375 18.7874C17.6818 18.9849 17.6368 19.1852 17.6368 19.3946C17.6368 20.126 17.9963 20.7889 18.6142 21.3395L14.888 23.4688C13.9243 23.1156 12.7642 22.9102 11.4844 22.9102C7.9773 22.9102 5.27344 24.4217 5.27344 26.4258C5.27344 28.43 7.9773 30 11.4844 30C14.9914 30 17.6367 28.43 17.6367 26.4258C17.6367 25.6944 17.2772 25.0316 16.6593 24.4809L20.3855 22.3517C21.3491 22.7048 22.5092 22.9102 23.7891 22.9102C27.2961 22.9102 30 21.3987 30 19.3946C30 17.3904 27.2961 15.8789 23.7891 15.8789Z" fill="#0A3264"/>
<path d="M4.57049 13.7692C4.73613 13.9906 4.99705 14.1211 5.27344 14.1211C5.54982 14.1211 5.81074 13.9906 5.97639 13.7692L9.49459 8.43457C10.1829 7.51705 10.5469 6.42445 10.5469 5.27344C10.5469 2.36549 8.18139 0 5.27344 0C2.36549 0 0 2.36549 0 5.27344C0 6.42357 0.363926 7.51705 1.05229 8.43457L4.57049 13.7692ZM5.27344 2.63672C6.72738 2.63672 7.91016 3.81949 7.91016 5.27344C7.91016 6.72738 6.72738 7.91016 5.27344 7.91016C3.81949 7.91016 2.63672 6.72738 2.63672 5.27344C2.63672 3.81949 3.81949 2.63672 5.27344 2.63672Z" fill="#0A3264"/>
</g>
<defs>
<clipPath id="clip0_174_991">
<rect width="30" height="30" fill="white"/>
</clipPath>
</defs>
</svg>
