<svg width="478" height="139" viewBox="0 0 478 139" fill="none" xmlns="http://www.w3.org/2000/svg">
<path d="M475.981 0.805271C475.873 0.263559 475.347 -0.088403 474.805 0.0191429L465.978 1.7717C465.436 1.87925 465.084 2.40558 465.191 2.94729C465.299 3.489 465.825 3.84096 466.367 3.73342L474.214 2.17559L475.772 10.0224C475.879 10.5642 476.406 10.9161 476.947 10.8086C477.489 10.701 477.841 10.1747 477.733 9.63299L475.981 0.805271ZM2.93457 84.4902C3.39598 84.7938 4.01607 84.6658 4.31959 84.2044C4.6231 83.743 4.4951 83.1229 4.03369 82.8193L2.93457 84.4902ZM9.06789 86.0485C8.59965 85.7556 7.98265 85.8978 7.68978 86.366C7.39691 86.8342 7.53907 87.4512 8.00731 87.7441L9.06789 86.0485ZM13.1807 90.8997C13.6554 91.182 14.2691 91.0261 14.5514 90.5514C14.8337 90.0768 14.6778 89.4631 14.2032 89.1808L13.1807 90.8997ZM19.3623 92.1743C18.8816 91.9022 18.2715 92.0713 17.9994 92.552C17.7274 93.0326 17.8965 93.6428 18.3772 93.9148L19.3623 92.1743ZM23.6742 96.8391C24.1605 97.1009 24.767 96.9189 25.0288 96.4327C25.2906 95.9464 25.1086 95.3399 24.6224 95.0781L23.6742 96.8391ZM29.9185 97.8597C29.4269 97.6079 28.8243 97.8023 28.5725 98.2938C28.3207 98.7854 28.5151 99.388 29.0066 99.6398L29.9185 97.8597ZM34.4008 102.335C34.8972 102.577 35.4958 102.371 35.7378 101.874C35.9797 101.378 35.7733 100.779 35.2768 100.537L34.4008 102.335ZM40.7065 103.117C40.2053 102.885 39.6109 103.103 39.3787 103.604C39.1466 104.105 39.3646 104.7 39.8658 104.932L40.7065 103.117ZM45.3433 107.406C45.8488 107.629 46.4389 107.399 46.6615 106.894C46.8841 106.389 46.6548 105.798 46.1493 105.576L45.3433 107.406ZM51.6725 107.946C51.1629 107.733 50.5771 107.974 50.3641 108.483C50.151 108.993 50.3913 109.578 50.9008 109.791L51.6725 107.946ZM56.4774 112.064C56.9907 112.267 57.572 112.017 57.7757 111.503C57.9795 110.99 57.7285 110.409 57.2152 110.205L56.4774 112.064ZM62.8036 112.365C62.2867 112.17 61.71 112.432 61.5155 112.949C61.321 113.466 61.5823 114.042 62.0992 114.237L62.8036 112.365ZM67.7806 116.318C68.3008 116.503 68.8728 116.231 69.0582 115.711C69.2436 115.191 68.9721 114.619 68.4518 114.434L67.7806 116.318ZM74.0966 116.39C73.5733 116.214 73.006 116.495 72.8297 117.018C72.6533 117.542 72.9346 118.109 73.4579 118.285L74.0966 116.39ZM79.1978 120.165C79.7241 120.333 80.2865 120.042 80.4539 119.516C80.6213 118.989 80.3304 118.427 79.8041 118.259L79.1978 120.165ZM85.5322 120.029C85.0032 119.871 84.4458 120.171 84.2872 120.7C84.1286 121.229 84.4288 121.786 84.9578 121.945L85.5322 120.029ZM90.7395 123.627C91.271 123.776 91.8235 123.467 91.9733 122.935C92.1232 122.404 91.8138 121.851 91.2822 121.702L90.7395 123.627ZM97.0859 123.287C96.552 123.146 96.0047 123.464 95.8635 123.998C95.7223 124.532 96.0407 125.079 96.5746 125.22L97.0859 123.287ZM102.399 126.711C102.935 126.843 103.477 126.516 103.61 125.98C103.742 125.444 103.415 124.902 102.879 124.769L102.399 126.711ZM108.713 126.163C108.175 126.039 107.638 126.375 107.514 126.913C107.39 127.451 107.726 127.988 108.264 128.112L108.713 126.163ZM114.159 129.422C114.699 129.538 115.231 129.194 115.346 128.654C115.462 128.114 115.118 127.582 114.578 127.467L114.159 129.422ZM120.439 128.673C119.897 128.566 119.371 128.918 119.264 129.46C119.157 130.002 119.509 130.528 120.051 130.635L120.439 128.673ZM125.982 131.761C126.525 131.86 127.046 131.5 127.145 130.956C127.243 130.413 126.883 129.892 126.34 129.793L125.982 131.761ZM132.247 130.821C131.702 130.73 131.187 131.099 131.096 131.643C131.006 132.188 131.374 132.703 131.919 132.794L132.247 130.821ZM137.867 133.735C138.414 133.817 138.923 133.441 139.005 132.895C139.087 132.349 138.711 131.839 138.165 131.757L137.867 133.735ZM144.116 132.606C143.568 132.533 143.065 132.916 142.991 133.464C142.917 134.011 143.301 134.515 143.848 134.588L144.116 132.606ZM149.817 135.349C150.366 135.414 150.863 135.023 150.929 134.475C150.995 133.926 150.603 133.428 150.055 133.363L149.817 135.349ZM156.015 134.031C155.466 133.974 154.974 134.372 154.917 134.922C154.859 135.471 155.258 135.963 155.807 136.02L156.015 134.031ZM161.817 136.603C162.367 136.652 162.853 136.246 162.902 135.696C162.951 135.146 162.545 134.66 161.995 134.611L161.817 136.603ZM167.963 135.1C167.412 135.059 166.932 135.472 166.891 136.023C166.85 136.574 167.263 137.053 167.814 137.094L167.963 135.1ZM173.832 137.497C174.383 137.53 174.856 137.11 174.889 136.559C174.922 136.007 174.502 135.534 173.95 135.501L173.832 137.497ZM179.943 135.813C179.392 135.788 178.924 136.215 178.9 136.767C178.875 137.319 179.302 137.786 179.854 137.811L179.943 135.813ZM185.872 138.034C186.424 138.051 186.885 137.616 186.901 137.064C186.917 136.512 186.483 136.052 185.931 136.035L185.872 138.034ZM191.933 136.169C191.381 136.16 190.926 136.602 190.918 137.154C190.91 137.706 191.351 138.16 191.903 138.168L191.933 136.169ZM197.929 138.213C198.481 138.213 198.929 137.765 198.929 137.213C198.929 136.66 198.481 136.213 197.929 136.213L197.929 138.213ZM203.924 136.167C203.372 136.176 202.931 136.63 202.939 137.182C202.947 137.735 203.402 138.176 203.954 138.167L203.924 136.167ZM209.986 138.031C210.539 138.015 210.973 137.554 210.956 137.002C210.939 136.45 210.479 136.016 209.926 136.032L209.986 138.031ZM215.916 135.807C215.364 135.832 214.937 136.3 214.962 136.851C214.986 137.403 215.454 137.83 216.006 137.805L215.916 135.807ZM222.025 137.489C222.576 137.456 222.996 136.982 222.963 136.43C222.93 135.879 222.456 135.459 221.904 135.492L222.025 137.489ZM227.893 135.086C227.343 135.128 226.93 135.608 226.972 136.159C227.013 136.709 227.493 137.122 228.044 137.081L227.893 135.086ZM234.046 136.582C234.596 136.532 235.002 136.046 234.952 135.496C234.902 134.946 234.416 134.54 233.866 134.59L234.046 136.582ZM239.835 134.002C239.286 134.061 238.888 134.553 238.946 135.102C239.004 135.652 239.497 136.049 240.046 135.991L239.835 134.002ZM246.038 135.308C246.586 135.241 246.976 134.743 246.909 134.194C246.843 133.646 246.344 133.256 245.796 133.323L246.038 135.308ZM251.74 132.551C251.193 132.627 250.811 133.131 250.886 133.678C250.961 134.226 251.466 134.608 252.013 134.533L251.74 132.551ZM257.98 133.664C258.526 133.58 258.9 133.069 258.816 132.524C258.732 131.978 258.222 131.603 257.676 131.687L257.98 133.664ZM263.597 130.73C263.052 130.822 262.686 131.339 262.778 131.883C262.871 132.428 263.387 132.794 263.931 132.702L263.597 130.73ZM269.865 131.645C270.408 131.544 270.766 131.022 270.665 130.479C270.564 129.936 270.042 129.578 269.499 129.679L269.865 131.645ZM275.387 128.534C274.846 128.644 274.496 129.172 274.606 129.713C274.715 130.254 275.243 130.604 275.784 130.494L275.387 128.534ZM281.683 129.248C282.222 129.13 282.563 128.596 282.445 128.057C282.326 127.517 281.793 127.176 281.253 127.295L281.683 129.248ZM287.099 125.96C286.561 126.088 286.229 126.626 286.356 127.164C286.483 127.701 287.022 128.034 287.56 127.906L287.099 125.96ZM293.416 126.468C293.951 126.332 294.275 125.787 294.139 125.252C294.002 124.717 293.458 124.393 292.923 124.53L293.416 126.468ZM298.72 123.003C298.187 123.148 297.873 123.698 298.018 124.231C298.163 124.764 298.713 125.078 299.246 124.933L298.72 123.003ZM305.05 123.301C305.58 123.147 305.885 122.592 305.731 122.062C305.577 121.531 305.022 121.226 304.492 121.38L305.05 123.301ZM310.236 119.659C309.709 119.822 309.413 120.382 309.576 120.91C309.739 121.437 310.299 121.733 310.827 121.57L310.236 119.659ZM316.571 119.742C317.096 119.57 317.382 119.005 317.21 118.48C317.038 117.955 316.473 117.669 315.948 117.841L316.571 119.742ZM321.629 115.924C321.107 116.105 320.831 116.675 321.012 117.197C321.193 117.719 321.763 117.995 322.285 117.814L321.629 115.924ZM327.964 115.786C328.483 115.596 328.749 115.021 328.559 114.503C328.368 113.984 327.794 113.718 327.275 113.909L327.964 115.786ZM332.883 111.794C332.368 111.994 332.113 112.573 332.312 113.088C332.511 113.603 333.091 113.859 333.606 113.66L332.883 111.794ZM339.21 111.432C339.721 111.223 339.967 110.639 339.758 110.128C339.55 109.617 338.966 109.371 338.455 109.58L339.21 111.432ZM343.984 107.266C343.477 107.483 343.242 108.071 343.46 108.579C343.678 109.086 344.266 109.321 344.773 109.103L343.984 107.266ZM350.292 106.675C350.795 106.448 351.019 105.855 350.792 105.352C350.565 104.849 349.973 104.625 349.469 104.852L350.292 106.675ZM354.911 102.336C354.412 102.572 354.199 103.169 354.436 103.668C354.672 104.167 355.268 104.38 355.767 104.143L354.911 102.336ZM361.193 101.512C361.688 101.266 361.889 100.666 361.644 100.171C361.398 99.6767 360.798 99.4749 360.303 99.7206L361.193 101.512ZM365.644 97.0046C365.154 97.2596 364.964 97.8634 365.219 98.3533C365.474 98.8432 366.078 99.0337 366.568 98.7787L365.644 97.0046ZM371.894 95.9415C372.379 95.6772 372.558 95.0699 372.294 94.5849C372.029 94.1 371.422 93.9211 370.937 94.1854L371.894 95.9415ZM376.168 91.2686C375.689 91.5422 375.521 92.1529 375.795 92.6327C376.069 93.1124 376.679 93.2795 377.159 93.0059L376.168 91.2686ZM382.369 89.9676C382.843 89.6847 382.998 89.0709 382.715 88.5965C382.432 88.1222 381.819 87.967 381.344 88.2499L382.369 89.9676ZM386.466 85.1268C385.997 85.4189 385.854 86.0357 386.146 86.5044C386.439 86.9731 387.055 87.1162 387.524 86.824L386.466 85.1268ZM392.605 83.5866C393.068 83.2852 393.199 82.6657 392.897 82.2029C392.596 81.7401 391.977 81.6092 391.514 81.9106L392.605 83.5866ZM396.502 78.5906C396.046 78.9012 395.927 79.5232 396.238 79.9799C396.548 80.4366 397.17 80.555 397.627 80.2444L396.502 78.5906ZM402.587 76.7978C403.038 76.4781 403.143 75.8539 402.824 75.4035C402.504 74.9532 401.88 74.8473 401.429 75.167L402.587 76.7978ZM406.272 71.6552C405.828 71.9839 405.735 72.6102 406.063 73.054C406.392 73.4977 407.018 73.591 407.462 73.2622L406.272 71.6552ZM412.274 69.6204C412.711 69.2826 412.792 68.6546 412.454 68.2176C412.116 67.7807 411.488 67.7003 411.051 68.038L412.274 69.6204ZM415.759 64.3213C415.329 64.6679 415.261 65.2975 415.608 65.7274C415.955 66.1573 416.584 66.2248 417.014 65.8781L415.759 64.3213ZM421.662 62.0503C422.085 61.6948 422.139 61.064 421.784 60.6413C421.428 60.2186 420.798 60.1642 420.375 60.5196L421.662 62.0503ZM424.924 56.6126C424.509 56.9767 424.467 57.6085 424.831 58.0237C425.196 58.4389 425.827 58.4803 426.243 58.1161L424.924 56.6126ZM430.739 54.0882C431.147 53.7155 431.175 53.0829 430.802 52.6754C430.43 52.2679 429.797 52.2397 429.389 52.6125L430.739 54.0882ZM433.759 48.5312C433.359 48.9124 433.344 49.5454 433.725 49.945C434.107 50.3447 434.74 50.3596 435.139 49.9784L433.759 48.5312ZM439.467 45.7626C439.859 45.3731 439.86 44.74 439.471 44.3484C439.081 43.9569 438.448 43.9552 438.057 44.3447L439.467 45.7626ZM442.26 40.0746C441.877 40.4722 441.889 41.1053 442.286 41.4886C442.684 41.8718 443.317 41.8602 443.7 41.4626L442.26 40.0746ZM447.832 37.0847C448.207 36.6791 448.182 36.0465 447.777 35.6716C447.371 35.2968 446.738 35.3217 446.363 35.7273L447.832 37.0847ZM450.392 31.2755C450.026 31.6889 450.064 32.3209 450.477 32.6871C450.891 33.0534 451.523 33.0151 451.889 32.6017L450.392 31.2755ZM455.84 28.0458C456.198 27.6248 456.146 26.9937 455.725 26.6362C455.304 26.2788 454.673 26.3303 454.316 26.7513L455.84 28.0458ZM458.136 22.1551C457.788 22.5835 457.852 23.2133 458.281 23.5619C458.709 23.9105 459.339 23.8458 459.688 23.4174L458.136 22.1551ZM463.456 18.6853C463.796 18.2497 463.718 17.6213 463.282 17.2818C462.847 16.9423 462.218 17.0202 461.879 17.4558L463.456 18.6853ZM465.51 12.6952C465.18 13.1378 465.271 13.7644 465.713 14.0948C466.156 14.4251 466.782 14.3341 467.113 13.8916L465.51 12.6952ZM470.661 9.0336C470.982 8.58427 470.878 7.9597 470.429 7.63857C469.98 7.31745 469.355 7.42138 469.034 7.87071L470.661 9.0336ZM472.478 2.94504C472.166 3.40093 472.283 4.02322 472.739 4.33496C473.194 4.64671 473.817 4.52986 474.128 4.07397L472.478 2.94504ZM0.440753 82.829C1.26723 83.3865 2.09853 83.9403 2.93457 84.4902L4.03369 82.8193C3.20409 82.2736 2.37925 81.7242 1.55925 81.171L0.440753 82.829ZM8.00731 87.7441C9.71358 88.8113 11.4382 89.8633 13.1807 90.8997L14.2032 89.1808C12.4733 88.1519 10.7614 87.1077 9.06789 86.0485L8.00731 87.7441ZM18.3772 93.9148C20.1262 94.9048 21.8921 95.8796 23.6742 96.8391L24.6224 95.0781C22.8525 94.1252 21.099 93.1572 19.3623 92.1743L18.3772 93.9148ZM29.0066 99.6398C30.7896 100.553 32.5878 101.452 34.4008 102.335L35.2768 100.537C33.4758 99.6595 31.6895 98.767 29.9185 97.8597L29.0066 99.6398ZM39.8658 104.932C41.678 105.771 43.504 106.596 45.3433 107.406L46.1493 105.576C44.3215 104.771 42.5071 103.951 40.7065 103.117L39.8658 104.932ZM50.9008 109.791C52.7472 110.564 54.6062 111.321 56.4774 112.064L57.2152 110.205C55.3553 109.467 53.5075 108.714 51.6725 107.946L50.9008 109.791ZM62.0992 114.237C63.9816 114.945 65.8755 115.639 67.7806 116.318L68.4518 114.434C66.5578 113.759 64.6749 113.069 62.8036 112.365L62.0992 114.237ZM73.4579 118.285C75.3609 118.927 77.2744 119.553 79.1978 120.165L79.8041 118.259C77.8915 117.651 75.9888 117.028 74.0966 116.39L73.4579 118.285ZM84.9578 121.945C86.8759 122.52 88.8032 123.081 90.7395 123.627L91.2822 121.702C89.3565 121.159 87.4397 120.601 85.5322 120.029L84.9578 121.945ZM96.5746 125.22C98.5078 125.732 100.449 126.228 102.399 126.711L102.879 124.769C100.94 124.289 99.0087 123.795 97.0859 123.287L96.5746 125.22ZM108.264 128.112C110.222 128.563 112.187 129 114.159 129.422L114.578 127.467C112.616 127.047 110.661 126.612 108.713 126.163L108.264 128.112ZM120.051 130.635C122.021 131.025 123.998 131.4 125.982 131.761L126.34 129.793C124.366 129.435 122.399 129.061 120.439 128.673L120.051 130.635ZM131.919 132.794C133.896 133.122 135.879 133.436 137.867 133.735L138.165 131.757C136.187 131.46 134.214 131.147 132.247 130.821L131.919 132.794ZM143.848 134.588C145.833 134.856 147.823 135.11 149.817 135.349L150.055 133.363C148.071 133.125 146.091 132.873 144.116 132.606L143.848 134.588ZM155.807 136.02C157.806 136.229 159.81 136.424 161.817 136.603L161.995 134.611C159.998 134.432 158.005 134.239 156.015 134.031L155.807 136.02ZM167.814 137.094C169.817 137.244 171.823 137.378 173.832 137.497L173.95 135.501C171.951 135.382 169.955 135.248 167.963 135.1L167.814 137.094ZM179.854 137.811C181.857 137.9 183.863 137.975 185.872 138.034L185.931 136.035C183.933 135.976 181.937 135.902 179.943 135.813L179.854 137.811ZM191.903 138.168C193.91 138.198 195.919 138.213 197.929 138.213L197.929 136.213C195.929 136.213 193.93 136.198 191.933 136.169L191.903 138.168ZM203.954 138.167C205.964 138.137 207.975 138.092 209.986 138.031L209.926 136.032C207.925 136.092 205.924 136.137 203.924 136.167L203.954 138.167ZM216.006 137.805C218.011 137.715 220.018 137.61 222.025 137.489L221.904 135.492C219.908 135.613 217.911 135.718 215.916 135.807L216.006 137.805ZM228.044 137.081C230.045 136.93 232.046 136.764 234.046 136.582L233.866 134.59C231.875 134.771 229.884 134.936 227.893 135.086L228.044 137.081ZM240.046 135.991C242.044 135.779 244.041 135.551 246.038 135.308L245.796 133.323C243.81 133.565 241.823 133.791 239.835 134.002L240.046 135.991ZM252.013 134.533C254.004 134.259 255.993 133.969 257.98 133.664L257.676 131.687C255.699 131.991 253.721 132.279 251.74 132.551L252.013 134.533ZM263.931 132.702C265.912 132.365 267.89 132.013 269.865 131.645L269.499 129.679C267.534 130.045 265.566 130.395 263.597 130.73L263.931 132.702ZM275.784 130.494C277.753 130.095 279.72 129.679 281.683 129.248L281.253 127.295C279.301 127.724 277.345 128.137 275.387 128.534L275.784 130.494ZM287.56 127.906C289.515 127.443 291.468 126.964 293.416 126.468L292.923 124.53C290.985 125.023 289.044 125.499 287.099 125.96L287.56 127.906ZM299.246 124.933C301.184 124.405 303.119 123.861 305.05 123.301L304.492 121.38C302.572 121.937 300.648 122.478 298.72 123.003L299.246 124.933ZM310.827 121.57C312.746 120.977 314.661 120.368 316.571 119.742L315.948 117.841C314.049 118.464 312.145 119.069 310.236 119.659L310.827 121.57ZM322.285 117.814C324.183 117.155 326.077 116.479 327.964 115.786L327.275 113.909C325.399 114.597 323.517 115.269 321.629 115.924L322.285 117.814ZM333.606 113.66C335.48 112.934 337.348 112.191 339.21 111.432L338.455 109.58C336.604 110.335 334.747 111.073 332.883 111.794L333.606 113.66ZM344.773 109.103C346.62 108.311 348.459 107.501 350.292 106.675L349.469 104.852C347.648 105.673 345.82 106.478 343.984 107.266L344.773 109.103ZM355.767 104.143C357.583 103.283 359.392 102.406 361.193 101.512L360.303 99.7206C358.514 100.609 356.716 101.481 354.911 102.336L355.767 104.143ZM366.568 98.7787C368.351 97.8503 370.127 96.9047 371.894 95.9415L370.937 94.1854C369.181 95.1424 367.417 96.0821 365.644 97.0046L366.568 98.7787ZM377.159 93.0059C378.904 92.0106 380.641 90.9979 382.369 89.9676L381.344 88.2499C379.628 89.2735 377.902 90.2797 376.168 91.2686L377.159 93.0059ZM387.524 86.824C389.227 85.7624 390.921 84.6833 392.605 83.5866L391.514 81.9106C389.841 83.0001 388.158 84.0721 386.466 85.1268L387.524 86.824ZM397.627 80.2444C399.29 79.1133 400.944 77.9644 402.587 76.7978L401.429 75.167C399.797 76.3258 398.155 77.467 396.502 78.5906L397.627 80.2444ZM407.462 73.2622C409.077 72.066 410.681 70.8521 412.274 69.6204L411.051 68.038C409.469 69.2614 407.875 70.467 406.272 71.6552L407.462 73.2622ZM417.014 65.8781C418.575 64.6198 420.124 63.3439 421.662 62.0503L420.375 60.5196C418.847 61.8044 417.308 63.0716 415.759 64.3213L417.014 65.8781ZM426.243 58.1161C427.753 56.7912 429.252 55.4486 430.739 54.0882L429.389 52.6125C427.913 53.9635 426.424 55.2968 424.924 56.6126L426.243 58.1161ZM435.139 49.9784C436.594 48.5909 438.037 47.1856 439.467 45.7626L438.057 44.3447C436.636 45.7578 435.203 47.1533 433.759 48.5312L435.139 49.9784ZM443.7 41.4626C445.09 40.0208 446.467 38.5615 447.832 37.0847L446.363 35.7273C445.008 37.1937 443.64 38.6428 442.26 40.0746L443.7 41.4626ZM451.889 32.6017C453.219 31.1005 454.536 29.5818 455.84 28.0458L454.316 26.7513C453.021 28.2766 451.712 29.7847 450.392 31.2755L451.889 32.6017ZM459.688 23.4174C460.957 21.8573 462.213 20.28 463.456 18.6853L461.879 17.4558C460.644 19.0395 459.397 20.6059 458.136 22.1551L459.688 23.4174ZM467.113 13.8916C468.309 12.2891 469.492 10.6698 470.661 9.0336L469.034 7.87071C467.873 9.49572 466.698 11.1039 465.51 12.6952L467.113 13.8916ZM474.128 4.07397C474.699 3.23886 475.267 2.3995 475.831 1.55588L474.169 0.444124C473.608 1.28201 473.045 2.11564 472.478 2.94504L474.128 4.07397Z" fill="#0A3264"/>
</svg>
