<svg width="34" height="34" viewBox="0 0 34 34" fill="none" xmlns="http://www.w3.org/2000/svg">
<path d="M17 0C9.96758 0 4.25 5.71758 4.25 12.75C4.25 22.1531 16.0105 33.3359 16.5152 33.8074C16.6547 33.9336 16.8273 34 17 34C17.1727 34 17.352 33.9336 17.4848 33.8074C17.9895 33.3359 29.75 22.1531 29.75 12.75C29.75 5.71758 24.0324 0 17 0ZM17 19.8355C13.0953 19.8355 9.91445 16.6547 9.91445 12.75C9.91445 8.84531 13.0953 5.66445 17 5.66445C20.9047 5.66445 24.0855 8.84531 24.0855 12.75C24.0855 16.6547 20.9047 19.8355 17 19.8355Z" fill="#C1272D"/>
</svg>
