<svg width="178" height="52" viewBox="0 0 178 52" fill="none" xmlns="http://www.w3.org/2000/svg">
<g clip-path="url(#clip0_245_419)">
<path d="M89.7388 38.199V40.9099C92.0045 40.9099 92.0045 40.2691 92.0045 39.5791C92.0045 38.8398 92.0045 38.199 89.7388 38.199ZM87.7195 40.8606V38.1497C85.4538 38.1497 85.4538 38.7905 85.4538 39.4805C85.4538 40.2691 85.4538 40.8606 87.7195 40.8606ZM89.7388 35.5867V36.3753H89.9358C93.1373 36.3753 94.0238 37.6568 94.0238 39.2341V39.8255C94.0238 41.4028 93.1373 42.6843 89.9358 42.6843H89.7388V44.0644H87.7195V42.6843H87.5224C84.321 42.6843 83.4344 41.4028 83.4344 39.8255V39.2341C83.4344 37.6568 84.321 36.3753 87.5224 36.3753H87.7195V35.5867H89.7388Z" fill="#0A3264"/>
<path d="M98.2596 41.5507L98.5058 36.4739H105.401V44.0644H103.382V38.2976H100.427L100.279 41.7971C100.18 43.3744 99.6387 44.2616 97.8656 44.2616C97.5208 44.2616 97.1268 44.2616 96.8805 44.163V42.3886C97.0775 42.3886 97.3238 42.4379 97.5208 42.4379C98.0626 42.3886 98.2103 42.0928 98.2596 41.5507Z" fill="#0A3264"/>
<path d="M113.528 42.4873C115.892 42.4873 115.892 41.4522 115.892 40.2692C115.892 39.1356 115.892 38.0512 113.528 38.0512C111.164 38.0512 111.164 39.0863 111.164 40.2692C111.164 41.4522 111.164 42.4873 113.528 42.4873ZM109.144 39.9735C109.144 37.9034 110.08 36.2275 113.38 36.2275H113.774C117.074 36.2275 118.01 37.9034 118.01 39.9735V40.565C118.01 42.6351 117.074 44.311 113.774 44.311H113.38C110.08 44.311 109.144 42.6351 109.144 40.565V39.9735Z" fill="#0A3264"/>
<path d="M124.216 44.0644V38.2976H121.261V36.4739H129.19V38.2976H126.235V44.0644H124.216Z" fill="#0A3264"/>
<path d="M136.578 40.9099L135.446 38.2976L134.313 40.9099H136.578ZM131.062 44.0644V43.6208L134.46 36.4739H136.48L139.878 43.6208V44.0644H138.056L137.416 42.5857H133.574L132.934 44.0644H131.062Z" fill="#0A3264"/>
<path d="M90.8716 8.28048H86.0941V14.0966H84.0747V6.45679H90.8716V8.28048Z" fill="#0A3264"/>
<path d="M99.8849 9.21708C99.8849 8.52704 99.8849 8.08343 98.358 8.08343C97.8655 8.08343 97.0282 8.13272 96.2401 8.18201V10.2522C96.9297 10.3507 97.57 10.3507 98.2595 10.3507C99.8849 10.3507 99.8849 9.85784 99.8849 9.21708ZM101.904 9.41424C101.904 10.8929 101.264 12.1251 98.8998 12.1251H98.6043C97.767 12.1251 97.0282 12.1251 96.2894 12.0266V14.0474H94.27V6.45689C95.5506 6.30903 97.0282 6.21045 98.4073 6.21045H98.7028C101.264 6.21045 101.953 7.44268 101.953 8.92135V9.41424H101.904Z" fill="#0A3264"/>
<path d="M110.376 12.0757C109.686 13.3573 109.144 14.2938 107.519 14.2938C107.174 14.2938 106.78 14.2445 106.435 14.1952V12.3715C106.731 12.4208 107.174 12.4701 107.421 12.4701C108.061 12.4701 108.258 12.2729 108.406 11.9279L105.056 6.90039V6.45679H107.076L109.44 10.1042L111.509 6.45679H113.429V6.90039L110.376 12.0757Z" fill="#0A3264"/>
<path d="M124.61 6.45679V14.0966H122.541V8.28048H118.798V14.0966H116.779V6.45679H124.61Z" fill="#0A3264"/>
<path d="M136.283 6.45679V14.0966H134.214V8.28048H130.471V14.0966H128.452V6.45679H136.283Z" fill="#0A3264"/>
<path d="M145.099 10.8928L143.966 8.28051L142.833 10.8928H145.099ZM139.583 14.0966V13.653L142.981 6.5061H145.001L148.399 13.653V14.0966H146.577L145.936 12.618H142.095L141.454 14.0966H139.583Z" fill="#0A3264"/>
<path d="M89.8865 26.6162V22.673H86.7836L86.6358 25.1375C86.5866 25.729 86.5373 26.2218 86.3896 26.6655H89.8865V26.6162ZM85.2075 29.6721L83.8284 30.4607H83.3851V26.6162H84.2717C84.5672 26.419 84.6657 25.9261 84.715 25.1868L84.9612 20.8H92.0044V26.6162H93.1372V29.6721L91.7581 30.4607H91.3148V28.4399H85.2075V29.6721Z" fill="#0A3264"/>
<path d="M98.2595 25.581V26.7146C98.9983 26.7639 99.8356 26.8132 100.427 26.8132C102.249 26.8132 102.298 26.5175 102.298 26.1232C102.298 25.8274 102.298 25.5317 100.23 25.5317H98.2595V25.581ZM98.2595 22.5251V23.8066H100.279C102.101 23.8066 102.101 23.5108 102.101 23.1165C102.101 22.7222 102.052 22.4265 100.377 22.4265C99.8849 22.4265 99.0476 22.4758 98.2595 22.5251ZM100.377 20.6028H100.673C103.234 20.6028 103.924 21.6379 103.924 22.8701V23.1165C103.924 23.8066 103.579 24.3488 102.594 24.6445C103.776 24.9402 104.17 25.5317 104.17 26.1725V26.4189C104.17 27.6511 103.431 28.6862 100.722 28.6862H100.427C99.0476 28.6862 97.57 28.5876 96.2894 28.4398V20.8492C97.5208 20.7014 98.9983 20.6028 100.377 20.6028Z" fill="#0A3264"/>
<path d="M113.922 20.8494H115.991V28.4399H113.922V23.5603L109.932 28.4399H107.913V20.8494H109.932V25.729L113.922 20.8494Z" fill="#0A3264"/>
<path d="M126.826 20.8494V23.8067H127.811L130.274 20.8494H132.293V21.293L129.486 24.6446L132.293 27.9963V28.4399H130.274L127.91 25.5811H126.826V28.4399H124.807V25.5811H123.723L121.359 28.4399H119.389V27.9963L122.196 24.6446L119.389 21.293V20.8494H121.359L123.822 23.8067H124.807V20.8494H126.826Z" fill="#0A3264"/>
<path d="M142.932 22.6731H137.711V23.8067H141.799V25.5811H137.711V26.6162H142.932V28.4399H135.692V20.8494H142.932V22.6731Z" fill="#0A3264"/>
<path d="M148.596 20.8494V23.8067H152.586V20.8494H154.605V28.4399H152.586V25.5811H148.596V28.4399H146.577V20.8494H148.596Z" fill="#0A3264"/>
<path d="M164.505 20.8494H166.524V28.4399H164.505V23.5603L160.515 28.4399H158.496V20.8494H160.515V25.729L164.505 20.8494Z" fill="#0A3264"/>
<path d="M172.336 23.2151C172.336 23.9544 172.385 24.2502 174.208 24.2502C174.602 24.2502 175.291 24.2502 175.981 24.1516V22.5251C175.242 22.4758 174.355 22.4265 173.863 22.4265C172.336 22.4265 172.336 22.8208 172.336 23.2151ZM170.169 28.4398V27.9961L171.597 25.7781C170.612 25.3345 170.317 24.5459 170.317 23.5601V23.1165C170.317 21.7364 171.006 20.6028 173.567 20.6028H173.863C175.242 20.6028 176.719 20.7014 178 20.8492V28.4398H175.981V25.926C175.242 26.0246 174.503 26.0246 173.666 26.0246L172.139 28.3905H170.169V28.4398Z" fill="#0A3264"/>
<path d="M29.5025 15.4768C29.5517 14.0967 29.601 12.7166 29.6503 11.3365C29.6503 9.70995 29.6995 8.08341 29.6995 6.40758H39.5501V0H22.3116C22.4101 3.20379 22.4101 6.50616 22.2623 10.0057C22.2131 11.928 22.1146 13.8009 21.9668 15.6246C24.5279 15.5754 26.9906 15.5261 29.5025 15.4768Z" fill="#0A3264"/>
<path d="M41.0769 32.2844V41.7479H46.1007C50.1394 41.7479 52.4051 40.0228 52.4051 37.1148V36.819C52.4051 33.911 50.0409 32.2844 46.1007 32.2844H41.0769Z" fill="#0A3264"/>
<path d="M25.71 26.1231H32.6547V23.708H41.0769V26.1231H48.0216C51.4693 26.1231 54.917 27.0596 57.4289 29.0805V22.9686C57.4289 21.0464 55.8528 19.4691 53.932 19.4691H52.7991V7.7876H43.7366V19.4198H19.7997C17.8788 19.4198 16.3027 20.9971 16.3027 22.9194V29.0805C18.7654 27.0596 22.2623 26.1231 25.71 26.1231Z" fill="#0A3264"/>
<path d="M59.3497 42.783C57.0348 46.3811 52.5036 47.909 48.0216 47.909H41.0769V51.9507H66.9347L73.6823 42.783H59.3497Z" fill="#C1272D"/>
<path d="M32.6054 47.909H25.6608C21.1787 47.909 16.6475 46.3318 14.3326 42.783H0L6.55064 51.9507H32.6547V47.909H32.6054Z" fill="#C1272D"/>
<path d="M21.2772 36.819V37.1148C21.2772 40.0228 23.5429 41.7479 27.5816 41.7479H32.6054V32.2844H27.5816C23.5429 32.2844 21.2772 33.911 21.2772 36.819Z" fill="#0A3264"/>
</g>
<defs>
<clipPath id="clip0_245_419">
<rect width="178" height="52" fill="white"/>
</clipPath>
</defs>
</svg>
