<svg width="1920" height="189" viewBox="0 0 1920 189" fill="none" xmlns="http://www.w3.org/2000/svg">
<path d="M8.25055 94.0498C220.667 8.71648 433.084 8.71648 645.5 94.0498C857.917 179.383 1070.33 179.383 1282.75 94.0498C1495.17 8.71648 1707.58 8.71648 1920 94.0498" stroke="#EFF4F7" stroke-width="60" stroke-linecap="round"/>
<path d="M17.3388 99.3829L16.3602 96.8536L15.1976 97.3073C13.9249 97.7868 12.7312 97.9606 11.6166 97.8289C10.5019 97.6971 9.52257 97.272 8.67852 96.5537C7.8287 95.8205 7.16131 94.8272 6.67635 93.5737C6.1832 92.2548 6.03171 91.0429 6.2219 89.9382C6.41208 88.8335 6.89466 87.8637 7.66962 87.0288C8.44457 86.194 9.44317 85.538 10.6654 85.0611L11.6491 84.6772L10.8005 82.4836L13.5952 81.393L14.4439 83.5865L15.3382 83.2375C16.5604 82.7606 17.7454 82.5643 18.8932 82.6488C20.0411 82.7333 21.0639 83.1156 21.9618 83.7957C22.8539 84.4609 23.5586 85.4397 24.0758 86.7321C24.5872 88.0096 24.7685 89.2098 24.6197 90.3327C24.4651 91.4407 24.0135 92.4242 23.265 93.2831C22.5314 94.1361 21.5191 94.8232 20.2281 95.3441L19.1549 95.7629L20.1335 98.2922L17.3388 99.3829ZM14.5393 94.8076L15.4336 94.4586L12.5758 87.0722L11.7262 87.4037C10.9362 87.712 10.3261 88.1304 9.89583 88.659C9.46557 89.1876 9.20532 89.7787 9.11505 90.4322C9.0397 91.0799 9.13481 91.747 9.40038 92.4334C9.68328 93.1646 10.064 93.7717 10.5425 94.2548C11.036 94.732 11.6145 95.0301 12.2781 95.149C12.9509 95.2471 13.7046 95.1333 14.5393 94.8076ZM18.2283 93.368L19.1003 93.0277C19.9499 92.6961 20.5823 92.269 20.9977 91.7462C21.4222 91.2027 21.6485 90.5905 21.6767 89.9097C21.7199 89.223 21.6 88.5141 21.3171 87.7829C21.0458 87.0816 20.6571 86.5205 20.1512 86.0996C19.6601 85.6729 19.0737 85.4209 18.3918 85.3435C17.7191 85.2453 16.9877 85.3504 16.1977 85.6587L15.3705 85.9815L18.2283 93.368Z" fill="#2C64A9"/>
<path d="M32.0478 93.3705L26.242 77.4267L32.2346 75.2257C33.4361 74.7844 34.5408 74.5917 35.5488 74.6476C36.5663 74.6829 37.4604 75.0108 38.2312 75.631C39.017 76.2458 39.6453 77.1997 40.1161 78.4926C40.565 79.7254 40.6697 80.8546 40.4301 81.8801C40.1905 82.9055 39.6818 83.7997 38.9039 84.5627C38.1205 85.3107 37.1281 85.9053 35.9266 86.3466L33.0655 87.3975L34.8639 92.3362L32.0478 93.3705ZM32.1457 84.8717L34.9618 83.8374C35.9981 83.4568 36.7413 82.9025 37.1915 82.1747C37.6416 81.4469 37.6723 80.5493 37.2836 79.4818C36.9442 78.5497 36.4268 77.9472 35.7314 77.6742C35.0306 77.3862 34.1319 77.4435 33.0356 77.8462L29.9942 78.9632L32.1457 84.8717Z" fill="#2C64A9"/>
<path d="M43.6787 89.0553L44.2847 70.8774L47.6618 69.7016L59.3179 83.6103L56.2581 84.6756L54.167 82.0746L46.778 84.6471L46.7159 87.9979L43.6787 89.0553ZM46.7997 81.7679L52.3528 79.8345L46.9486 73.1519L46.7997 81.7679Z" fill="#2C64A9"/>
<path d="M61.8102 82.7458L64.5954 72.8958L56.7582 66.5458L60.1797 65.4265L65.7014 70.1603L67.3423 63.0835L70.6954 61.9866L68.1008 71.7238L76.1125 78.0673L72.6909 79.1866L67.0021 74.4821L65.095 81.6713L61.8102 82.7458Z" fill="#2C64A9"/>
<path d="M82.8321 75.9722L78.6758 62.3606L73.6068 63.9218L72.8078 61.3051L85.79 57.3067L86.589 59.9234L81.52 61.4846L85.6763 75.0962L82.8321 75.9722Z" fill="#2C64A9"/>
<path d="M99.768 70.8563L95.2399 54.5036L98.1293 53.6966L101.338 65.2846L106.266 51.4241L108.855 50.7011L113.383 67.0537L110.493 67.8607L107.323 56.4115L102.334 70.1397L99.768 70.8563Z" fill="#2C64A9"/>
<path d="M123.858 64.2727L119.766 47.8053L130.894 45.0167L131.554 47.6719L123.336 49.7313L126.768 63.5434L123.858 64.2727Z" fill="#2C64A9"/>
<path d="M138.537 60.6119L134.742 44.0738L140.961 42.6341C142.208 42.3455 143.328 42.2915 144.322 42.4721C145.328 42.6335 146.175 43.0697 146.863 43.7807C147.567 44.4882 148.073 45.5125 148.381 46.8536C148.674 48.1324 148.639 49.2655 148.275 50.2531C147.91 51.2407 147.295 52.0647 146.429 52.7251C145.559 53.3698 144.5 53.8365 143.253 54.1252L140.284 54.8125L141.46 59.9354L138.537 60.6119ZM139.683 52.1926L142.605 51.5161C143.681 51.2672 144.487 50.8096 145.024 50.1434C145.56 49.4773 145.701 48.5906 145.447 47.4834C145.225 46.5165 144.786 45.8545 144.13 45.4973C143.47 45.1246 142.571 45.0699 141.433 45.3333L138.276 46.0639L139.683 52.1926Z" fill="#2C64A9"/>
<path d="M154.014 57.08L153.425 54.2853C154.114 54.139 154.677 53.9786 155.114 53.8039C155.564 53.6103 155.933 53.3438 156.221 53.0045C156.525 52.6619 156.776 52.1834 156.974 51.569L148.072 40.9709L151.499 40.2431L157.943 48.3698L159.669 38.5083L162.815 37.8403L160.974 47.0392C160.858 47.6527 160.724 48.3355 160.572 49.0875C160.416 49.8239 160.229 50.5669 160.011 51.3166C159.808 52.063 159.565 52.769 159.28 53.4347C159.007 54.0814 158.678 54.6174 158.294 55.0426C157.816 55.5693 157.226 55.989 156.523 56.3018C155.836 56.6112 155 56.8706 154.014 57.08Z" fill="#2C64A9"/>
<path d="M173.584 53.2081C172.704 53.3781 171.846 53.4462 171.008 53.4124C170.187 53.3756 169.415 53.2151 168.692 52.931C167.986 52.6439 167.374 52.2161 166.858 51.6477C166.358 51.0762 165.997 50.3393 165.775 49.437L168.626 48.8861C168.773 49.314 168.993 49.6544 169.286 49.9075C169.595 50.1575 169.948 50.3419 170.345 50.4606C170.758 50.5764 171.2 50.6295 171.671 50.62C172.141 50.6106 172.605 50.5619 173.06 50.4738C173.437 50.401 173.825 50.3015 174.225 50.1755C174.637 50.0307 175.007 49.8369 175.335 49.5943C175.679 49.3486 175.931 49.0473 176.091 48.6905C176.263 48.315 176.3 47.868 176.2 47.3494C176.11 46.878 175.942 46.5112 175.696 46.249C175.466 45.9838 175.179 45.803 174.835 45.7066C174.491 45.6101 174.1 45.5715 173.664 45.5906C173.244 45.6066 172.79 45.6617 172.303 45.7558L170.041 46.1929L169.567 43.7179L171.169 43.4083C171.64 43.3172 172.081 43.1914 172.49 43.0309C172.896 42.8547 173.239 42.6498 173.52 42.4162C173.817 42.1796 174.033 41.9017 174.167 41.5824C174.298 41.2474 174.325 40.8756 174.247 40.467C174.129 39.8542 173.877 39.4303 173.49 39.1955C173.116 38.9419 172.674 38.8072 172.166 38.7913C171.655 38.7597 171.156 38.7909 170.669 38.885C170.072 39.0003 169.537 39.1851 169.065 39.4394C168.592 39.6937 168.23 40.0162 167.979 40.4069C167.728 40.7976 167.635 41.2474 167.7 41.7563L164.849 42.3072C164.714 41.5185 164.736 40.8218 164.913 40.2171C165.087 39.5968 165.368 39.0619 165.754 38.6124C166.137 38.1473 166.591 37.75 167.114 37.4208C167.635 37.0758 168.184 36.7985 168.763 36.5889C169.342 36.3792 169.891 36.2243 170.409 36.1242C171.132 35.9846 171.846 35.9281 172.551 35.9547C173.273 35.9783 173.943 36.1177 174.562 36.3729C175.194 36.6093 175.73 36.9864 176.172 37.5041C176.613 38.0218 176.912 38.6892 177.068 39.5063C177.147 39.9149 177.162 40.3356 177.115 40.7685C177.083 41.1983 176.954 41.6306 176.728 42.0654C176.517 42.4972 176.151 42.9264 175.63 43.353C176.608 43.441 177.396 43.8103 177.993 44.4609C178.606 45.1084 179.004 45.9114 179.188 46.87C179.343 47.7688 179.295 48.5767 179.041 49.2938C178.803 50.0079 178.417 50.6284 177.882 51.1554C177.345 51.6666 176.703 52.1003 175.957 52.4563C175.223 52.7936 174.432 53.0442 173.584 53.2081Z" fill="#2C64A9"/>
<path d="M192.526 49.7397C190.806 50.0324 189.278 49.9193 187.941 49.4004C186.62 48.8787 185.527 48.0261 184.662 46.8425C183.812 45.6562 183.248 44.2348 182.968 42.5782C182.683 40.8901 182.756 39.352 183.187 37.964C183.616 36.5602 184.376 35.392 185.468 34.4595C186.557 33.5112 187.962 32.8907 189.681 32.598C191.4 32.3053 192.92 32.4198 194.242 32.9414C195.579 33.4604 196.68 34.3116 197.545 35.4952C198.407 36.6631 198.98 38.0831 199.262 39.7555C199.541 41.4121 199.467 42.9422 199.039 44.346C198.626 45.7472 197.867 46.9232 196.762 47.8742C195.673 48.8225 194.261 49.4443 192.526 49.7397ZM192.11 46.9865C193.308 46.7824 194.24 46.3398 194.904 45.6587C195.567 44.9776 195.998 44.1658 196.196 43.2232C196.41 42.2779 196.433 41.3083 196.265 40.3144C196.137 39.5571 195.912 38.8488 195.59 38.1896C195.284 37.5276 194.871 36.9568 194.352 36.4771C193.848 35.9947 193.247 35.6508 192.547 35.4454C191.844 35.2242 191.043 35.1901 190.144 35.3432C188.961 35.5446 188.03 35.9872 187.35 36.671C186.686 37.3521 186.248 38.1652 186.034 39.1105C185.82 40.0558 185.8 41.0412 185.973 42.0666C186.144 43.0764 186.485 43.9921 186.997 44.8138C187.509 45.6356 188.19 46.2581 189.04 46.6814C189.903 47.0862 190.927 47.1879 192.11 46.9865Z" fill="#2C64A9"/>
<path d="M202.829 47.8046L200.377 31.0147L214.101 28.9931L216.553 45.783L213.585 46.2202L211.525 32.1139L203.737 33.261L205.797 47.3674L202.829 47.8046Z" fill="#2C64A9"/>
<path d="M220.241 45.255L218.133 28.4183L230.015 26.9182L230.355 29.633L221.449 30.7574L222.004 35.1868L229.742 34.2098L230.076 36.8769L222.338 37.854L222.877 42.1644L231.783 41.04L232.122 43.7548L220.241 45.255Z" fill="#2C64A9"/>
<path d="M236.606 43.0969L234.845 26.2204L241.194 25.5524C242.467 25.4185 243.586 25.5019 244.55 25.8026C245.529 26.0858 246.317 26.6223 246.914 27.4121C247.527 28.2003 247.905 29.2787 248.048 30.6473C248.184 31.9522 248.011 33.0724 247.53 34.0079C247.048 34.9435 246.337 35.6859 245.397 36.2353C244.455 36.7688 243.348 37.1025 242.075 37.2364L239.044 37.5553L239.589 42.783L236.606 43.0969ZM238.765 34.8818L241.748 34.5679C242.846 34.4524 243.702 34.0969 244.316 33.5014C244.929 32.906 245.177 32.0433 245.059 30.9134C244.956 29.9268 244.601 29.2161 243.992 28.7814C243.382 28.3307 242.496 28.1665 241.335 28.2887L238.113 28.6278L238.765 34.8818Z" fill="#2C64A9"/>
<path d="M251.931 41.5916L250.488 24.685L262.42 23.6579L262.652 26.384L253.709 27.1538L254.089 31.6016L261.86 30.9327L262.089 33.6109L254.318 34.2799L254.687 38.6082L263.63 37.8383L263.863 40.5644L251.931 41.5916Z" fill="#2C64A9"/>
<path d="M268.228 40.2031L267.136 23.2703L274.081 22.8186C274.864 22.7677 275.587 22.7928 276.251 22.8939C276.929 22.9781 277.519 23.1722 278.02 23.4763C278.536 23.7795 278.948 24.2016 279.256 24.7428C279.563 25.284 279.744 25.9697 279.797 26.8C279.847 27.5664 279.716 28.2804 279.406 28.9419C279.095 29.5874 278.607 30.0922 277.941 30.4562C278.882 30.6355 279.623 31.0603 280.163 31.7306C280.703 32.385 281.008 33.263 281.079 34.3648C281.142 35.3387 281.01 36.165 280.685 36.8435C280.375 37.505 279.913 38.0482 279.299 38.4729C278.7 38.8806 277.999 39.1908 277.195 39.4035C276.39 39.6001 275.532 39.7281 274.622 39.7872L268.228 40.2031ZM271.045 37.2781L274.614 37.046C275.061 37.0169 275.498 36.9564 275.925 36.8645C276.352 36.7726 276.736 36.6354 277.077 36.4529C277.418 36.2704 277.674 36.0212 277.846 35.7054C278.033 35.3725 278.111 34.9586 278.079 34.4637C278.05 34.0166 277.947 33.6546 277.768 33.3775C277.59 33.1005 277.352 32.8915 277.054 32.7505C276.772 32.5926 276.437 32.4941 276.049 32.4552C275.661 32.4002 275.259 32.3863 274.844 32.4133L270.749 32.6797L271.045 37.2781ZM270.587 30.1649L273.748 29.9593C274.243 29.9271 274.687 29.8501 275.08 29.7283C275.473 29.6066 275.807 29.4405 276.082 29.2302C276.357 29.02 276.565 28.7659 276.706 28.4681C276.846 28.1544 276.903 27.7899 276.876 27.3748C276.84 26.8159 276.686 26.4091 276.413 26.1543C276.155 25.8825 275.807 25.7127 275.37 25.6449C274.931 25.5612 274.449 25.5365 273.922 25.5707L270.306 25.8059L270.587 30.1649Z" fill="#2C64A9"/>
<path d="M292.88 38.977C291.138 39.0503 289.636 38.7452 288.374 38.0616C287.128 37.3774 286.151 36.3936 285.44 35.1104C284.746 33.8264 284.364 32.3452 284.294 30.6666C284.223 28.9561 284.488 27.4396 285.089 26.1172C285.69 24.7787 286.59 23.7159 287.791 22.9288C288.99 22.1256 290.461 21.6874 292.204 21.614C293.946 21.5407 295.44 21.8462 296.686 22.5304C297.947 23.2139 298.933 24.1974 299.643 25.4806C300.353 26.7479 300.743 28.2288 300.814 29.9234C300.884 31.6019 300.618 33.1104 300.018 34.4488C299.433 35.7866 298.533 36.8574 297.317 37.6612C296.118 38.4644 294.639 38.9029 292.88 38.977ZM292.812 36.1934C294.027 36.1422 295.006 35.8208 295.75 35.2289C296.494 34.6371 297.023 33.8862 297.338 32.9762C297.668 32.0655 297.812 31.1066 297.77 30.0995C297.738 29.3321 297.604 28.6012 297.366 27.9065C297.145 27.2112 296.807 26.5929 296.352 26.0515C295.913 25.5095 295.359 25.0924 294.691 24.8003C294.021 24.4922 293.231 24.3573 292.32 24.3956C291.121 24.4461 290.141 24.7675 289.381 25.36C288.637 25.9518 288.1 26.7031 287.77 27.6138C287.44 28.5245 287.296 29.4994 287.339 30.5385C287.382 31.5616 287.606 32.513 288.011 33.3927C288.416 34.2725 289.014 34.976 289.805 35.5032C290.611 36.0138 291.613 36.2438 292.812 36.1934Z" fill="#2C64A9"/>
<path d="M308.798 38.4472C307.902 38.4661 307.044 38.3881 306.224 38.2133C305.421 38.0382 304.686 37.7496 304.022 37.3474C303.373 36.945 302.842 36.4201 302.429 35.7726C302.031 35.1248 301.799 34.3376 301.731 33.4108L304.635 33.3497C304.708 33.7962 304.868 34.1689 305.114 34.4678C305.376 34.7664 305.693 35.0078 306.065 35.192C306.453 35.3759 306.88 35.5029 307.346 35.5731C307.811 35.6433 308.276 35.6736 308.74 35.6638C309.124 35.6557 309.523 35.6233 309.938 35.5666C310.369 35.4935 310.766 35.3651 311.13 35.1814C311.51 34.9974 311.809 34.743 312.026 34.4184C312.259 34.0774 312.37 33.643 312.359 33.1151C312.349 32.6352 312.245 32.2453 312.047 31.9454C311.865 31.6452 311.612 31.4185 311.289 31.2652C310.965 31.112 310.587 31.0079 310.154 30.953C309.737 30.8978 309.28 30.8754 308.784 30.8858L306.481 30.9343L306.428 28.4148L308.06 28.3805C308.54 28.3704 308.995 28.3208 309.425 28.2318C309.855 28.1267 310.228 27.9828 310.544 27.8001C310.876 27.6171 311.135 27.3796 311.321 27.0876C311.507 26.7796 311.595 26.4177 311.587 26.0018C311.574 25.3779 311.396 24.9176 311.054 24.6207C310.727 24.3075 310.315 24.1001 309.817 23.9986C309.318 23.881 308.821 23.8275 308.325 23.8379C307.717 23.8507 307.159 23.9425 306.65 24.1132C306.142 24.284 305.731 24.5407 305.418 24.8833C305.105 25.226 304.938 25.6536 304.917 26.1661L302.013 26.2272C302.013 25.4271 302.151 24.744 302.427 24.1781C302.703 23.5962 303.069 23.1163 303.525 22.7387C303.981 22.345 304.494 22.0301 305.066 21.794C305.636 21.542 306.225 21.3616 306.831 21.2528C307.437 21.144 308.003 21.0841 308.531 21.073C309.267 21.0575 309.981 21.1225 310.672 21.268C311.379 21.4131 312.016 21.6638 312.584 22.0199C313.167 22.3597 313.633 22.822 313.981 23.4068C314.329 23.9916 314.512 24.6999 314.53 25.5318C314.538 25.9477 314.483 26.3649 314.364 26.7835C314.26 27.2018 314.061 27.6061 313.765 27.9964C313.485 28.3864 313.052 28.7476 312.467 29.0799C313.417 29.332 314.131 29.8291 314.611 30.5712C315.106 31.3129 315.364 32.1717 315.385 33.1475C315.388 34.0596 315.204 34.8476 314.834 35.5116C314.48 36.1752 313.995 36.7215 313.38 37.1505C312.764 37.5636 312.059 37.8825 311.263 38.1073C310.483 38.3157 309.662 38.429 308.798 38.4472Z" fill="#2C64A9"/>
<path d="M319.152 38.0488V21.0808H322.152V28.3768H324.6L329.376 21.0808H332.784L327.12 29.3848L332.808 38.0488H329.304L324.744 31.1128H322.152V38.0488H319.152Z" fill="#2C64A9"/>
<path d="M335.666 38.0446L342.554 21.2302L346.129 21.3123L352.222 38.4246L348.982 38.3503L347.926 35.1812L340.104 35.0016L338.881 38.1184L335.666 38.0446ZM341.126 32.3124L347.004 32.4473L344.261 24.2942L341.126 32.3124Z" fill="#2C64A9"/>
<path d="M359.276 38.7785L359.429 35.9025C359.94 35.9299 360.353 35.8559 360.667 35.6804C360.997 35.4898 361.26 35.2235 361.454 34.8814C361.665 34.5242 361.823 34.124 361.926 33.6809C362.048 33.2067 362.138 32.7228 362.196 32.2292C362.271 31.7205 362.33 31.2189 362.372 30.7245C362.43 30.2309 362.47 29.7844 362.491 29.385L362.987 21.8647L374.754 22.495L373.854 39.4391L370.882 39.2799L371.637 25.068L365.693 24.7496L365.359 29.2262C365.28 30.4236 365.187 31.5643 365.082 32.6482C364.993 33.717 364.83 34.6776 364.592 35.5301C364.355 36.3827 363.957 37.0824 363.399 37.6293C362.942 38.0855 362.389 38.4004 361.739 38.5739C361.105 38.7322 360.285 38.8004 359.276 38.7785Z" fill="#2C64A9"/>
<path d="M391.51 40.901C389.931 40.7742 388.608 40.3549 387.541 39.6432C386.475 38.9314 385.665 38.0077 385.114 36.8718C384.579 35.7214 384.305 34.4312 384.291 33.0015L381.922 32.8112L381.358 39.8928L378.368 39.6525L379.715 22.7381L382.705 22.9783L382.136 30.1317L384.504 30.322C384.731 28.8795 385.208 27.6337 385.933 26.5844C386.66 25.5192 387.607 24.7204 388.772 24.1881C389.938 23.6558 391.287 23.4511 392.818 23.5741C394.556 23.7138 396.002 24.1992 397.156 25.0302C398.311 25.8454 399.147 26.9318 399.665 28.2897C400.199 29.6488 400.398 31.1816 400.262 32.8882C400.129 34.5629 399.699 36.0292 398.973 37.2871C398.246 38.545 397.255 39.5007 396 40.1542C394.745 40.7918 393.248 41.0407 391.51 40.901ZM391.681 38.1459C392.877 38.242 393.873 38.0411 394.667 37.5431C395.461 37.0451 396.061 36.3629 396.467 35.4967C396.874 34.6144 397.119 33.655 397.202 32.6183C397.283 31.5975 397.192 30.6271 396.928 29.707C396.664 28.7869 396.188 28.0183 395.499 27.4011C394.809 26.7839 393.859 26.4267 392.647 26.3293C391.738 26.2562 390.951 26.3616 390.286 26.6452C389.637 26.9302 389.092 27.3358 388.648 27.862C388.221 28.3895 387.891 29.005 387.659 29.7086C387.427 30.3963 387.282 31.115 387.222 31.8646C387.161 32.6302 387.19 33.3709 387.31 34.0868C387.445 34.8039 387.682 35.457 388.021 36.046C388.36 36.619 388.828 37.098 389.423 37.4829C390.035 37.8532 390.788 38.0742 391.681 38.1459Z" fill="#2C64A9"/>
<path d="M403.811 41.7867L405.603 24.9136L417.702 26.2098L417.413 28.9304L408.297 27.9539L407.877 31.9156L411.575 32.3119C412.403 32.4005 413.183 32.5485 413.918 32.7559C414.668 32.965 415.318 33.2761 415.87 33.6891C416.423 34.0863 416.834 34.6131 417.102 35.2694C417.37 35.9257 417.451 36.755 417.345 37.7574C417.233 38.8074 416.957 39.6629 416.517 40.3238C416.092 40.9864 415.54 41.4904 414.86 41.8359C414.197 42.1672 413.451 42.3769 412.621 42.465C411.807 42.5548 410.962 42.5528 410.087 42.4591L403.811 41.7867ZM407.083 39.3856L410.329 39.7333C410.79 39.7827 411.247 39.7994 411.699 39.7835C412.151 39.7676 412.57 39.6917 412.954 39.5559C413.338 39.4201 413.652 39.1962 413.894 38.8842C414.152 38.574 414.31 38.1484 414.368 37.6074C414.423 37.0824 414.365 36.6497 414.192 36.3093C414.035 35.9706 413.789 35.711 413.454 35.5303C413.137 35.3354 412.766 35.1911 412.341 35.0973C411.917 35.0036 411.466 34.9311 410.989 34.88L407.6 34.517L407.083 39.3856Z" fill="#2C64A9"/>
<path d="M428.488 44.8192C426.759 44.5943 425.33 44.0374 424.203 43.1485C423.091 42.2617 422.294 41.1253 421.811 39.7395C421.344 38.3557 421.218 36.8307 421.433 35.1645C421.652 33.4666 422.17 32.0172 422.986 30.8165C423.804 29.5999 424.872 28.7061 426.187 28.1351C427.505 27.5482 429.029 27.3672 430.758 27.5922C432.488 27.8171 433.908 28.373 435.02 29.2598C436.148 30.1487 436.953 31.2861 437.436 32.6719C437.92 34.0419 438.054 35.5679 437.837 37.25C437.622 38.9162 437.106 40.3576 436.287 41.5742C435.485 42.7929 434.417 43.6946 433.083 44.2794C431.765 44.8663 430.234 45.0463 428.488 44.8192ZM428.892 42.0643C430.098 42.2212 431.117 42.0714 431.951 41.6151C432.784 41.1588 433.432 40.509 433.896 39.6657C434.375 38.8246 434.68 37.9041 434.809 36.9044C434.907 36.1427 434.898 35.3993 434.782 34.6743C434.681 33.9513 434.453 33.2843 434.096 32.6731C433.755 32.0641 433.28 31.5585 432.67 31.1565C432.063 30.7387 431.307 30.4709 430.402 30.3533C429.212 30.1985 428.193 30.3482 427.344 30.8025C426.511 31.2588 425.854 31.9076 425.375 32.7488C424.895 33.5899 424.589 34.5262 424.456 35.5577C424.325 36.5733 424.384 37.5491 424.635 38.4852C424.885 39.4214 425.355 40.2166 426.045 40.8711C426.753 41.5118 427.702 41.9095 428.892 42.0643Z" fill="#2C64A9"/>
<path d="M438.815 45.9868L441.36 29.2108L444.325 29.6647L442.522 41.5526L452.676 30.9427L455.333 31.3493L452.788 48.1253L449.822 47.6715L451.605 35.9259L441.448 46.3898L438.815 45.9868ZM448.555 29.1466C447.638 29.0062 446.869 28.7428 446.247 28.3564C445.626 27.97 445.169 27.463 444.876 26.8354C444.601 26.1944 444.511 25.4523 444.607 24.6091L447.122 24.9939C447.072 25.5366 447.206 25.9861 447.524 26.3423C447.86 26.6851 448.321 26.9013 448.906 26.9909C449.492 27.0805 449.988 27.0107 450.395 26.7816C450.804 26.5367 451.057 26.1466 451.155 25.6112L453.693 25.9996C453.534 26.8332 453.221 27.5136 452.752 28.0408C452.302 28.5546 451.716 28.9018 450.992 29.0825C450.285 29.2656 449.472 29.2869 448.555 29.1466Z" fill="#2C64A9"/>
<path d="M472.614 51.7727C470.883 51.4516 469.493 50.8275 468.444 49.9005C467.397 48.9577 466.692 47.7935 466.329 46.408C465.965 45.0224 465.938 43.4878 466.248 41.8041C466.558 40.1203 467.138 38.6902 467.989 37.5137C468.84 36.3372 469.922 35.4965 471.235 34.9916C472.551 34.4709 474.058 34.3682 475.757 34.6835C477.016 34.917 478.086 35.3352 478.967 35.9382C479.849 36.5411 480.516 37.2914 480.969 38.1892C481.441 39.0741 481.659 40.0991 481.624 41.2642L478.768 40.7344C478.696 39.891 478.363 39.1783 477.771 38.5965C477.178 38.0146 476.339 37.623 475.254 37.4215C474.074 37.2026 473.071 37.3014 472.246 37.7179C471.422 38.1343 470.764 38.7447 470.275 39.5488C469.801 40.3559 469.473 41.2552 469.29 42.2465C469.102 43.2694 469.091 44.2599 469.256 45.2181C469.437 46.1793 469.847 47.0039 470.485 47.6918C471.123 48.3798 472.024 48.8318 473.188 49.0478C473.912 49.1821 474.56 49.1965 475.132 49.0912C475.721 48.9888 476.23 48.7824 476.662 48.4718C477.112 48.1485 477.455 47.7403 477.692 47.2473L480.689 47.8034C480.295 48.8856 479.695 49.7588 478.889 50.423C478.1 51.0901 477.162 51.5427 476.077 51.7808C475.011 52.006 473.856 52.0033 472.614 51.7727Z" fill="#2C64A9"/>
<path d="M480.697 52.9896L481.275 50.1682C481.776 50.2718 482.195 50.2603 482.531 50.1337C482.886 49.9947 483.186 49.7706 483.429 49.4613C483.69 49.1397 483.905 48.7675 484.074 48.3448C484.264 47.894 484.425 47.4288 484.556 46.9494C484.705 46.4575 484.838 45.9703 484.953 45.4876C485.084 45.0081 485.189 44.5725 485.27 44.1806L486.876 36.8173L498.416 39.2016L495.011 55.8245L492.097 55.2223L494.953 41.2798L489.124 40.0755L488.129 44.4528C487.873 45.6252 487.612 46.7394 487.346 47.7956C487.1 48.8393 486.796 49.765 486.435 50.5725C486.073 51.3801 485.576 52.0126 484.944 52.4701C484.424 52.8529 483.83 53.0815 483.162 53.1558C482.512 53.2176 481.691 53.1622 480.697 52.9896Z" fill="#2C64A9"/>
<path d="M506.181 58.7211C504.481 58.3309 503.113 57.6391 502.075 56.6458C501.054 55.6561 500.369 54.4482 500.02 53.0222C499.688 51.5997 499.708 50.0694 500.081 48.4313C500.461 46.762 501.114 45.3688 502.041 44.2519C502.971 43.1194 504.119 42.3322 505.483 41.8902C506.851 41.4325 508.384 41.3988 510.084 41.789C511.784 42.1792 513.145 42.8692 514.166 43.8589C515.204 44.8522 515.897 46.0619 516.245 47.4879C516.597 48.8984 516.584 50.4305 516.208 52.0842C515.835 53.7223 515.184 55.1076 514.253 56.2401C513.338 57.3762 512.189 58.1713 510.806 58.6253C509.438 59.0829 507.897 59.1148 506.181 58.7211ZM506.846 56.0172C508.031 56.2893 509.06 56.2382 509.933 55.864C510.806 55.4898 511.513 54.9052 512.055 54.1103C512.612 53.319 513.003 52.4319 513.227 51.4491C513.397 50.7002 513.459 49.9593 513.413 49.2263C513.382 48.4969 513.218 47.8108 512.921 47.1682C512.64 46.529 512.215 45.9801 511.647 45.5213C511.082 45.0469 510.355 44.7077 509.466 44.5036C508.297 44.2351 507.268 44.2862 506.379 44.6568C505.506 45.031 504.791 45.6138 504.234 46.4051C503.676 47.1965 503.282 48.0992 503.051 49.1132C502.824 50.1117 502.79 51.0889 502.95 52.0449C503.11 53.0009 503.502 53.8378 504.126 54.5557C504.77 55.2616 505.676 55.7487 506.846 56.0172Z" fill="#2C64A9"/>
<path d="M515.563 60.3897L522.247 53.1254L519.713 43.937L522.97 44.7655L524.918 52.7402L527.151 53.3083L528.924 46.2804L531.808 47.0142L530.035 54.0421L532.315 54.622L537.809 48.541L541.042 49.3636L534.435 56.2263L536.892 65.8162L533.496 64.9522L531.698 57.2635L529.372 56.6717L527.658 63.4669L524.774 62.7331L526.488 55.9379L524.191 55.3288L518.936 61.2477L515.563 60.3897Z" fill="#2C64A9"/>
<path d="M540.233 67.0036L544.79 50.6589L547.677 51.471L545.731 58.4528L553.355 60.5968L555.302 53.615L558.167 54.4207L553.61 70.7653L550.745 69.9597L552.621 63.2323L544.996 61.0883L543.121 67.8157L540.233 67.0036Z" fill="#2C64A9"/>
<path d="M564.293 74.4479C562.625 73.9404 561.307 73.1551 560.341 72.0919C559.39 71.0334 558.79 69.7806 558.542 68.3336C558.308 66.8912 558.434 65.3658 558.919 63.7573C559.413 62.1182 560.161 60.7737 561.163 59.7238C562.169 58.6586 563.368 57.9529 564.759 57.6068C566.155 57.2453 567.687 57.3183 569.356 57.8258C571.024 58.3333 572.334 59.1163 573.285 60.1748C574.251 61.238 574.859 62.4931 575.107 63.9401C575.361 65.3718 575.243 66.8996 574.753 68.5234C574.268 70.1318 573.522 71.4687 572.516 72.5339C571.525 73.6038 570.324 74.3171 568.913 74.6739C567.517 75.0354 565.977 74.9601 564.293 74.4479ZM565.143 71.7964C566.306 72.1503 567.336 72.1709 568.233 71.8582C569.129 71.5455 569.875 71.0115 570.47 70.2561C571.081 69.5053 571.532 68.6474 571.823 67.6824C572.045 66.9471 572.158 66.2121 572.162 65.4776C572.182 64.7477 572.066 64.0518 571.814 63.3899C571.578 62.7327 571.192 62.1555 570.657 61.6582C570.126 61.1456 569.424 60.7567 568.552 60.4913C567.404 60.1421 566.374 60.1215 565.462 60.4295C564.566 60.7421 563.812 61.2738 563.201 62.0246C562.591 62.7754 562.135 63.6486 561.835 64.6443C561.539 65.6247 561.438 66.5974 561.532 67.5623C561.625 68.5272 561.958 69.3895 562.531 70.1492C563.124 70.8981 563.995 71.4472 565.143 71.7964Z" fill="#2C64A9"/>
<path d="M581.31 79.4734C579.636 78.9291 578.339 78.1288 577.419 77.0724C576.504 76.0008 575.956 74.7542 575.775 73.3327C575.595 71.9112 575.767 70.3858 576.292 68.7564C576.818 67.127 577.579 65.7844 578.575 64.7287C579.571 63.673 580.752 62.9804 582.119 62.6511C583.491 62.3064 584.999 62.4014 586.642 62.9358C587.859 63.3316 588.866 63.886 589.661 64.599C590.457 65.312 591.021 66.1433 591.354 67.0927C591.706 68.0319 591.79 69.0769 591.604 70.2277L588.842 69.3296C588.879 68.4837 588.642 67.7336 588.13 67.0792C587.618 66.4248 586.837 65.9269 585.788 65.5854C584.646 65.2143 583.64 65.1815 582.768 65.4868C581.896 65.7922 581.166 66.3117 580.576 67.0453C580.002 67.7839 579.56 68.6329 579.251 69.5922C578.932 70.582 578.792 71.5629 578.832 72.5348C578.886 73.5117 579.185 74.3829 579.729 75.1484C580.272 75.914 581.107 76.4799 582.233 76.846C582.933 77.0736 583.573 77.1726 584.154 77.1429C584.751 77.1181 585.283 76.9799 585.751 76.7282C586.238 76.4663 586.632 76.1063 586.931 75.6483L589.829 76.5909C589.298 77.6127 588.59 78.4004 587.706 78.954C586.836 79.5125 585.849 79.839 584.742 79.9335C583.656 80.0177 582.512 79.8643 581.31 79.4734Z" fill="#2C64A9"/>
<path d="M594.155 83.5317L598.753 70.0629L593.738 68.3361L594.622 65.7468L607.466 70.1694L606.582 72.7587L601.567 71.0318L596.969 84.5006L594.155 83.5317Z" fill="#2C64A9"/>
<path d="M605.121 87.6628L610.9 71.7093L613.718 72.7389L609.622 84.044L621.652 75.6381L624.177 76.5606L618.398 92.5142L615.58 91.4846L619.626 80.3149L607.623 88.5771L605.121 87.6628Z" fill="#2C64A9"/>
<path d="M630.347 96.6506L636.548 80.8562L639.337 81.9607L636.688 88.7074L644.052 91.6233L646.701 84.8766L649.468 85.9723L643.267 101.767L640.5 100.671L643.052 94.1701L635.688 91.2541L633.136 97.7551L630.347 96.6506Z" fill="#2C64A9"/>
<path d="M646.951 103.307L659.066 89.7864L662.404 91.0698L662.408 109.25L659.384 108.088L659.451 104.745L652.148 101.937L649.953 104.461L646.951 103.307ZM654.01 99.7475L659.499 101.858L659.647 93.2495L654.01 99.7475Z" fill="#2C64A9"/>
<path d="M677.104 114.631L681.839 101.21L676.842 99.4319L677.752 96.8518L690.55 101.405L689.64 103.986L684.643 102.208L679.908 115.629L677.104 114.631Z" fill="#2C64A9"/>
<path d="M686.051 117.816L691.451 101.73L702.794 105.571L701.923 108.165L693.421 105.286L692.001 109.518L699.389 112.019L698.533 114.568L691.145 112.066L689.763 116.184L698.265 119.063L697.394 121.657L686.051 117.816Z" fill="#2C64A9"/>
<path d="M701.34 122.979L706.463 106.803L712.544 108.745C713.764 109.135 714.755 109.662 715.518 110.325C716.301 110.979 716.809 111.787 717.041 112.752C717.287 113.721 717.203 114.861 716.788 116.173C716.392 117.424 715.786 118.381 714.972 119.045C714.157 119.708 713.21 120.103 712.13 120.228C711.055 120.338 709.907 120.198 708.688 119.809L705.784 118.881L704.197 123.892L701.34 122.979ZM706.596 116.318L709.454 117.231C710.505 117.567 711.431 117.586 712.231 117.287C713.03 116.988 713.601 116.297 713.944 115.214C714.244 114.269 714.202 113.474 713.818 112.831C713.439 112.172 712.694 111.665 711.581 111.31L708.495 110.324L706.596 116.318Z" fill="#2C64A9"/>
<path d="M716.553 127.827L721.395 111.564L727.509 113.401C728.735 113.769 729.736 114.278 730.51 114.928C731.305 115.568 731.826 116.368 732.075 117.328C732.338 118.292 732.274 119.434 731.881 120.753C731.507 122.01 730.918 122.978 730.115 123.656C729.312 124.333 728.372 124.744 727.294 124.888C726.221 125.017 725.071 124.897 723.845 124.529L720.926 123.652L719.426 128.69L716.553 127.827ZM721.693 121.076L724.566 121.939C725.624 122.257 726.55 122.259 727.344 121.946C728.138 121.633 728.697 120.933 729.022 119.844C729.305 118.893 729.249 118.1 728.854 117.463C728.464 116.811 727.709 116.318 726.591 115.982L723.488 115.05L721.693 121.076Z" fill="#2C64A9"/>
<path d="M731.856 132.426L736.384 116.073L739.273 116.88L736.065 128.468L747.41 119.153L749.999 119.876L745.471 136.229L742.581 135.422L745.752 123.972L734.422 133.143L731.856 132.426Z" fill="#2C64A9"/>
<path d="M754.434 138.614L757.964 124.827L752.829 123.5L753.507 120.85L766.66 124.246L765.981 126.897L760.846 125.571L757.316 139.358L754.434 138.614Z" fill="#2C64A9"/>
<path d="M772.076 143.469C770.379 143.067 769.015 142.365 767.985 141.364C766.97 140.367 766.294 139.155 765.956 137.726C765.634 136.301 765.665 134.771 766.049 133.136C766.441 131.469 767.105 130.081 768.04 128.971C768.978 127.845 770.131 127.066 771.498 126.634C772.869 126.186 774.403 126.163 776.1 126.566C777.797 126.969 779.153 127.668 780.168 128.665C781.198 129.666 781.882 130.881 782.22 132.31C782.561 133.723 782.538 135.254 782.15 136.905C781.765 138.541 781.104 139.921 780.165 141.047C779.242 142.177 778.087 142.963 776.701 143.407C775.33 143.855 773.788 143.876 772.076 143.469ZM772.76 140.77C773.943 141.051 774.972 141.008 775.848 140.64C776.723 140.272 777.435 139.692 777.982 138.901C778.545 138.114 778.942 137.23 779.173 136.249C779.349 135.501 779.416 134.761 779.375 134.027C779.349 133.298 779.19 132.61 778.898 131.966C778.622 131.324 778.201 130.772 777.636 130.31C777.075 129.831 776.35 129.487 775.463 129.276C774.295 128.999 773.266 129.043 772.375 129.407C771.499 129.775 770.78 130.352 770.217 131.14C769.654 131.927 769.253 132.827 769.015 133.839C768.781 134.836 768.74 135.813 768.893 136.77C769.046 137.727 769.432 138.567 770.051 139.289C770.689 140 771.592 140.494 772.76 140.77Z" fill="#2C64A9"/>
<path d="M783.985 145.83L787.54 129.238L793.78 130.587C795.031 130.858 796.069 131.287 796.892 131.874C797.734 132.449 798.316 133.205 798.639 134.142C798.978 135.083 799.003 136.226 798.714 137.571C798.439 138.854 797.928 139.865 797.181 140.604C796.433 141.343 795.528 141.826 794.464 142.055C793.404 142.267 792.249 142.239 790.998 141.968L788.018 141.324L786.917 146.464L783.985 145.83ZM788.582 138.696L791.514 139.33C792.593 139.563 793.516 139.492 794.284 139.118C795.051 138.744 795.554 138.001 795.792 136.891C796 135.921 795.882 135.134 795.439 134.531C794.999 133.912 794.208 133.479 793.066 133.232L789.899 132.548L788.582 138.696Z" fill="#2C64A9"/>
<path d="M798.958 149.076L802.181 132.416L805.125 132.991L802.842 144.796L813.417 134.609L816.055 135.124L812.832 151.783L809.888 151.208L812.144 139.544L801.573 149.586L798.958 149.076Z" fill="#2C64A9"/>
<path d="M819.924 153.112L822.748 136.381L825.706 136.884L823.704 148.74L834.034 138.302L836.684 138.753L833.859 155.484L830.902 154.981L832.879 143.267L822.55 153.559L819.924 153.112Z" fill="#2C64A9"/>
<path d="M859.362 159.399C857.792 159.189 856.493 158.7 855.465 157.933C854.437 157.165 853.677 156.2 853.186 155.037C852.713 153.859 852.507 152.556 852.567 151.128L850.212 150.813L849.277 157.855L846.304 157.457L848.537 140.636L851.51 141.034L850.566 148.148L852.921 148.463C853.224 147.035 853.765 145.816 854.544 144.806C855.326 143.781 856.313 143.033 857.505 142.564C858.698 142.094 860.055 141.961 861.577 142.164C863.306 142.396 864.724 142.957 865.833 143.848C866.943 144.723 867.721 145.853 868.167 147.236C868.629 148.621 868.747 150.163 868.522 151.86C868.301 153.525 867.794 154.967 867.003 156.185C866.212 157.402 865.172 158.304 863.884 158.891C862.598 159.461 861.09 159.63 859.362 159.399ZM859.678 156.656C860.867 156.816 861.871 156.668 862.69 156.212C863.509 155.757 864.144 155.108 864.595 154.264C865.048 153.405 865.343 152.459 865.48 151.428C865.615 150.413 865.575 149.439 865.36 148.507C865.144 147.574 864.709 146.781 864.053 146.128C863.397 145.475 862.467 145.068 861.262 144.907C860.358 144.786 859.566 144.849 858.888 145.097C858.225 145.348 857.659 145.724 857.189 146.226C856.734 146.73 856.373 147.327 856.103 148.018C855.836 148.692 855.653 149.402 855.554 150.148C855.453 150.909 855.444 151.65 855.525 152.371C855.623 153.095 855.825 153.76 856.132 154.366C856.441 154.956 856.883 155.459 857.457 155.875C858.049 156.277 858.789 156.538 859.678 156.656Z" fill="#2C64A9"/>
<path d="M877.104 161.643L877.385 158.946L876.144 158.815C874.793 158.657 873.652 158.263 872.72 157.634C871.788 157.006 871.11 156.178 870.686 155.152C870.264 154.11 870.123 152.921 870.262 151.584C870.424 150.185 870.842 149.039 871.514 148.144C872.186 147.25 873.058 146.609 874.127 146.223C875.197 145.837 876.385 145.712 877.689 145.85L878.74 145.96L878.984 143.621L881.967 143.935L881.723 146.274L882.678 146.375C883.983 146.512 885.126 146.882 886.109 147.484C887.092 148.086 887.828 148.895 888.317 149.912C888.808 150.913 888.989 152.106 888.861 153.493C888.734 154.863 888.348 156.013 887.705 156.943C887.062 157.856 886.213 158.523 885.155 158.943C884.114 159.364 882.9 159.51 881.514 159.38L880.369 159.26L880.087 161.957L877.104 161.643ZM876.697 156.291L877.651 156.392L878.473 148.514L877.566 148.419C876.723 148.33 875.989 148.422 875.366 148.694C874.742 148.966 874.241 149.372 873.863 149.912C873.501 150.453 873.282 151.089 873.206 151.821C873.124 152.601 873.186 153.316 873.392 153.965C873.614 154.615 873.993 155.146 874.529 155.556C875.083 155.953 875.806 156.197 876.697 156.291ZM880.635 156.706L881.566 156.804C882.473 156.899 883.23 156.81 883.838 156.536C884.463 156.248 884.943 155.807 885.279 155.215C885.63 154.625 885.846 153.94 885.927 153.16C886.005 152.412 885.915 151.735 885.657 151.128C885.414 150.524 885.007 150.03 884.436 149.649C883.882 149.252 883.183 149.01 882.34 148.921L881.457 148.828L880.635 156.706Z" fill="#2C64A9"/>
<path d="M898.305 163.541C896.567 163.402 895.113 162.916 893.943 162.083C892.789 161.252 891.938 160.157 891.388 158.796C890.854 157.437 890.654 155.92 890.787 154.246C890.923 152.539 891.37 151.066 892.126 149.827C892.885 148.571 893.907 147.626 895.193 146.991C896.481 146.34 897.994 146.085 899.733 146.224C901.471 146.364 902.917 146.849 904.071 147.68C905.24 148.513 906.1 149.609 906.65 150.969C907.201 152.314 907.409 153.831 907.274 155.522C907.141 157.197 906.695 158.662 905.937 159.917C905.195 161.174 904.172 162.127 902.868 162.776C901.58 163.427 900.059 163.682 898.305 163.541ZM898.574 160.77C899.786 160.868 900.797 160.668 901.607 160.171C902.417 159.674 903.033 158.994 903.455 158.129C903.893 157.265 904.152 156.331 904.232 155.326C904.293 154.56 904.248 153.818 904.096 153.1C903.961 152.383 903.7 151.728 903.314 151.135C902.944 150.543 902.444 150.062 901.816 149.69C901.189 149.303 900.421 149.072 899.511 148.999C898.315 148.903 897.304 149.103 896.478 149.598C895.668 150.095 895.044 150.775 894.606 151.639C894.168 152.503 893.908 153.453 893.826 154.49C893.744 155.51 893.851 156.482 894.147 157.405C894.443 158.327 894.951 159.099 895.672 159.718C896.41 160.323 897.378 160.674 898.574 160.77Z" fill="#2C64A9"/>
<path d="M935.976 159.792C935.448 159.774 934.956 159.645 934.5 159.405C934.045 159.149 933.68 158.801 933.407 158.359C933.135 157.901 933.009 157.353 933.031 156.713C933.063 155.786 933.376 155.06 933.97 154.536C934.58 154.013 935.317 153.766 936.181 153.796C936.756 153.816 937.264 153.961 937.703 154.232C938.158 154.504 938.505 154.868 938.746 155.325C939.002 155.782 939.12 156.314 939.1 156.922C939.068 157.834 938.748 158.551 938.138 159.074C937.544 159.582 936.823 159.821 935.976 159.792Z" fill="#2C64A9"/>
<path d="M970.701 166.34L970.671 163.628L969.423 163.642C968.063 163.642 966.884 163.383 965.886 162.867C964.888 162.35 964.119 161.607 963.58 160.637C963.041 159.651 962.764 158.486 962.748 157.142C962.748 155.734 963.031 154.547 963.596 153.58C964.161 152.614 964.952 151.877 965.971 151.369C966.989 150.861 968.154 150.6 969.466 150.585L970.522 150.573L970.495 148.221L973.495 148.186L973.522 150.538L974.482 150.527C975.794 150.512 976.972 150.747 978.018 151.231C979.064 151.715 979.888 152.433 980.491 153.386C981.093 154.324 981.411 155.488 981.442 156.88C981.474 158.255 981.224 159.442 980.691 160.441C980.158 161.423 979.391 162.184 978.389 162.723C977.403 163.263 976.214 163.548 974.822 163.58L973.67 163.593L973.701 166.305L970.701 166.34ZM969.681 161.071L970.641 161.06L970.551 153.14L969.639 153.151C968.791 153.161 968.073 153.337 967.485 153.68C966.897 154.022 966.446 154.484 966.133 155.063C965.835 155.643 965.691 156.3 965.699 157.036C965.708 157.82 965.852 158.523 966.131 159.144C966.426 159.764 966.864 160.247 967.444 160.593C968.04 160.922 968.785 161.081 969.681 161.071ZM973.641 161.026L974.577 161.015C975.489 161.004 976.231 160.828 976.803 160.485C977.391 160.126 977.818 159.634 978.082 159.006C978.363 158.379 978.499 157.674 978.49 156.89C978.482 156.138 978.314 155.476 977.988 154.903C977.677 154.331 977.216 153.888 976.605 153.575C976.009 153.246 975.287 153.086 974.439 153.096L973.551 153.106L973.641 161.026Z" fill="#2C64A9"/>
<path d="M986.461 165.826L985.882 148.868L992.262 148.648C993.541 148.604 994.651 148.766 995.593 149.134C996.549 149.485 997.298 150.076 997.838 150.906C998.395 151.735 998.697 152.837 998.744 154.212C998.788 155.524 998.538 156.629 997.992 157.528C997.447 158.428 996.686 159.118 995.71 159.6C994.733 160.066 993.605 160.321 992.326 160.365L989.28 160.47L989.459 165.723L986.461 165.826ZM989.188 157.783L992.186 157.68C993.289 157.642 994.168 157.348 994.822 156.797C995.475 156.246 995.783 155.403 995.744 154.268C995.71 153.276 995.405 152.542 994.828 152.066C994.251 151.573 993.379 151.347 992.211 151.388L988.973 151.499L989.188 157.783Z" fill="#2C64A9"/>
<path d="M1000.31 165.388L1005.88 148.085L1009.45 147.887L1016.85 164.47L1013.61 164.65L1012.31 161.573L1004.5 162.006L1003.53 165.209L1000.31 165.388ZM1005.31 159.245L1011.18 158.92L1007.82 151.006L1005.31 159.245Z" fill="#2C64A9"/>
<path d="M1018.12 164.201L1023.13 155.286L1017 147.269L1020.59 146.988L1024.85 152.889L1028.1 146.399L1031.62 146.123L1026.82 154.973L1033.12 163.025L1029.53 163.306L1025.1 157.395L1021.57 163.931L1018.12 164.201Z" fill="#2C64A9"/>
<path d="M1040.08 162.453L1038.71 148.288L1033.43 148.803L1033.17 146.079L1046.69 144.76L1046.95 147.484L1041.67 147.999L1043.04 162.164L1040.08 162.453Z" fill="#2C64A9"/>
<path d="M1056.49 160.775L1054.39 143.939L1057.36 143.563L1058.85 155.494L1065.74 142.505L1068.41 142.168L1070.52 159.005L1067.54 159.381L1066.07 147.593L1059.14 160.442L1056.49 160.775Z" fill="#2C64A9"/>
<path d="M1083.62 157.164L1081.01 140.397L1092.35 138.62L1092.77 141.323L1084.4 142.636L1086.58 156.699L1083.62 157.164Z" fill="#2C64A9"/>
<path d="M1098.42 154.825L1095.5 138.109L1101.79 137.003C1103.05 136.781 1104.17 136.786 1105.15 137.02C1106.15 137.234 1106.97 137.715 1107.62 138.462C1108.29 139.205 1108.74 140.255 1108.97 141.611C1109.2 142.903 1109.1 144.033 1108.69 145C1108.27 145.966 1107.61 146.756 1106.71 147.37C1105.81 147.967 1104.73 148.377 1103.47 148.599L1100.47 149.127L1101.37 154.305L1098.42 154.825ZM1100.01 146.479L1102.96 145.959C1104.05 145.768 1104.88 145.354 1105.45 144.717C1106.02 144.08 1106.21 143.202 1106.01 142.083C1105.84 141.106 1105.44 140.422 1104.8 140.03C1104.16 139.623 1103.27 139.52 1102.12 139.723L1098.92 140.284L1100.01 146.479Z" fill="#2C64A9"/>
<path d="M1114.13 152.059L1113.59 149.255C1114.28 149.12 1114.84 148.969 1115.28 148.801C1115.74 148.615 1116.11 148.355 1116.4 148.02C1116.71 147.683 1116.97 147.209 1117.18 146.597L1108.45 135.854L1111.89 135.183L1118.2 143.415L1120.09 133.583L1123.24 132.968L1121.25 142.135C1121.13 142.746 1120.98 143.426 1120.82 144.176C1120.65 144.91 1120.45 145.649 1120.22 146.395C1120 147.138 1119.75 147.84 1119.45 148.501C1119.17 149.143 1118.83 149.674 1118.44 150.092C1117.95 150.611 1117.36 151.021 1116.65 151.322C1115.96 151.62 1115.12 151.866 1114.13 152.059Z" fill="#2C64A9"/>
<path d="M1137.05 147.586C1136.17 147.775 1135.31 147.862 1134.48 147.846C1133.65 147.828 1132.88 147.684 1132.15 147.416C1131.44 147.145 1130.82 146.73 1130.29 146.173C1129.78 145.613 1129.4 144.884 1129.16 143.987L1132 143.374C1132.15 143.798 1132.38 144.134 1132.68 144.38C1132.99 144.623 1133.35 144.8 1133.75 144.91C1134.16 145.017 1134.61 145.06 1135.08 145.04C1135.55 145.02 1136.01 144.961 1136.46 144.863C1136.84 144.782 1137.22 144.674 1137.62 144.539C1138.03 144.386 1138.4 144.184 1138.72 143.934C1139.06 143.681 1139.3 143.374 1139.45 143.014C1139.62 142.634 1139.65 142.187 1139.53 141.67C1139.43 141.201 1139.26 140.838 1139.01 140.581C1138.77 140.321 1138.48 140.147 1138.13 140.058C1137.79 139.969 1137.4 139.939 1136.96 139.968C1136.54 139.993 1136.09 140.058 1135.6 140.163L1133.35 140.65L1132.82 138.186L1134.42 137.841C1134.89 137.739 1135.33 137.604 1135.73 137.434C1136.13 137.249 1136.47 137.037 1136.75 136.797C1137.04 136.554 1137.25 136.272 1137.38 135.949C1137.5 135.612 1137.52 135.239 1137.43 134.832C1137.3 134.222 1137.04 133.804 1136.65 133.578C1136.27 133.333 1135.82 133.208 1135.31 133.203C1134.8 133.183 1134.3 133.225 1133.82 133.33C1133.23 133.458 1132.7 133.655 1132.23 133.919C1131.76 134.184 1131.41 134.514 1131.16 134.91C1130.92 135.306 1130.84 135.758 1130.91 136.266L1128.08 136.879C1127.92 136.094 1127.93 135.397 1128.09 134.788C1128.26 134.164 1128.52 133.623 1128.9 133.165C1129.27 132.692 1129.72 132.285 1130.23 131.944C1130.75 131.588 1131.29 131.298 1131.86 131.076C1132.44 130.854 1132.98 130.687 1133.5 130.575C1134.22 130.42 1134.93 130.347 1135.64 130.358C1136.36 130.366 1137.03 130.491 1137.66 130.732C1138.29 130.955 1138.84 131.32 1139.29 131.828C1139.74 132.336 1140.06 132.996 1140.23 133.81C1140.32 134.217 1140.34 134.637 1140.3 135.071C1140.28 135.501 1140.16 135.936 1139.95 136.376C1139.75 136.812 1139.39 137.249 1138.88 137.687C1139.86 137.754 1140.65 138.106 1141.26 138.743C1141.89 139.377 1142.31 140.171 1142.51 141.125C1142.69 142.02 1142.65 142.829 1142.42 143.552C1142.19 144.271 1141.82 144.9 1141.3 145.439C1140.77 145.962 1140.14 146.409 1139.4 146.782C1138.68 147.135 1137.89 147.403 1137.05 147.586Z" fill="#2C64A9"/>
<path d="M1153.48 143.872C1151.78 144.275 1150.25 144.26 1148.88 143.828C1147.53 143.392 1146.38 142.611 1145.44 141.485C1144.52 140.356 1143.87 138.974 1143.48 137.338C1143.09 135.672 1143.07 134.132 1143.41 132.719C1143.75 131.29 1144.43 130.076 1145.46 129.075C1146.49 128.058 1147.85 127.349 1149.55 126.946C1151.24 126.544 1152.77 126.561 1154.12 126.996C1155.49 127.429 1156.64 128.207 1157.58 129.333C1158.51 130.443 1159.17 131.824 1159.56 133.475C1159.95 135.11 1159.97 136.642 1159.63 138.071C1159.31 139.496 1158.63 140.718 1157.58 141.738C1156.56 142.755 1155.19 143.466 1153.48 143.872ZM1152.89 141.151C1154.07 140.87 1154.97 140.369 1155.59 139.646C1156.21 138.924 1156.59 138.086 1156.72 137.133C1156.88 136.176 1156.84 135.206 1156.61 134.225C1156.43 133.477 1156.16 132.785 1155.8 132.148C1155.45 131.507 1155 130.964 1154.45 130.518C1153.92 130.069 1153.3 129.764 1152.59 129.604C1151.87 129.429 1151.07 129.446 1150.18 129.657C1149.01 129.934 1148.11 130.435 1147.48 131.161C1146.86 131.884 1146.47 132.723 1146.32 133.68C1146.17 134.638 1146.21 135.622 1146.45 136.635C1146.68 137.632 1147.08 138.524 1147.65 139.311C1148.21 140.098 1148.93 140.676 1149.8 141.044C1150.69 141.392 1151.72 141.428 1152.89 141.151Z" fill="#2C64A9"/>
<path d="M1164.6 141.007L1160.36 124.577L1173.79 121.084L1178.03 137.514L1175.12 138.27L1171.56 124.466L1163.94 126.448L1167.5 140.252L1164.6 141.007Z" fill="#2C64A9"/>
<path d="M1182.79 136.235L1178.24 119.89L1189.77 116.648L1190.5 119.284L1181.86 121.714L1183.06 126.014L1190.57 123.902L1191.29 126.491L1183.78 128.603L1184.95 132.787L1193.59 130.357L1194.32 132.993L1182.79 136.235Z" fill="#2C64A9"/>
<path d="M1198.01 131.936L1193.17 115.674L1199.29 113.837C1200.51 113.469 1201.63 113.343 1202.63 113.46C1203.64 113.556 1204.52 113.937 1205.25 114.603C1206 115.263 1206.57 116.253 1206.96 117.572C1207.33 118.829 1207.37 119.963 1207.07 120.972C1206.77 121.981 1206.21 122.843 1205.39 123.558C1204.56 124.257 1203.53 124.791 1202.31 125.159L1199.39 126.036L1200.89 131.073L1198.01 131.936ZM1198.62 123.459L1201.49 122.596C1202.55 122.279 1203.33 121.77 1203.82 121.071C1204.31 120.372 1204.4 119.478 1204.07 118.389C1203.79 117.438 1203.31 116.806 1202.63 116.491C1201.95 116.162 1201.05 116.165 1199.93 116.501L1196.83 117.433L1198.62 123.459Z" fill="#2C64A9"/>
<path d="M1213.31 127.323L1208.19 111.147L1219.6 107.503L1220.42 110.111L1211.87 112.842L1213.22 117.098L1220.65 114.724L1221.46 117.287L1214.03 119.661L1215.34 123.802L1223.89 121.07L1224.72 123.679L1213.31 127.323Z" fill="#2C64A9"/>
<path d="M1227.75 122.71L1222.35 106.624L1228.94 104.392C1229.68 104.14 1230.39 103.978 1231.05 103.904C1231.73 103.81 1232.35 103.845 1232.91 104.009C1233.49 104.169 1233.99 104.47 1234.43 104.914C1234.87 105.358 1235.22 105.974 1235.48 106.763C1235.73 107.491 1235.78 108.215 1235.65 108.934C1235.52 109.639 1235.18 110.253 1234.63 110.777C1235.58 110.707 1236.41 110.926 1237.1 111.434C1237.79 111.927 1238.31 112.697 1238.66 113.744C1238.97 114.669 1239.06 115.502 1238.92 116.242C1238.79 116.961 1238.48 117.606 1238 118.175C1237.52 118.724 1236.92 119.205 1236.2 119.619C1235.48 120.017 1234.68 120.362 1233.82 120.655L1227.75 122.71ZM1229.72 119.154L1233.1 118.007C1233.53 117.863 1233.94 117.692 1234.32 117.493C1234.71 117.293 1235.05 117.062 1235.33 116.797C1235.61 116.532 1235.8 116.225 1235.88 115.875C1235.98 115.505 1235.95 115.085 1235.79 114.615C1235.65 114.19 1235.45 113.867 1235.21 113.645C1234.97 113.424 1234.68 113.283 1234.36 113.224C1234.05 113.144 1233.7 113.136 1233.31 113.198C1232.92 113.245 1232.53 113.336 1232.14 113.469L1228.25 114.785L1229.72 119.154ZM1227.45 112.396L1230.45 111.38C1230.92 111.221 1231.33 111.032 1231.68 110.813C1232.02 110.594 1232.3 110.347 1232.52 110.072C1232.73 109.798 1232.86 109.499 1232.92 109.174C1232.98 108.835 1232.94 108.468 1232.81 108.073C1232.63 107.543 1232.38 107.189 1232.05 107.013C1231.73 106.817 1231.35 106.743 1230.91 106.791C1230.46 106.823 1229.99 106.924 1229.49 107.093L1226.06 108.256L1227.45 112.396Z" fill="#2C64A9"/>
<path d="M1251.38 114.027C1249.74 114.62 1248.22 114.78 1246.81 114.506C1245.42 114.227 1244.2 113.581 1243.14 112.569C1242.09 111.551 1241.29 110.252 1240.72 108.67C1240.14 107.059 1239.94 105.532 1240.12 104.089C1240.3 102.63 1240.84 101.346 1241.75 100.234C1242.65 99.107 1243.93 98.2471 1245.57 97.6541C1247.21 97.0611 1248.72 96.9043 1250.11 97.1837C1251.52 97.4576 1252.75 98.1006 1253.81 99.1126C1254.87 100.11 1255.68 101.406 1256.25 103.003C1256.82 104.584 1257.02 106.104 1256.84 107.562C1256.68 109.015 1256.14 110.307 1255.22 111.44C1254.32 112.566 1253.04 113.429 1251.38 114.027ZM1250.49 111.39C1251.63 110.977 1252.47 110.376 1253 109.588C1253.54 108.799 1253.82 107.924 1253.85 106.961C1253.89 105.992 1253.74 105.033 1253.4 104.084C1253.14 103.361 1252.8 102.704 1252.36 102.112C1251.95 101.515 1251.44 101.026 1250.84 100.645C1250.26 100.26 1249.61 100.028 1248.89 99.9496C1248.16 99.8563 1247.36 99.9647 1246.51 100.275C1245.38 100.683 1244.54 101.284 1243.99 102.077C1243.46 102.866 1243.17 103.744 1243.12 104.713C1243.08 105.681 1243.23 106.655 1243.59 107.634C1243.93 108.598 1244.43 109.439 1245.08 110.158C1245.72 110.876 1246.5 111.368 1247.42 111.634C1248.34 111.88 1249.36 111.798 1250.49 111.39Z" fill="#2C64A9"/>
<path d="M1267.71 108.727C1266.88 109.045 1266.04 109.26 1265.21 109.371C1264.4 109.476 1263.61 109.45 1262.85 109.294C1262.1 109.133 1261.43 108.817 1260.82 108.345C1260.23 107.868 1259.75 107.204 1259.38 106.353L1262.09 105.32C1262.31 105.716 1262.58 106.014 1262.92 106.213C1263.26 106.406 1263.64 106.527 1264.05 106.576C1264.48 106.619 1264.92 106.595 1265.39 106.505C1265.85 106.415 1266.3 106.287 1266.73 106.122C1267.09 105.985 1267.45 105.82 1267.83 105.628C1268.21 105.414 1268.54 105.159 1268.82 104.864C1269.12 104.563 1269.31 104.222 1269.41 103.843C1269.52 103.444 1269.47 102.997 1269.29 102.503C1269.12 102.054 1268.89 101.721 1268.6 101.505C1268.33 101.283 1268.02 101.154 1267.66 101.118C1267.31 101.083 1266.92 101.112 1266.49 101.205C1266.08 101.294 1265.64 101.426 1265.18 101.602L1263.02 102.422L1262.13 100.064L1263.66 99.4837C1264.11 99.3129 1264.52 99.1133 1264.9 98.8847C1265.27 98.6412 1265.57 98.3802 1265.81 98.1017C1266.06 97.8175 1266.22 97.5065 1266.3 97.1688C1266.37 96.816 1266.34 96.4451 1266.19 96.0559C1265.97 95.4721 1265.65 95.0977 1265.23 94.9328C1264.81 94.7473 1264.36 94.6904 1263.85 94.7621C1263.34 94.8188 1262.86 94.9354 1262.39 95.1118C1261.83 95.3281 1261.33 95.6022 1260.91 95.9341C1260.49 96.2659 1260.19 96.6459 1260.01 97.0742C1259.83 97.5024 1259.81 97.9617 1259.96 98.4521L1257.25 99.4852C1256.98 98.7311 1256.88 98.0408 1256.95 97.4144C1257.02 96.7731 1257.2 96.1977 1257.51 95.6883C1257.81 95.164 1258.18 94.6945 1258.64 94.28C1259.1 93.8506 1259.59 93.4828 1260.12 93.1767C1260.66 92.8705 1261.17 92.6235 1261.67 92.4357C1262.35 92.1738 1263.05 91.9954 1263.75 91.9003C1264.46 91.7995 1265.15 91.8217 1265.8 91.9667C1266.46 92.0911 1267.05 92.3705 1267.58 92.8048C1268.1 93.2391 1268.51 93.8455 1268.8 94.6239C1268.95 95.0131 1269.04 95.4251 1269.06 95.8598C1269.11 96.2889 1269.05 96.7371 1268.9 97.2045C1268.77 97.6662 1268.48 98.1521 1268.04 98.6621C1269.02 98.5807 1269.86 98.8093 1270.56 99.3478C1271.27 99.8806 1271.8 100.604 1272.15 101.517C1272.46 102.376 1272.55 103.18 1272.42 103.931C1272.31 104.675 1272.03 105.353 1271.6 105.964C1271.15 106.561 1270.6 107.098 1269.92 107.578C1269.26 108.036 1268.52 108.419 1267.71 108.727Z" fill="#2C64A9"/>
<path d="M1278.39 104.431L1272.11 88.6678L1274.9 87.5494L1277.6 94.3276L1279.87 93.4151L1281.6 84.8565L1284.76 83.5861L1282.58 93.4122L1291.06 99.3409L1287.81 100.647L1281.02 95.9032L1278.61 96.8694L1281.18 103.313L1278.39 104.431Z" fill="#2C64A9"/>
<path d="M1293.16 98.479L1293.25 80.29L1296.59 79.0178L1308.64 92.5873L1305.61 93.74L1303.45 91.1999L1296.14 93.9835L1296.17 97.3348L1293.16 98.479ZM1296.08 91.1046L1301.57 89.0126L1295.98 82.4874L1296.08 91.1046Z" fill="#2C64A9"/>
<path d="M1315.25 90.2459L1314.3 87.5267C1314.78 87.3567 1315.13 87.1306 1315.36 86.8484C1315.59 86.5458 1315.73 86.1991 1315.78 85.8083C1315.84 85.3971 1315.84 84.9667 1315.76 84.5172C1315.7 84.0321 1315.6 83.5501 1315.46 83.0712C1315.34 82.5718 1315.2 82.0853 1315.05 81.6117C1314.92 81.1328 1314.79 80.7045 1314.66 80.3268L1312.26 73.1797L1323.38 69.2672L1328.97 85.2877L1326.16 86.2758L1321.47 72.8385L1315.86 74.8147L1317.25 79.084C1317.63 80.2223 1317.98 81.313 1318.29 82.3562C1318.61 83.379 1318.82 84.3301 1318.93 85.2096C1319.03 86.0891 1318.93 86.8885 1318.62 87.6076C1318.37 88.2042 1317.98 88.707 1317.44 89.1159C1316.92 89.5043 1316.19 89.881 1315.25 90.2459Z" fill="#2C64A9"/>
<path d="M1347.94 79.1492C1346.43 79.6391 1345.05 79.7603 1343.79 79.5128C1342.54 79.2653 1341.44 78.7227 1340.5 77.8851C1339.56 77.0274 1338.82 75.9406 1338.26 74.6249L1336 75.3597L1338.18 82.121L1335.33 83.0488L1330.12 66.8994L1332.97 65.9716L1335.18 72.8014L1337.44 72.0666C1337.09 70.6462 1337.06 69.3117 1337.33 68.063C1337.59 66.7991 1338.16 65.6971 1339.04 64.7568C1339.91 63.8165 1341.08 63.1089 1342.54 62.6338C1344.2 62.0945 1345.72 61.987 1347.1 62.3114C1348.48 62.6206 1349.66 63.3031 1350.66 64.3588C1351.67 65.4096 1352.44 66.7497 1352.96 68.3791C1353.48 69.978 1353.64 71.4983 1353.45 72.94C1353.26 74.3817 1352.71 75.646 1351.8 76.7328C1350.88 77.8044 1349.6 78.6099 1347.94 79.1492ZM1347.05 76.5372C1348.19 76.1661 1349.03 75.5978 1349.57 74.8322C1350.12 74.0667 1350.41 73.2056 1350.46 72.2489C1350.49 71.277 1350.36 70.2961 1350.04 69.3063C1349.72 68.3317 1349.27 67.47 1348.67 66.7211C1348.08 65.9723 1347.35 65.4451 1346.47 65.1398C1345.6 64.8344 1344.59 64.8698 1343.43 65.2458C1342.56 65.5279 1341.88 65.9278 1341.37 66.4455C1340.88 66.9582 1340.53 67.543 1340.32 68.1997C1340.13 68.8514 1340.06 69.5471 1340.11 70.2868C1340.16 71.0113 1340.3 71.7314 1340.53 72.4471C1340.77 73.178 1341.08 73.8513 1341.46 74.4669C1341.86 75.0776 1342.33 75.59 1342.87 76.0042C1343.4 76.4032 1344.01 76.6661 1344.71 76.7929C1345.42 76.8996 1346.19 76.8143 1347.05 76.5372Z" fill="#2C64A9"/>
<path d="M1358.39 75.6152L1353.54 59.3528L1365.2 55.8527L1365.98 58.475L1357.2 61.1121L1358.34 64.9304L1361.9 63.8604C1362.7 63.6211 1363.47 63.4546 1364.23 63.3609C1365 63.2627 1365.72 63.2971 1366.39 63.4642C1367.05 63.616 1367.63 63.9425 1368.13 64.4439C1368.63 64.9453 1369.03 65.6791 1369.31 66.6451C1369.61 67.6572 1369.69 68.5536 1369.54 69.3341C1369.4 70.1101 1369.09 70.7895 1368.59 71.3723C1368.11 71.9352 1367.5 72.4183 1366.77 72.8217C1366.05 73.2205 1365.27 73.5464 1364.43 73.7996L1358.39 75.6152ZM1360.48 72.13L1363.61 71.1912C1364.05 71.0577 1364.48 70.8958 1364.89 70.7056C1365.3 70.5154 1365.66 70.2831 1365.96 70.0085C1366.26 69.734 1366.46 69.4058 1366.57 69.024C1366.68 68.6375 1366.67 68.1836 1366.51 67.6622C1366.36 67.1562 1366.14 66.7797 1365.85 66.5328C1365.57 66.2814 1365.25 66.1373 1364.87 66.1005C1364.5 66.0438 1364.1 66.0546 1363.68 66.1328C1363.25 66.2111 1362.81 66.3193 1362.35 66.4573L1359.08 67.4376L1360.48 72.13Z" fill="#2C64A9"/>
<path d="M1380.49 69.3165C1378.81 69.7857 1377.28 69.8313 1375.9 69.4534C1374.53 69.0712 1373.36 68.3361 1372.37 67.2481C1371.41 66.1559 1370.7 64.8002 1370.25 63.1811C1369.79 61.5312 1369.71 59.9935 1369.99 58.5681C1370.28 57.1272 1370.91 55.8864 1371.9 54.8456C1372.89 53.7895 1374.22 53.0269 1375.9 52.5577C1377.58 52.0886 1379.1 52.0451 1380.47 52.4273C1381.86 52.8052 1383.04 53.5382 1384.02 54.6261C1385 55.6987 1385.71 57.0522 1386.16 58.6867C1386.61 60.3057 1386.7 61.8357 1386.41 63.2766C1386.15 64.7132 1385.51 65.9617 1384.51 67.0221C1383.53 68.0783 1382.19 68.8431 1380.49 69.3165ZM1379.8 66.6206C1380.97 66.2935 1381.85 65.7568 1382.44 65.0105C1383.03 64.2642 1383.37 63.412 1383.47 62.4538C1383.59 61.4913 1383.51 60.5243 1383.24 59.5528C1383.04 58.8127 1382.74 58.1314 1382.35 57.5088C1381.98 56.882 1381.51 56.3569 1380.94 55.9334C1380.39 55.5056 1379.76 55.2257 1379.04 55.0938C1378.32 54.9465 1377.52 54.9954 1376.64 55.2408C1375.49 55.5636 1374.61 56.1003 1374 56.8509C1373.41 57.5971 1373.06 58.4515 1372.94 59.414C1372.83 60.3765 1372.91 61.3589 1373.19 62.3612C1373.46 63.3481 1373.89 64.2238 1374.49 64.9883C1375.08 65.7528 1375.82 66.3016 1376.71 66.6347C1377.61 66.9481 1378.64 66.9434 1379.8 66.6206Z" fill="#2C64A9"/>
<path d="M1391.33 66.0964L1387.15 49.6511L1390.06 48.9062L1393.02 60.5598L1398.24 46.8085L1400.84 46.141L1405.02 62.5862L1402.12 63.3312L1399.19 51.8172L1393.91 65.4349L1391.33 66.0964ZM1393.75 46.7706C1392.85 47.0011 1392.04 47.0602 1391.32 46.9479C1390.6 46.8356 1389.98 46.548 1389.46 46.0851C1388.96 45.6028 1388.59 44.9546 1388.35 44.1407L1390.81 43.509C1390.98 44.0283 1391.28 44.3895 1391.71 44.5928C1392.15 44.7766 1392.66 44.795 1393.23 44.648C1393.81 44.501 1394.24 44.2422 1394.52 43.8717C1394.8 43.4857 1394.89 43.0271 1394.77 42.4959L1397.25 41.8582C1397.43 42.688 1397.41 43.4375 1397.18 44.1066C1396.97 44.7562 1396.56 45.306 1395.97 45.756C1395.39 46.202 1394.65 46.5402 1393.75 46.7706Z" fill="#2C64A9"/>
<path d="M1425.37 57.9744C1423.65 58.3588 1422.13 58.3306 1420.81 57.8898C1419.48 57.4334 1418.37 56.6389 1417.5 55.5065C1416.62 54.3741 1416 52.9722 1415.63 51.3008C1415.26 49.6295 1415.24 48.0852 1415.56 46.6681C1415.89 45.251 1416.56 44.0521 1417.57 43.0715C1418.57 42.0752 1419.92 41.3884 1421.61 41.011C1422.86 40.7314 1424 40.6959 1425.05 40.9045C1426.1 41.113 1427 41.5414 1427.77 42.1896C1428.55 42.8187 1429.15 43.6764 1429.57 44.7626L1426.74 45.3969C1426.34 44.6492 1425.76 44.124 1424.99 43.8212C1424.21 43.5185 1423.29 43.4877 1422.21 43.7289C1421.04 43.991 1420.16 44.4757 1419.56 45.1832C1418.96 45.8907 1418.6 46.7106 1418.46 47.6431C1418.34 48.5721 1418.38 49.5287 1418.6 50.5127C1418.83 51.528 1419.2 52.4441 1419.73 53.2611C1420.27 54.0746 1420.97 54.6725 1421.82 55.055C1422.68 55.4374 1423.68 55.4994 1424.84 55.2408C1425.56 55.08 1426.16 54.8387 1426.65 54.5168C1427.15 54.1914 1427.54 53.8011 1427.81 53.3459C1428.1 52.8715 1428.26 52.3608 1428.28 51.8139L1431.26 51.1482C1431.32 52.2992 1431.1 53.3385 1430.62 54.2663C1430.15 55.1906 1429.47 55.9754 1428.56 56.6208C1427.67 57.2471 1426.61 57.6983 1425.37 57.9744Z" fill="#2C64A9"/>
<path d="M1432.47 56.2799L1431.91 53.4564C1432.41 53.3546 1432.79 53.1794 1433.05 52.9308C1433.32 52.6633 1433.51 52.3395 1433.61 51.9594C1433.73 51.5605 1433.78 51.1334 1433.77 50.6783C1433.77 50.1887 1433.74 49.6975 1433.67 49.2049C1433.62 48.6934 1433.55 48.1929 1433.47 47.7035C1433.4 47.2108 1433.33 46.7684 1433.25 46.3763L1431.86 38.969L1443.41 36.6272L1446.75 53.2623L1443.83 53.8538L1441.03 39.9009L1435.2 41.0838L1435.99 45.5028C1436.21 46.6825 1436.4 47.8104 1436.57 48.8866C1436.75 49.9439 1436.83 50.9152 1436.81 51.8004C1436.79 52.6856 1436.58 53.463 1436.18 54.1327C1435.85 54.6891 1435.39 55.1329 1434.81 55.464C1434.23 55.7762 1433.45 56.0482 1432.47 56.2799Z" fill="#2C64A9"/>
<path d="M1458.88 51.1751C1457.16 51.4838 1455.63 51.3848 1454.29 50.8783C1452.97 50.3689 1451.87 49.5265 1450.99 48.351C1450.13 47.1726 1449.55 45.7564 1449.26 44.1025C1448.96 42.4171 1449.02 40.8784 1449.43 39.4864C1449.85 38.0787 1450.6 36.9035 1451.68 35.9609C1452.76 35.0025 1454.16 34.369 1455.88 34.0603C1457.59 33.7517 1459.12 33.852 1460.44 34.3614C1461.78 34.8679 1462.89 35.709 1463.77 36.8845C1464.64 38.0443 1465.23 39.459 1465.52 41.1287C1465.82 42.7826 1465.76 44.3134 1465.34 45.7212C1464.94 47.1261 1464.2 48.3091 1463.1 49.2703C1462.02 50.2287 1460.61 50.8636 1458.88 51.1751ZM1458.44 48.4258C1459.64 48.2106 1460.56 47.7594 1461.22 47.0722C1461.88 46.3849 1462.3 45.5691 1462.49 44.6248C1462.7 43.6775 1462.71 42.7077 1462.53 41.7154C1462.4 40.9593 1462.17 40.2531 1461.84 39.5969C1461.53 38.9378 1461.11 38.3708 1460.58 37.896C1460.08 37.4183 1459.47 37.08 1458.77 36.881C1458.06 36.6664 1457.26 36.6397 1456.37 36.8011C1455.19 37.0135 1454.26 37.4647 1453.58 38.1548C1452.93 38.842 1452.5 39.6592 1452.29 40.6065C1452.09 41.5537 1452.07 42.5392 1452.26 43.5631C1452.44 44.5712 1452.79 45.4837 1453.31 46.3007C1453.83 47.1176 1454.51 47.7338 1455.37 48.1492C1456.23 48.546 1457.26 48.6382 1458.44 48.4258Z" fill="#2C64A9"/>
<path d="M1467.64 49.017L1470.99 39.7157L1465.1 32.241L1468.42 31.7327L1473.3 38.3177L1475.58 37.9692L1474.49 30.8032L1477.43 30.353L1478.52 37.519L1480.84 37.1632L1483.55 29.4163L1486.85 28.9116L1483.42 37.8132L1489.4 45.6876L1485.93 46.2177L1481.3 39.8372L1478.93 40.2003L1479.98 47.129L1477.04 47.5792L1475.98 40.6505L1473.63 40.9862L1471.08 48.4905L1467.64 49.017Z" fill="#2C64A9"/>
<path d="M1493.03 44.8882L1490.89 28.0555L1493.87 27.6741L1494.78 34.8643L1502.64 33.8574L1501.72 26.6672L1504.68 26.2889L1506.82 43.1216L1503.86 43.4999L1502.98 36.5716L1495.13 37.5785L1496.01 44.5068L1493.03 44.8882Z" fill="#2C64A9"/>
<path d="M1519.5 42.5114C1517.77 42.6906 1516.25 42.4774 1514.95 41.8719C1513.67 41.2646 1512.63 40.3421 1511.84 39.1044C1511.07 37.865 1510.6 36.4096 1510.43 34.7384C1510.26 33.0353 1510.43 31.5054 1510.95 30.1487C1511.47 28.7762 1512.31 27.6605 1513.46 26.8017C1514.6 25.927 1516.05 25.4001 1517.78 25.2209C1519.52 25.0417 1521.03 25.2557 1522.31 25.8629C1523.61 26.4685 1524.65 27.3902 1525.44 28.6279C1526.22 29.8498 1526.7 31.3043 1526.88 32.9915C1527.05 34.6627 1526.87 36.1847 1526.35 37.5572C1525.85 38.9282 1525.02 40.0518 1523.85 40.9281C1522.7 41.8028 1521.25 42.3306 1519.5 42.5114ZM1519.27 39.737C1520.48 39.612 1521.44 39.2315 1522.14 38.5955C1522.85 37.9595 1523.33 37.1778 1523.59 36.2503C1523.87 35.3211 1523.95 34.3552 1523.85 33.3524C1523.77 32.5884 1523.59 31.8669 1523.31 31.188C1523.05 30.5074 1522.68 29.9107 1522.19 29.398C1521.72 28.8837 1521.14 28.501 1520.46 28.2501C1519.77 27.9833 1518.97 27.8967 1518.06 27.9904C1516.87 28.1137 1515.91 28.4942 1515.19 29.1318C1514.48 29.7678 1513.99 30.5504 1513.72 31.4796C1513.44 32.4087 1513.36 33.3906 1513.46 34.4252C1513.57 35.4438 1513.85 36.3799 1514.31 37.2335C1514.76 38.087 1515.4 38.7528 1516.22 39.231C1517.06 39.6916 1518.07 39.8603 1519.27 39.737Z" fill="#2C64A9"/>
<path d="M1537.72 40.8229C1535.96 40.9638 1534.46 40.7235 1533.21 40.1019C1531.95 39.4643 1530.97 38.5239 1530.26 37.2807C1529.55 36.0375 1529.13 34.5626 1528.99 32.856C1528.86 31.1494 1529.05 29.6172 1529.57 28.2593C1530.08 26.9015 1530.91 25.8077 1532.05 24.9779C1533.19 24.1322 1534.61 23.6401 1536.34 23.5017C1537.61 23.3992 1538.75 23.5242 1539.76 23.8767C1540.77 24.2291 1541.61 24.7798 1542.28 25.5285C1542.96 26.2601 1543.44 27.193 1543.7 28.3273L1540.81 28.5598C1540.52 27.7644 1540.02 27.1629 1539.29 26.7555C1538.57 26.348 1537.66 26.1885 1536.56 26.2769C1535.36 26.373 1534.42 26.7297 1533.73 27.3469C1533.04 27.964 1532.56 28.7247 1532.3 29.6288C1532.05 30.5317 1531.97 31.4855 1532.05 32.4903C1532.13 33.527 1532.37 34.4865 1532.78 35.3687C1533.2 36.2496 1533.81 36.9391 1534.61 37.4371C1535.4 37.9351 1536.39 38.1367 1537.57 38.0419C1538.3 37.9829 1538.93 37.828 1539.46 37.5771C1540 37.3249 1540.44 36.9927 1540.77 36.5804C1541.12 36.1509 1541.35 35.6673 1541.45 35.1294L1544.49 34.8853C1544.39 36.0331 1544.04 37.0326 1543.43 37.8839C1542.84 38.7339 1542.05 39.4152 1541.06 39.9279C1540.09 40.4233 1538.98 40.7216 1537.72 40.8229Z" fill="#2C64A9"/>
<path d="M1552.54 39.5652L1551.71 25.3578L1546.41 25.6718L1546.25 22.9405L1559.81 22.1363L1559.97 24.8676L1554.68 25.1816L1555.51 39.3891L1552.54 39.5652Z" fill="#2C64A9"/>
<path d="M1563.21 38.9349L1562.57 21.9791L1565.57 21.8644L1566.02 33.8798L1574.01 21.5415L1576.69 21.4387L1577.34 38.3945L1574.34 38.5092L1573.89 26.6377L1565.87 38.8331L1563.21 38.9349Z" fill="#2C64A9"/>
<path d="M1588.65 38.1093L1588.56 21.1416L1591.56 21.1244L1591.6 28.3723L1599.52 28.3268L1599.48 21.0789L1602.45 21.0618L1602.55 38.0296L1599.57 38.0467L1599.53 31.0628L1591.61 31.1082L1591.65 38.0921L1588.65 38.1093Z" fill="#2C64A9"/>
<path d="M1605.16 37.998L1611.96 21.1444L1615.53 21.206L1621.72 38.2831L1618.48 38.2273L1617.41 35.0643L1609.59 34.9297L1608.38 38.0534L1605.16 37.998ZM1610.59 32.2346L1616.47 32.3358L1613.68 24.1986L1610.59 32.2346Z" fill="#2C64A9"/>
<path d="M1634.01 38.7196L1634.66 24.5023L1629.36 24.2591L1629.49 21.5259L1643.06 22.1489L1642.93 24.8821L1637.63 24.6388L1636.99 38.8561L1634.01 38.7196Z" fill="#2C64A9"/>
<path d="M1647.68 39.3906L1648.81 22.4599L1660.76 23.2599L1660.58 25.9899L1651.62 25.3903L1651.32 29.8445L1659.11 30.3656L1658.93 33.0477L1651.15 32.5266L1650.86 36.861L1659.81 37.4607L1659.63 40.1907L1647.68 39.3906Z" fill="#2C64A9"/>
<path d="M1664.01 40.3597L1665.45 23.4531L1671.81 24.0007C1673.08 24.1104 1674.17 24.4044 1675.06 24.8825C1675.97 25.3461 1676.64 26.0223 1677.08 26.9112C1677.53 27.8014 1677.7 28.932 1677.58 30.303C1677.47 31.6103 1677.09 32.6776 1676.44 33.505C1675.79 34.3324 1674.96 34.9268 1673.93 35.2881C1672.9 35.6334 1671.75 35.7512 1670.48 35.6414L1667.44 35.38L1666.99 40.617L1664.01 40.3597ZM1667.67 32.7017L1670.66 32.959C1671.76 33.0537 1672.67 32.8668 1673.38 32.3984C1674.1 31.9299 1674.5 31.1298 1674.6 29.9979C1674.68 29.0095 1674.47 28.2442 1673.95 27.7019C1673.44 27.1437 1672.6 26.8146 1671.43 26.7144L1668.2 26.4365L1667.67 32.7017Z" fill="#2C64A9"/>
<path d="M1679.37 41.901L1681.16 25.0279L1687.51 25.7079C1688.79 25.8443 1689.86 26.1607 1690.74 26.6573C1691.64 27.1397 1692.3 27.8298 1692.72 28.7276C1693.15 29.6271 1693.3 30.761 1693.15 32.1293C1693.02 33.434 1692.61 34.4932 1691.95 35.3069C1691.28 36.1206 1690.43 36.6974 1689.4 37.0373C1688.37 37.3612 1687.21 37.455 1685.94 37.3186L1682.91 36.994L1682.36 42.2206L1679.37 41.901ZM1683.19 34.321L1686.18 34.6405C1687.28 34.7581 1688.19 34.5902 1688.91 34.1367C1689.63 33.6833 1690.06 32.8917 1690.18 31.7621C1690.28 30.7756 1690.08 30.0059 1689.58 29.4531C1689.07 28.8843 1688.24 28.5377 1687.08 28.4133L1683.86 28.0682L1683.19 34.321Z" fill="#2C64A9"/>
<path d="M1693.82 43.4503L1695.96 26.6177L1698.94 26.999L1697.42 38.9271L1707.32 28.073L1709.98 28.4148L1707.84 45.2474L1704.87 44.866L1706.37 33.0808L1696.46 43.789L1693.82 43.4503Z" fill="#2C64A9"/>
<path d="M1715.88 46.3947L1717.96 32.316L1712.71 31.5332L1713.11 28.8267L1726.55 30.8314L1726.15 33.5379L1720.9 32.7551L1718.82 46.8339L1715.88 46.3947Z" fill="#2C64A9"/>
<path d="M1733.99 49.4444C1732.27 49.1517 1730.87 48.5391 1729.77 47.6066C1728.7 46.6768 1727.95 45.5099 1727.52 44.1061C1727.1 42.705 1727.04 41.1762 1727.32 39.5196C1727.6 37.8315 1728.18 36.4035 1729.04 35.2357C1729.9 34.0521 1731 33.2008 1732.34 32.6819C1733.68 32.1472 1735.21 32.0261 1736.93 32.3189C1738.65 32.6116 1740.05 33.2228 1741.12 34.1527C1742.22 35.0852 1742.98 36.2533 1743.4 37.6571C1743.83 39.0452 1743.91 40.5754 1743.63 42.2477C1743.35 43.9043 1742.77 45.3243 1741.91 46.5079C1741.06 47.6942 1739.96 48.5534 1738.6 49.0854C1737.26 49.6202 1735.73 49.7398 1733.99 49.4444ZM1734.5 46.7073C1735.7 46.9114 1736.72 46.8018 1737.57 46.3785C1738.43 45.9552 1739.1 45.3314 1739.59 44.507C1740.11 43.6852 1740.45 42.7774 1740.61 41.7834C1740.74 41.0262 1740.76 40.283 1740.67 39.5539C1740.6 38.8275 1740.4 38.1519 1740.07 37.5272C1739.75 36.9052 1739.29 36.3814 1738.7 35.9558C1738.11 35.5143 1737.37 35.2171 1736.47 35.064C1735.28 34.8626 1734.26 34.9722 1733.39 35.3928C1732.54 35.8161 1731.86 36.4386 1731.35 37.2604C1730.84 38.0821 1730.5 39.0057 1730.32 40.0312C1730.15 41.0409 1730.17 42.0184 1730.39 42.9637C1730.6 43.9089 1731.04 44.7221 1731.7 45.4032C1732.39 46.0712 1733.32 46.5059 1734.5 46.7073Z" fill="#2C64A9"/>
<path d="M1744.41 51.0463L1747.57 34.3755L1753.84 35.575C1755.1 35.8155 1756.15 36.2194 1756.98 36.7868C1757.84 37.3414 1758.44 38.0834 1758.78 39.0128C1759.15 39.9451 1759.2 41.0873 1758.94 42.4392C1758.7 43.7282 1758.21 44.7509 1757.48 45.5072C1756.75 46.2636 1755.86 46.7687 1754.8 47.0224C1753.74 47.2605 1752.59 47.2592 1751.33 47.0187L1748.34 46.4461L1747.36 51.61L1744.41 51.0463ZM1748.84 43.8051L1751.78 44.3688C1752.87 44.5762 1753.79 44.4837 1754.55 44.0912C1755.31 43.6987 1755.79 42.9444 1756 41.8283C1756.19 40.8537 1756.05 40.0701 1755.59 39.4776C1755.14 38.8693 1754.34 38.4555 1753.19 38.236L1750.01 37.6273L1748.84 43.8051Z" fill="#2C64A9"/>
<path d="M1762.12 54.4707L1765.65 37.8731L1768.58 38.5016L1766.08 50.2631L1776.84 40.2714L1779.47 40.8345L1775.94 57.4322L1773.01 56.8037L1775.48 45.183L1764.73 55.0288L1762.12 54.4707Z" fill="#2C64A9"/>
<path d="M1779.95 58.322L1783.84 41.8046L1786.76 42.4971L1784.01 54.2017L1794.98 44.4469L1797.59 45.0673L1793.71 61.5847L1790.79 60.8923L1793.51 49.3278L1782.55 58.9369L1779.95 58.322Z" fill="#2C64A9"/>
<path d="M1816.23 67.6449C1814.71 67.2297 1813.48 66.574 1812.56 65.6779C1811.64 64.7817 1811.02 63.7245 1810.68 62.5061C1810.37 61.2766 1810.33 59.9575 1810.58 58.5489L1808.29 57.9261L1806.44 64.7857L1803.55 63.9992L1807.96 47.615L1810.85 48.4014L1808.99 55.3305L1811.28 55.9534C1811.77 54.5768 1812.46 53.4394 1813.37 52.5412C1814.28 51.6275 1815.35 51.0162 1816.59 50.7073C1817.84 50.3983 1819.2 50.4452 1820.68 50.8478C1822.37 51.305 1823.7 52.0483 1824.68 53.0778C1825.67 54.0918 1826.29 55.314 1826.55 56.7444C1826.83 58.1791 1826.74 59.7229 1826.3 61.376C1825.86 62.9982 1825.17 64.361 1824.23 65.4643C1823.28 66.5675 1822.14 67.325 1820.78 67.7365C1819.43 68.1326 1817.92 68.1021 1816.23 67.6449ZM1816.91 64.9673C1818.06 65.2819 1819.08 65.2673 1819.95 64.9237C1820.82 64.5801 1821.53 64.0198 1822.09 63.2427C1822.65 62.4502 1823.07 61.5518 1823.34 60.5476C1823.61 59.5588 1823.69 58.5878 1823.6 57.6345C1823.51 56.6813 1823.18 55.8378 1822.62 55.1041C1822.05 54.3705 1821.18 53.8442 1820.01 53.5255C1819.13 53.2864 1818.34 53.2452 1817.63 53.4019C1816.94 53.5627 1816.33 53.8611 1815.8 54.297C1815.29 54.737 1814.85 55.2816 1814.49 55.9307C1814.14 56.5644 1813.86 57.2442 1813.67 57.9704C1813.47 58.7119 1813.36 59.4457 1813.35 60.1716C1813.35 60.9017 1813.47 61.5875 1813.69 62.2289C1813.92 62.8548 1814.29 63.4118 1814.81 63.8998C1815.34 64.3766 1816.04 64.7324 1816.91 64.9673Z" fill="#2C64A9"/>
<path d="M1834.4 72.9482L1835.17 70.349L1833.98 69.99C1832.68 69.5835 1831.63 68.9845 1830.83 68.1932C1830.03 67.4018 1829.52 66.4624 1829.29 65.3751C1829.07 64.2725 1829.15 63.0772 1829.53 61.789C1829.95 60.4442 1830.57 59.3946 1831.4 58.6402C1832.22 57.8858 1833.2 57.4182 1834.32 57.2374C1835.44 57.0565 1836.63 57.1548 1837.89 57.5322L1838.9 57.836L1839.57 55.5818L1842.44 56.4447L1841.77 58.6989L1842.69 58.975C1843.95 59.3524 1845 59.9284 1845.86 60.7029C1846.71 61.4774 1847.29 62.4099 1847.58 63.5002C1847.88 64.5753 1847.83 65.7821 1847.45 67.1209C1847.07 68.4442 1846.48 69.5031 1845.68 70.2973C1844.88 71.0763 1843.92 71.5738 1842.81 71.7899C1841.71 72.0106 1840.49 71.9284 1839.15 71.5433L1838.05 71.212L1837.27 73.8112L1834.4 72.9482ZM1834.99 67.6117L1835.9 67.8878L1838.17 60.2972L1837.29 60.0348C1836.48 59.7909 1835.74 59.7448 1835.08 59.8966C1834.42 60.0483 1833.85 60.3542 1833.38 60.8142C1832.92 61.2788 1832.59 61.8638 1832.38 62.5692C1832.16 63.3206 1832.09 64.0344 1832.17 64.7107C1832.27 65.3916 1832.54 65.9836 1832.99 66.4866C1833.46 66.9789 1834.13 67.3539 1834.99 67.6117ZM1838.78 68.7507L1839.67 69.02C1840.55 69.2823 1841.31 69.3353 1841.96 69.179C1842.62 69.0119 1843.18 68.6684 1843.61 68.1486C1844.07 67.6334 1844.41 67.0001 1844.63 66.2487C1844.85 65.528 1844.88 64.8456 1844.74 64.2015C1844.61 63.562 1844.3 63.0015 1843.81 62.5199C1843.34 62.0276 1842.7 61.6595 1841.89 61.4155L1841.04 61.1601L1838.78 68.7507Z" fill="#2C64A9"/>
<path d="M1856.01 79.5405C1854.36 79.0012 1853.05 78.1907 1852.11 77.1092C1851.18 76.0327 1850.6 74.7686 1850.38 73.317C1850.17 71.8704 1850.33 70.3476 1850.84 68.7487C1851.37 67.1193 1852.14 65.7893 1853.17 64.7587C1854.19 63.7129 1855.4 63.0302 1856.8 62.7107C1858.2 62.376 1859.73 62.4783 1861.39 63.0177C1863.05 63.5571 1864.35 64.365 1865.28 65.4416C1866.22 66.5231 1866.81 67.7896 1867.03 69.2412C1867.25 70.6775 1867.11 72.2028 1866.58 73.817C1866.07 75.4159 1865.3 76.7383 1864.27 77.7841C1863.26 78.8349 1862.05 79.5252 1860.63 79.8549C1859.23 80.1896 1857.69 80.0848 1856.01 79.5405ZM1856.91 76.9057C1858.07 77.2818 1859.1 77.3221 1860 77.0266C1860.9 76.7311 1861.66 76.2114 1862.27 75.4675C1862.9 74.7286 1863.36 73.8794 1863.67 72.92C1863.91 72.1891 1864.03 71.4564 1864.05 70.7221C1864.09 69.9926 1863.98 69.2947 1863.74 68.6281C1863.52 67.9664 1863.15 67.3819 1862.62 66.8745C1862.1 66.3518 1861.41 65.9494 1860.54 65.6674C1859.4 65.2963 1858.37 65.256 1857.45 65.5465C1856.55 65.842 1855.78 66.3592 1855.16 67.0981C1854.53 67.8371 1854.06 68.7015 1853.74 69.6913C1853.43 70.6659 1853.31 71.6365 1853.38 72.6031C1853.46 73.5697 1853.78 74.4382 1854.33 75.2087C1854.91 75.9689 1855.77 76.5346 1856.91 76.9057Z" fill="#2C64A9"/>
<path d="M1890.71 85.2181C1890.22 85.036 1889.79 84.7598 1889.43 84.3893C1889.08 84.0038 1888.84 83.5585 1888.72 83.0533C1888.6 82.533 1888.65 81.9722 1888.87 81.3708C1889.19 80.4988 1889.71 79.9066 1890.44 79.594C1891.18 79.2869 1891.95 79.2823 1892.77 79.5802C1893.31 79.7788 1893.74 80.0756 1894.08 80.4706C1894.42 80.8711 1894.64 81.326 1894.73 81.8352C1894.83 82.35 1894.78 82.893 1894.57 83.4643C1894.26 84.3212 1893.73 84.9032 1892.99 85.2103C1892.27 85.5078 1891.51 85.5104 1890.71 85.2181Z" fill="#2C64A9"/>
</svg>
