<svg width="18" height="18" viewBox="0 0 18 18" fill="none" xmlns="http://www.w3.org/2000/svg">
<path d="M15.372 2.61493C13.68 0.931343 11.43 0 9.036 0C4.104 0 0.072 3.99403 0.072 8.9194C0.072 10.4955 0.486 12.0179 1.26 13.3791L0 18L4.752 16.7642C6.066 17.4806 7.542 17.8567 9.036 17.8567C13.968 17.8567 18 13.8627 18 8.93731C18 6.53731 17.064 4.29851 15.372 2.61493ZM9.036 16.3343C7.704 16.3343 6.39 15.9761 5.238 15.2955L4.968 15.1343L2.16 15.8866L2.916 13.1463L2.736 12.8597C1.998 11.6776 1.602 10.3164 1.602 8.9194C1.584 4.83582 4.932 1.50448 9.036 1.50448C11.034 1.50448 12.888 2.27463 14.31 3.67164C15.714 5.06866 16.488 6.93134 16.488 8.9194C16.488 13.003 13.14 16.3343 9.036 16.3343ZM13.122 10.7821C12.906 10.6746 11.79 10.1373 11.592 10.0657C11.394 9.99403 11.232 9.95821 11.088 10.1731C10.944 10.3881 10.512 10.8896 10.386 11.0507C10.26 11.194 10.116 11.2119 9.9 11.1045C9.684 10.997 8.946 10.7642 8.1 9.99403C7.434 9.40298 6.984 8.66866 6.858 8.45373C6.732 8.23881 6.84 8.11343 6.948 8.00597C7.056 7.89851 7.164 7.73731 7.29 7.61194C7.398 7.48657 7.434 7.39702 7.506 7.23582C7.578 7.09254 7.542 6.94925 7.488 6.84179C7.434 6.73433 6.984 5.64179 6.804 5.19403C6.624 4.76418 6.444 4.81791 6.3 4.81791C6.174 4.81791 6.012 4.81791 5.868 4.81791C5.724 4.81791 5.472 4.87164 5.274 5.10448C5.076 5.3194 4.482 5.87463 4.482 6.96716C4.482 8.0597 5.292 9.11642 5.4 9.27761C5.508 9.4209 6.984 11.6776 9.234 12.6448C9.774 12.8776 10.188 13.003 10.512 13.1104C11.052 13.2716 11.538 13.2537 11.916 13.2C12.348 13.1284 13.248 12.6627 13.428 12.1433C13.608 11.6239 13.608 11.1761 13.554 11.0866C13.5 10.9433 13.356 10.8896 13.122 10.7821Z" fill="#0A3264"/>
</svg>
